<svg xmlns="http://www.w3.org/2000/svg" xmlns:xlink="http://www.w3.org/1999/xlink" viewBox="0 0 300.47 193.78"><defs><style>.cls-1{isolation:isolate;}.cls-2{fill:#03163e;}.cls-19,.cls-3,.cls-4,.cls-5{opacity:0.3;}.cls-3{fill:url(#radial-gradient);}.cls-4{fill:url(#radial-gradient-2);}.cls-5{fill:url(#radial-gradient-3);}.cls-6{fill:#549f0e;}.cls-7{fill:#4b9208;}.cls-8{fill:#fff;}.cls-10,.cls-11,.cls-12,.cls-13,.cls-14,.cls-15,.cls-16,.cls-17,.cls-18,.cls-9{opacity:0.2;}.cls-9{fill:url(#linear-gradient);}.cls-10{fill:url(#linear-gradient-2);}.cls-11{fill:url(#linear-gradient-3);}.cls-12{fill:url(#linear-gradient-4);}.cls-13{fill:url(#linear-gradient-5);}.cls-14{fill:url(#linear-gradient-6);}.cls-15{fill:url(#linear-gradient-7);}.cls-16{fill:url(#linear-gradient-8);}.cls-17{fill:url(#linear-gradient-9);}.cls-18{fill:url(#linear-gradient-10);}.cls-19{fill:url(#radial-gradient-4);}.cls-20{fill:#414042;opacity:0.75;mix-blend-mode:multiply;}</style><radialGradient id="radial-gradient" cx="225.31" cy="76.72" r="50" gradientUnits="userSpaceOnUse"><stop offset="0.05" stop-color="#5ce2ff" stop-opacity="0.5"/><stop offset="0.19" stop-color="#54d0ee" stop-opacity="0.46"/><stop offset="0.44" stop-color="#40a1c1" stop-opacity="0.34"/><stop offset="0.76" stop-color="#1e5479" stop-opacity="0.15"/><stop offset="1" stop-color="#03163e" stop-opacity="0"/></radialGradient><radialGradient id="radial-gradient-2" cx="57.69" cy="70.53" r="48.82" xlink:href="#radial-gradient"/><radialGradient id="radial-gradient-3" cx="241.67" cy="66.64" r="50" xlink:href="#radial-gradient"/><linearGradient id="linear-gradient" x1="21.34" y1="46.83" x2="91.7" y2="46.83" gradientUnits="userSpaceOnUse"><stop offset="0.06" stop-color="#fff"/><stop offset="0.2" stop-color="#fff" stop-opacity="0.77"/><stop offset="0.36" stop-color="#fff" stop-opacity="0.54"/><stop offset="0.51" stop-color="#fff" stop-opacity="0.35"/><stop offset="0.66" stop-color="#fff" stop-opacity="0.2"/><stop offset="0.79" stop-color="#fff" stop-opacity="0.09"/><stop offset="0.91" stop-color="#fff" stop-opacity="0.02"/><stop offset="1" stop-color="#fff" stop-opacity="0"/></linearGradient><linearGradient id="linear-gradient-2" x1="6.28" y1="40.38" x2="66.9" y2="40.38" xlink:href="#linear-gradient"/><linearGradient id="linear-gradient-3" x1="36.41" y1="43.62" x2="97.03" y2="43.62" xlink:href="#linear-gradient"/><linearGradient id="linear-gradient-4" x1="21.11" y1="34.08" x2="91.47" y2="34.08" xlink:href="#linear-gradient"/><linearGradient id="linear-gradient-5" x1="8.6" y1="57.49" x2="78.96" y2="57.49" xlink:href="#linear-gradient"/><linearGradient id="linear-gradient-6" x1="2170.69" y1="39.6" x2="2231.31" y2="39.6" gradientTransform="matrix(-1, 0, 0, 1, 2468.03, 0)" xlink:href="#linear-gradient"/><linearGradient id="linear-gradient-7" x1="2200.82" y1="42.84" x2="2261.44" y2="42.84" gradientTransform="matrix(-1, 0, 0, 1, 2468.03, 0)" xlink:href="#linear-gradient"/><linearGradient id="linear-gradient-8" x1="2185.52" y1="33.3" x2="2255.88" y2="33.3" gradientTransform="matrix(-1, 0, 0, 1, 2468.03, 0)" xlink:href="#linear-gradient"/><linearGradient id="linear-gradient-9" x1="2185.75" y1="46.05" x2="2256.11" y2="46.05" gradientTransform="matrix(-1, 0, 0, 1, 2468.03, 0)" xlink:href="#linear-gradient"/><linearGradient id="linear-gradient-10" x1="2173.01" y1="56.71" x2="2243.37" y2="56.71" gradientTransform="matrix(-1, 0, 0, 1, 2468.03, 0)" xlink:href="#linear-gradient"/><radialGradient id="radial-gradient-4" cx="66.72" cy="72.39" r="48.82" xlink:href="#radial-gradient"/></defs><title>FB3-03</title><g class="cls-1"><g id="Layer_1" data-name="Layer 1"><rect id="blue-bg" class="cls-2" width="300.26" height="124.58"/><ellipse id="light2" class="cls-3" cx="225.31" cy="76.72" rx="49.43" ry="50.56"/><ellipse id="light4" class="cls-4" cx="57.69" cy="70.53" rx="48.27" ry="49.37"/><ellipse id="light2-2" data-name="light2" class="cls-5" cx="241.67" cy="66.64" rx="49.43" ry="50.56"/><g id="pitch"><polygon class="cls-6" points="300.47 193.78 0 193.78 0 124.58 300.26 124.58 300.47 193.78"/><polygon class="cls-7" points="45.96 183.47 23.87 183.47 59.15 129.93 74.4 129.58 45.96 183.47"/><polygon class="cls-7" points="87.32 182.8 68.45 182.8 90.56 129.58 104.32 129.58 87.32 182.8"/><polygon class="cls-7" points="128.32 182.8 109.32 183.47 120.48 129.58 134.24 129.58 128.32 182.8"/><polygon class="cls-7" points="169.31 183.47 150.95 182.8 150.8 129.58 164.09 129.58 169.31 183.47"/><polygon class="cls-7" points="210.33 182.8 191.46 182.8 180.4 129.93 193.4 129.93 210.33 182.8"/><polygon class="cls-7" points="251.36 182.8 233.25 183.47 210.75 129.58 224.03 129.58 251.36 182.8"/><polygon class="cls-7" points="276.6 183.47 273.89 183.47 240.16 129.58 242.13 129.58 276.6 183.47"/><path class="cls-8" d="M265.42,155.83l-4.73-7h-6.23l-9.86-15.42h0.15l-0.39-.36-2.22-3.48H58.33l-2.45,3.83h0L46,148.85H40.12l-4.72,7h6.14L28.32,176.52h0v0l-4.43,6.93H149.52v0.34h1.43v-0.34H276.6l-4.05-6.33-0.19-.61h-0.21l-13.22-20.67h6.49Zm-10.5-6.53h4.89l4,6h-5.07Zm-3.1-2.25H238.5l5.91,10.78h14.21l4.92,7.8H228.46l-10.83-24.88h30.22Zm0.28,0.45,6.2,9.83H245.37l-5.46-9.83H252.1Zm-8.79-14.42a33.67,33.67,0,0,1-8-.78c-2.11-.54-3.52-1.33-4.22-2.37h10.25Zm-93.7,24.75c-10.72-.13-18.92-3.66-18.45-7.77,0.46-3.92,8.7-7,18.5-7.1ZM150.8,143c9.8,0.11,18,3.18,18.5,7.1,0.48,4.12-7.73,7.64-18.45,7.77Zm-81.26-13c-0.7,1-2.12,1.83-4.22,2.36a34,34,0,0,1-8.17.78l2-3.14H69.54Zm-26.6,25.9,4.41-7,0.85-1.35H60.39l-5.47,9.83H42Zm-1.26,2H55.89L61.81,147H48.49l4-6.3H82.68L71.83,165.63H36.76ZM37,155.34l4-6h4.73l-3.86,6H37Zm-7.63,21.75c2.17,0,6.71,0,9.24,1.33,1.88,1,2.34,2.42,1.36,4.38H25.72Zm12,5.71c1.07-2.16.52-3.78-1.6-4.86-2.81-1.42-7.64-1.52-10-1.48l6.5-10.27H72.89L76,159l0.23-.09c5-1.87,8.25-4.25,9.19-6.67s-0.43-4.53-3.7-6.17L81.54,146,84,140.34H52.57l4.36-6.89H57.6a35.48,35.48,0,0,0,8.25-.88c2.39-.61,4-1.5,4.73-2.65h79.13l0,12.6c-10.4.11-19.17,3.36-19.69,7.52-0.54,4.39,8.2,8.15,19.63,8.28l-0.09,24.46H41.36Zm35.37-24.73,4.79-11.23c2.51,1.5,3.47,3.4,2.67,5.43S80.75,156.39,76.73,158.07Zm184,24.73c-1-2-.52-3.42,1.35-4.38,2.45-1.25,6.81-1.37,9-1.33l3.61,5.71h-14Zm0.17-4.86c-2.12,1.08-2.67,2.7-1.6,4.86H150.95l-0.09-24.46c11.43-.14,20.17-3.9,19.63-8.28-0.51-4.16-9.28-7.41-19.69-7.52l0-12.6H230c0.76,1.14,2.35,2,4.74,2.65a35.49,35.49,0,0,0,8.25.88h0.53l4.36,6.89H216.33l2.43,5.68-0.15.07c-3.28,1.64-4.62,3.82-3.71,6.17s4.18,4.79,9.19,6.67l0.23,0.09,3.07,7.17h36.85l6.49,10.27C268.29,176.42,263.64,176.55,260.91,177.94Zm-42.12-31.1,4.78,11.23c-4-1.69-6.63-3.73-7.45-5.8S216.28,148.34,218.78,146.84Z"/></g><polygon class="cls-9" points="21.34 21.26 79.96 72.39 91.7 72.39 30 22.26 21.34 21.26"/><polygon class="cls-10" points="6.28 7.28 55.16 73.48 66.9 73.48 16.82 8.4 6.28 7.28"/><path class="cls-8" d="M46.84,11.57a3.23,3.23,0,0,0,3,3.32A2.92,2.92,0,0,0,53,12.23,3.23,3.23,0,0,0,50.2,8.86,2.91,2.91,0,0,0,46.84,11.57Z"/><path class="cls-8" d="M36.67,10.5a3.8,3.8,0,0,0,3.6,3.61,3.14,3.14,0,0,0,3.59-2.85,3.78,3.78,0,0,0-3.4-3.67A3.14,3.14,0,0,0,36.67,10.5Z"/><path class="cls-8" d="M46.32,21.67a2.8,2.8,0,0,0,2.9,2.86,3,3,0,0,0,3.1-2.69,2.79,2.79,0,0,0-2.75-2.92A3,3,0,0,0,46.32,21.67Z"/><path class="cls-8" d="M36.51,21.4A3.28,3.28,0,0,0,40,24.48a3.26,3.26,0,0,0,3.46-2.89,3.24,3.24,0,0,0-3.29-3.14A3.26,3.26,0,0,0,36.51,21.4Z"/><path class="cls-8" d="M45.84,31.05a2.45,2.45,0,0,0,2.82,2.46,3.17,3.17,0,0,0,3-2.72A2.43,2.43,0,0,0,49,28.28,3.16,3.16,0,0,0,45.84,31.05Z"/><path class="cls-8" d="M36.37,31.48c0,1.57,1.5,2.73,3.34,2.61A3.39,3.39,0,0,0,43,31.18c0.06-1.52-1.34-2.73-3.18-2.68A3.39,3.39,0,0,0,36.37,31.48Z"/><path class="cls-8" d="M21.13,8.85c0.08,2.05,2.19,3.87,4.63,4.07S30,11.72,30,9.79,28,6,25.58,5.65,21,6.77,21.13,8.85Z"/><path class="cls-8" d="M6.28,7.28C6.49,9.54,9.1,11.55,12,11.79s4.93-1.28,4.81-3.39-2.5-4.21-5.4-4.59S6.06,5,6.28,7.28Z"/><path class="cls-8" d="M21.63,21c0.08,1.88,2.08,3.4,4.42,3.41s4-1.4,4-3.18-1.86-3.37-4.18-3.49S21.55,19.08,21.63,21Z"/><path class="cls-8" d="M7.53,20.6c0.19,2.05,2.66,3.71,5.42,3.73s4.69-1.52,4.58-3.45-2.37-3.68-5.12-3.82S7.33,18.51,7.53,20.6Z"/><path class="cls-8" d="M22.09,32.11c0.07,1.73,2,3,4.22,2.85s3.87-1.57,3.85-3.21-1.78-3-4-2.93S22,30.36,22.09,32.11Z"/><path class="cls-8" d="M8.66,32.71c0.18,1.87,2.51,3.23,5.14,3.06s4.47-1.71,4.37-3.48-2.25-3.22-4.86-3.16S8.49,30.81,8.66,32.71Z"/><polygon class="cls-11" points="36.41 10.53 85.29 76.72 97.03 76.72 43.67 11.6 36.41 10.53"/><polygon class="cls-12" points="21.11 8.52 79.73 59.65 91.47 59.65 29.77 9.51 21.11 8.52"/><polygon class="cls-13" points="8.6 31.93 67.21 83.06 78.96 83.06 17.25 32.92 8.6 31.93"/><polygon class="cls-14" points="297.35 6.5 248.47 72.69 236.72 72.69 286.81 7.61 297.35 6.5"/><path class="cls-8" d="M256.79,10.79a3.23,3.23,0,0,1-3,3.32,2.92,2.92,0,0,1-3.21-2.66,3.23,3.23,0,0,1,2.83-3.37A2.91,2.91,0,0,1,256.79,10.79Z"/><path class="cls-8" d="M267,9.72a3.8,3.8,0,0,1-3.6,3.61,3.14,3.14,0,0,1-3.58-2.85,3.78,3.78,0,0,1,3.4-3.67A3.14,3.14,0,0,1,267,9.72Z"/><path class="cls-8" d="M257.31,20.89a2.8,2.8,0,0,1-2.9,2.86,3,3,0,0,1-3.1-2.69,2.79,2.79,0,0,1,2.75-2.92A3,3,0,0,1,257.31,20.89Z"/><path class="cls-8" d="M267.11,20.62a3.5,3.5,0,0,1-6.92.19A3.49,3.49,0,0,1,267.11,20.62Z"/><path class="cls-8" d="M257.79,30.27A2.45,2.45,0,0,1,255,32.73,3.17,3.17,0,0,1,252,30a2.43,2.43,0,0,1,2.68-2.52A3.16,3.16,0,0,1,257.79,30.27Z"/><path class="cls-8" d="M267.26,30.69c0,1.57-1.5,2.73-3.34,2.61a3.39,3.39,0,0,1-3.33-2.91c-0.06-1.52,1.34-2.73,3.18-2.68A3.39,3.39,0,0,1,267.26,30.69Z"/><path class="cls-8" d="M282.49,8.07c-0.08,2.05-2.19,3.87-4.63,4.07s-4.21-1.2-4.19-3.13,1.95-3.82,4.37-4.13S282.58,6,282.49,8.07Z"/><path class="cls-8" d="M297.35,6.5c-0.21,2.26-2.82,4.27-5.73,4.51s-4.93-1.28-4.81-3.39,2.5-4.21,5.4-4.59S297.56,4.2,297.35,6.5Z"/><path class="cls-8" d="M282,20.21c-0.08,1.88-2.08,3.4-4.42,3.41s-4-1.4-4-3.18,1.86-3.37,4.18-3.49S282.07,18.3,282,20.21Z"/><path class="cls-8" d="M296.1,19.82c-0.19,2.05-2.66,3.71-5.42,3.73S286,22,286.1,20.09s2.37-3.68,5.12-3.82S296.29,17.73,296.1,19.82Z"/><path class="cls-8" d="M281.54,31.33c-0.07,1.73-2,3-4.22,2.85s-3.87-1.57-3.85-3.21,1.78-3,4-2.93S281.61,29.58,281.54,31.33Z"/><path class="cls-8" d="M295,31.93c-0.18,1.87-2.51,3.23-5.14,3.06s-4.47-1.71-4.37-3.48,2.25-3.22,4.86-3.16S295.14,30,295,31.93Z"/><polygon class="cls-15" points="267.22 9.74 218.34 75.94 206.59 75.94 259.95 10.82 267.22 9.74"/><polygon class="cls-16" points="282.51 7.73 223.9 58.86 212.15 58.86 273.86 8.73 282.51 7.73"/><polygon class="cls-17" points="282.28 20.48 223.67 71.61 211.92 71.61 273.63 21.48 282.28 20.48"/><polygon class="cls-18" points="295.03 31.14 236.41 82.27 224.67 82.27 286.38 32.14 295.03 31.14"/><ellipse id="light4-2" data-name="light4" class="cls-19" cx="66.72" cy="72.39" rx="48.27" ry="49.37"/><rect class="cls-20" width="300.47" height="193.78"/></g></g></svg>