<svg xmlns="http://www.w3.org/2000/svg" xmlns:xlink="http://www.w3.org/1999/xlink" viewBox="0 0 1920.86 1364"><defs><style>.cls-1{isolation:isolate;}.cls-2{fill:#0b183e;}.cls-19,.cls-3,.cls-4,.cls-5{opacity:0.3;}.cls-3{fill:url(#radial-gradient);}.cls-4{fill:url(#radial-gradient-2);}.cls-5{fill:url(#radial-gradient-3);}.cls-6{fill:#54a045;}.cls-7{fill:#4c9342;}.cls-8{fill:#fff;}.cls-10,.cls-11,.cls-12,.cls-13,.cls-14,.cls-15,.cls-16,.cls-17,.cls-18,.cls-9{opacity:0.2;}.cls-9{fill:url(#linear-gradient);}.cls-10{fill:url(#linear-gradient-2);}.cls-11{fill:url(#linear-gradient-3);}.cls-12{fill:url(#linear-gradient-4);}.cls-13{fill:url(#linear-gradient-5);}.cls-14{fill:url(#linear-gradient-6);}.cls-15{fill:url(#linear-gradient-7);}.cls-16{fill:url(#linear-gradient-8);}.cls-17{fill:url(#linear-gradient-9);}.cls-18{fill:url(#linear-gradient-10);}.cls-19{fill:url(#radial-gradient-4);}.cls-20{fill:#424143;opacity:0.8;mix-blend-mode:multiply;}</style><radialGradient id="radial-gradient" cx="1490.96" cy="707.91" r="62.22" gradientTransform="translate(-6225.29 -3137.55) scale(5.14 5.14)" gradientUnits="userSpaceOnUse"><stop offset="0.05" stop-color="#77d0ee" stop-opacity="0.5"/><stop offset="0.2" stop-color="#6dbfde" stop-opacity="0.45"/><stop offset="0.46" stop-color="#5291b2" stop-opacity="0.33"/><stop offset="0.8" stop-color="#27476b" stop-opacity="0.13"/><stop offset="1" stop-color="#0b183e" stop-opacity="0"/></radialGradient><radialGradient id="radial-gradient-2" cx="1283.71" cy="699.81" r="60.76" xlink:href="#radial-gradient"/><radialGradient id="radial-gradient-3" cx="1511.32" cy="695.36" r="62.22" xlink:href="#radial-gradient"/><linearGradient id="linear-gradient" x1="136.45" y1="305.69" x2="586.25" y2="305.69" gradientUnits="userSpaceOnUse"><stop offset="0.06" stop-color="#fff"/><stop offset="0.2" stop-color="#fff" stop-opacity="0.77"/><stop offset="0.36" stop-color="#fff" stop-opacity="0.54"/><stop offset="0.51" stop-color="#fff" stop-opacity="0.35"/><stop offset="0.66" stop-color="#fff" stop-opacity="0.2"/><stop offset="0.79" stop-color="#fff" stop-opacity="0.09"/><stop offset="0.91" stop-color="#fff" stop-opacity="0.02"/><stop offset="1" stop-color="#fff" stop-opacity="0"/></linearGradient><linearGradient id="linear-gradient-2" x1="40.13" y1="264.45" x2="427.7" y2="264.45" xlink:href="#linear-gradient"/><linearGradient id="linear-gradient-3" x1="232.76" y1="285.2" x2="620.33" y2="285.2" xlink:href="#linear-gradient"/><linearGradient id="linear-gradient-4" x1="134.97" y1="224.2" x2="584.77" y2="224.2" xlink:href="#linear-gradient"/><linearGradient id="linear-gradient-5" x1="54.96" y1="373.85" x2="504.76" y2="373.85" xlink:href="#linear-gradient"/><linearGradient id="linear-gradient-6" x1="-1191.52" y1="261.45" x2="-803.95" y2="261.45" gradientTransform="matrix(-1, 0, 0, 1, 702.39, 0)" xlink:href="#linear-gradient"/><linearGradient id="linear-gradient-7" x1="-998.9" y1="282.2" x2="-611.33" y2="282.2" gradientTransform="matrix(-1, 0, 0, 1, 702.39, 0)" xlink:href="#linear-gradient"/><linearGradient id="linear-gradient-8" x1="-1096.69" y1="221.2" x2="-646.89" y2="221.2" gradientTransform="matrix(-1, 0, 0, 1, 702.39, 0)" xlink:href="#linear-gradient"/><linearGradient id="linear-gradient-9" x1="-1095.21" y1="302.69" x2="-645.41" y2="302.69" gradientTransform="matrix(-1, 0, 0, 1, 702.39, 0)" xlink:href="#linear-gradient"/><linearGradient id="linear-gradient-10" x1="-1176.7" y1="370.85" x2="-726.9" y2="370.85" gradientTransform="matrix(-1, 0, 0, 1, 702.39, 0)" xlink:href="#linear-gradient"/><radialGradient id="radial-gradient-4" cx="1294.95" cy="702.13" r="60.76" xlink:href="#radial-gradient"/></defs><title>desktop-ftbll-pitch</title><g class="cls-1"><g id="Layer_1" data-name="Layer 1"><rect id="blue-bg" class="cls-2" width="1919.51" height="802.72"/><ellipse id="light2" class="cls-3" cx="1433.41" cy="498.79" rx="316.02" ry="323.2"/><ellipse id="light4" class="cls-4" cx="368.79" cy="457.18" rx="308.58" ry="315.59"/><ellipse id="light2-2" data-name="light2" class="cls-5" cx="1537.98" cy="434.36" rx="316.02" ry="323.2"/><polygon class="cls-6" points="1920.86 1364 0 1364 0 802.72 1919.51 802.72 1920.86 1364"/><polygon class="cls-7" points="293.83 1179.19 152.62 1179.19 378.13 836.97 475.63 834.7 293.83 1179.19"/><polygon class="cls-7" points="558.21 1174.93 437.61 1174.93 578.9 834.7 666.91 834.7 558.21 1174.93"/><polygon class="cls-7" points="820.34 1174.93 698.86 1179.19 770.19 834.7 858.2 834.7 820.34 1174.93"/><polygon class="cls-7" points="1082.4 1179.19 964.98 1174.93 964.06 834.7 1049 834.7 1082.4 1179.19"/><polygon class="cls-7" points="1344.6 1174.93 1224 1174.93 1153.24 836.97 1236.39 836.97 1344.6 1174.93"/><polygon class="cls-7" points="1606.89 1174.93 1491.14 1179.19 1347.28 834.7 1432.22 834.7 1606.89 1174.93"/><polygon class="cls-7" points="1768.25 1179.19 1750.93 1179.19 1535.35 834.7 1547.94 834.7 1768.25 1179.19"/><path class="cls-8" d="M1698.3,1002.55L1668,957.89h-39.8l-63.05-98.59,1,0-2.49-2.33-14.21-22.22h-1175l-15.66,24.49-0.07.06h0l-63.08,98.64H258l-30.18,44.66H267.1l-84.56,132.22h0l0,0.1-28.34,44.31H957.38v2.14h9.14v-2.14h803.25l-25.9-40.5-1.21-3.92-1.34-.08-84.51-132.15h41.51Zm-67.12-41.74h31.28l25.87,38.59H1655.9Zm-19.83-14.41h-85.13l37.76,68.94h90.82l31.43,49.87H1462l-69.23-159.08H1586Zm1.8,2.85,39.62,62.86h-82.64l-34.88-62.86h77.9ZM1557,857.08c-10.81.13-32.82-.3-51.2-5-13.46-3.43-22.52-8.53-27-15.13h65.5ZM958,1015.33c-68.51-.86-121-23.37-117.93-49.7,2.91-25.07,55.59-44.68,118.27-45.4Zm7.6-95.09c62.68,0.72,115.36,20.33,118.27,45.4,3.06,26.33-49.42,48.84-117.93,49.7ZM446.09,837c-4.48,6.59-13.52,11.69-27,15.12-18.9,4.83-41.75,5.14-52.2,5L379.64,837h66.45Zm-170,165.58,28.19-44.66,5.45-8.64h77.9l-34.94,62.86H270ZM268,1015.34h90.82l37.82-68.94H311.51l25.42-40.27H530.11L460.72,1065.2H236.51Zm-30.2-15.94,25.79-38.59h30.21l-24.68,38.59H237.79Zm-48.77,139c13.85-.27,42.9.24,59.1,8.49,12,6.12,15,15.49,8.72,28H166Zm76.91,36.49c6.84-13.79,3.35-24.18-10.24-31.07-17.95-9.09-48.83-9.74-64.13-9.43l41.52-65.67H467.5l19.66-45.85,1.46-.55c32-12,52.76-27.16,58.78-42.61,5.85-15-2.72-29-23.67-39.45l-0.93-.47,15.58-36.33H337.57l27.85-44c1.3,0,2.75,0,4.35,0,12.67,0,34.05-.84,52.72-5.61,15.26-3.9,25.42-9.61,30.27-16.91H958.62l-0.29,80.57c-66.51.71-122.58,21.48-125.86,48.1-3.46,28,52.4,52.08,125.5,52.95l-0.56,156.34H265.93ZM492,1016.85l30.65-71.79c16,9.59,22.18,21.73,17,34.69C534.45,993,517.75,1006.08,492,1016.85Zm1176.31,158.07c-6.26-12.5-3.31-21.87,8.66-28,15.66-8,43.54-8.73,57.85-8.52l23.08,36.5h-89.59Zm1.12-31.07c-13.58,6.89-17.07,17.28-10.21,31.07H966.49l-0.57-156.34c73.1-.86,129-24.91,125.5-52.95-3.28-26.62-59.36-47.38-125.86-48.1L965.27,837h506.81c4.86,7.3,15,13,30.29,16.91,18.67,4.77,40.06,5.61,52.73,5.61l3.38,0,27.84,44h-201.8l15.54,36.32-0.93.47c-21,10.48-29.55,24.44-23.71,39.45,6,15.45,26.72,30.64,58.74,42.61l1.46,0.55,19.62,45.85H1690.8l41.51,65.65C1716.64,1134.16,1686.93,1135,1669.47,1143.86ZM1400.18,945.06l30.57,71.79c-25.7-10.77-42.39-23.83-47.65-37.11C1378,966.8,1384.14,954.66,1400.18,945.06Z" transform="translate(-1.51)"/><polygon class="cls-9" points="136.45 142.26 511.17 469.13 586.25 469.13 191.77 148.63 136.45 142.26"/><polygon class="cls-10" points="40.13 52.86 352.63 476.04 427.7 476.04 107.5 59.99 40.13 52.86"/><polygon class="cls-11" points="232.75 73.61 545.25 496.79 620.33 496.79 279.19 80.47 232.75 73.61"/><polygon class="cls-12" points="134.97 60.77 509.69 387.63 584.77 387.63 190.29 67.14 134.97 60.77"/><polygon class="cls-13" points="54.96 210.42 429.68 537.29 504.76 537.29 110.28 216.79 54.96 210.42"/><polygon class="cls-14" points="1893.91 49.86 1581.42 473.04 1506.34 473.04 1826.54 56.99 1893.91 49.86"/><polygon class="cls-15" points="1701.29 70.61 1388.8 493.79 1313.72 493.79 1654.85 77.47 1701.29 70.61"/><polygon class="cls-16" points="1799.08 57.76 1424.35 384.63 1349.27 384.63 1743.75 64.14 1799.08 57.76"/><polygon class="cls-17" points="1797.59 139.26 1422.87 466.13 1347.79 466.13 1742.27 145.63 1797.59 139.26"/><path class="cls-8" d="M300.94,80.31c-0.56,10.86,8.12,20.32,19.09,21.22,10.68,0.88,19.75-6.71,20.51-17S333.33,64.39,322.45,63C311.27,61.51,301.51,69.32,300.94,80.31Z" transform="translate(-1.51)"/><path class="cls-8" d="M235.94,73.43c-0.17,11.76,10.28,22,23,23.09,12.35,1,22.47-7.1,22.92-18.22s-9.14-21.8-21.76-23.45C247.08,53.15,236.11,61.52,235.94,73.43Z" transform="translate(-1.51)"/><path class="cls-8" d="M297.64,144.85c-0.52,10.09,7.9,18.22,18.53,18.28,10.36,0.06,19.14-7.61,19.85-17.23s-7-18.11-17.6-18.64C307.58,126.73,298.16,134.64,297.64,144.85Z" transform="translate(-1.51)"/><path class="cls-8" d="M234.93,143.12c-0.16,10.86,9.91,19.61,22.16,19.68,11.92,0.07,21.67-8.15,22.09-18.46s-8.85-19.48-21-20.09C245.64,123.63,235.09,132.12,234.93,143.12Z" transform="translate(-1.51)"/><path class="cls-8" d="M294.56,204.84c-0.48,9.39,7.69,16.37,18,15.7,10.06-.65,18.56-8.38,19.22-17.36s-6.89-16.32-17.13-16.08C304.16,187.35,295,195.34,294.56,204.84Z" transform="translate(-1.51)"/><path class="cls-8" d="M234,207.54c-0.15,10.05,9.56,17.48,21.38,16.71,11.51-.75,20.93-9,21.32-18.61s-8.58-17.43-20.33-17.14C244.3,188.78,234.15,197.36,234,207.54Z" transform="translate(-1.51)"/><path class="cls-8" d="M136.6,62.92c0.54,13.14,14,24.71,29.6,26,15.11,1.24,26.92-7.67,26.8-20-0.12-12.52-12.44-24.4-28-26.42C149,40.37,136.05,49.58,136.6,62.92Z" transform="translate(-1.51)"/><path class="cls-8" d="M41.65,52.86c1.36,14.47,18,27.3,36.64,28.83,18,1.48,31.49-8.18,30.73-21.7-0.78-13.73-16-26.91-34.54-29.33C55.25,28.16,40.27,38.16,41.65,52.86Z" transform="translate(-1.51)"/><path class="cls-8" d="M139.8,140.49c0.5,12,13.33,21.72,28.24,21.8,14.46,0.08,25.78-9,25.67-20.32-0.11-11.51-11.9-21.55-26.74-22.29C151.66,118.92,139.3,128.3,139.8,140.49Z" transform="translate(-1.51)"/><path class="cls-8" d="M49.64,138c1.23,13.13,17,23.72,34.63,23.82,17.08,0.1,30-9.71,29.26-22.05-0.71-12.53-15.13-23.51-32.73-24.39C62.59,114.46,48.39,124.67,49.64,138Z" transform="translate(-1.51)"/><path class="cls-8" d="M142.73,211.62c0.46,11,12.71,19.12,27,18.19,13.87-.9,24.74-10,24.63-20.5s-11.4-19.07-25.62-18.73C154.1,190.93,142.27,200.42,142.73,211.62Z" transform="translate(-1.51)"/><path id="bottom_light" data-name="bottom light" class="cls-8" d="M56.9,215.45c1.12,12,16,20.65,32.83,19.56,16.26-1.06,28.57-10.95,27.93-22.27-0.65-11.48-14.36-20.59-31.09-20.19C69.27,193,55.76,203.29,56.9,215.45Z" transform="translate(-1.51)"/><polygon id="light_beam" data-name="light beam" class="cls-18" points="1879.09 207.42 1504.36 534.29 1429.29 534.29 1823.76 213.79 1879.09 207.42"/><ellipse id="light4-2" data-name="light4" class="cls-19" cx="426.54" cy="469.13" rx="308.58" ry="315.59"/><path class="cls-8" d="M1636.13,77.31c0.56,10.86-8.12,20.32-19.09,21.22-10.68.88-19.75-6.71-20.51-17s7.21-20.12,18.09-21.54C1625.8,58.51,1635.57,66.32,1636.13,77.31Z" transform="translate(-1.51)"/><path class="cls-8" d="M1701.13,70.43c0.17,11.76-10.28,22-23,23.09-12.35,1-22.47-7.1-22.92-18.22s9.14-21.8,21.76-23.45C1690,50.15,1701,58.52,1701.13,70.43Z" transform="translate(-1.51)"/><path class="cls-8" d="M1639.44,141.85c0.52,10.09-7.9,18.22-18.53,18.28-10.36.06-19.14-7.61-19.85-17.23s7-18.11,17.6-18.64C1629.49,123.72,1638.91,131.64,1639.44,141.85Z" transform="translate(-1.51)"/><path class="cls-8" d="M1702.14,140.12c0.16,10.86-9.91,19.61-22.16,19.68-11.92.07-21.67-8.15-22.09-18.46s8.85-19.48,21-20.09C1691.43,120.62,1702,129.12,1702.14,140.12Z" transform="translate(-1.51)"/><path class="cls-8" d="M1642.51,201.84c0.48,9.39-7.69,16.37-18,15.7-10.06-.65-18.56-8.38-19.22-17.36s6.89-16.32,17.13-16.08C1632.91,184.35,1642,192.34,1642.51,201.84Z" transform="translate(-1.51)"/><path class="cls-8" d="M1703.07,204.54c0.15,10.05-9.56,17.48-21.38,16.71-11.51-.75-20.93-9-21.32-18.61s8.58-17.43,20.33-17.14C1692.77,185.78,1702.93,194.36,1703.07,204.54Z" transform="translate(-1.51)"/><path class="cls-8" d="M1800.47,59.91c-0.54,13.14-14,24.71-29.6,26-15.11,1.24-26.92-7.67-26.8-20,0.12-12.52,12.44-24.4,28-26.42C1788.07,37.37,1801,46.58,1800.47,59.91Z" transform="translate(-1.51)"/><path class="cls-8" d="M1895.42,49.86c-1.36,14.47-18,27.3-36.64,28.83-18,1.48-31.49-8.18-30.73-21.7,0.78-13.73,16-26.91,34.54-29.33C1881.82,25.16,1896.8,35.16,1895.42,49.86Z" transform="translate(-1.51)"/><path class="cls-8" d="M1797.27,137.49c-0.5,12-13.33,21.72-28.24,21.8-14.46.08-25.78-9-25.67-20.32,0.11-11.51,11.9-21.55,26.74-22.29C1785.41,115.92,1797.77,125.3,1797.27,137.49Z" transform="translate(-1.51)"/><path class="cls-8" d="M1887.43,135c-1.23,13.13-17,23.72-34.63,23.82-17.08.1-30-9.71-29.26-22.05,0.71-12.53,15.13-23.51,32.73-24.39C1874.48,111.46,1888.69,121.67,1887.43,135Z" transform="translate(-1.51)"/><path class="cls-8" d="M1794.34,208.62c-0.46,11-12.71,19.12-27,18.19-13.87-.9-24.74-10-24.63-20.5s11.4-19.07,25.62-18.73C1783,187.93,1794.8,197.42,1794.34,208.62Z" transform="translate(-1.51)"/><path class="cls-8" d="M1880.17,212.45c-1.12,12-16,20.65-32.83,19.56-16.26-1.06-28.57-10.95-27.93-22.27,0.65-11.48,14.36-20.59,31.09-20.19C1867.8,190,1881.31,200.29,1880.17,212.45Z" transform="translate(-1.51)"/><rect class="cls-20" width="1920.86" height="1364"/></g></g></svg>