<svg id="football" xmlns="http://www.w3.org/2000/svg" viewBox="0 0 175.78 175.78">
	<defs>
		<style>.cls-1{fill:#231f20;}.cls-2{fill:#fff;}</style>
	</defs>
	<title>Free Netball Vector 01</title>
	<g id="_Group_" data-name="&lt;Group&gt;">
		<g id="_Group_2" data-name="&lt;Group&gt;">
			<g id="_Group_3" data-name="&lt;Group&gt;">
				<g id="_Group_4" data-name="&lt;Group&gt;">
					<path id="_Path_" data-name="&lt;Path&gt;" class="cls-1" d="M68.29,82.22l1.87-.74L71,81.15l2.19-.83,0.49-.18q5.32-2,10.8-3.74L85.65,76l1.78-.56L88.81,75c0.28-.63.57-1.26,0.85-1.89L90.16,72c2.3-5,4.75-10,7.3-14.74l0.26-.48A83.19,83.19,0,0,0,65.78,83.23l1.37-.56Z" transform="translate(-45.01 -44.13)"/>
				</g>
					<g id="_Group_5" data-name="&lt;Group&gt;">
						<path id="_Path_2" data-name="&lt;Path&gt;" class="cls-2" d="M53.9,111.88l2.08-.94c0.11-.5.24-1,0.35-1.51s0.28-1.22.43-1.83,0.27-1,.4-1.57,0.3-1.19.45-1.79,0.34-1.27.52-1.9,0.26-1,.4-1.47q0.95-3.38,2-6.76l0.3-.93c0.26-.82.53-1.64,0.81-2.46,0.15-.46.32-0.92,0.48-1.37l0.53-1.54a82.41,82.41,0,0,0-10.38,24.8l1.39-.64Z" transform="translate(-45.01 -44.13)"/></g><g id="_Group_6" data-name="&lt;Group&gt;">
						<path id="_Path_3" data-name="&lt;Path&gt;" class="cls-1" d="M132.89,50.86l2,1.83,0.26,0.24q4.47,4.22,9.15,8.79l1,1L146.57,64l1.68-.11,1.89-.13,1.76-.09,1.78-.09q3.53-.15,7-0.18h3.41l0.84,0,2.52,0,1,0,2.32,0.09,1.16,0.06L174,63.77l0.07-.17,0.74-1.8,0.47-1.12A82.84,82.84,0,0,0,130.94,49l1,0.91Z" transform="translate(-45.01 -44.13)"/>
					</g>
					<g id="_Group_7" data-name="&lt;Group&gt;">
						<path id="_Path_4" data-name="&lt;Path&gt;" class="cls-2" d="M97.05,58.45q-1,2-2,3.95l-0.39.77L93.73,65l-0.57,1.16-0.77,1.6-0.66,1.38-0.65,1.4L90.33,72.1l-0.56,1.25L89,75.1l16.82,19,2-.5,1.71-.43,1.74-.42,2-.49,1.24-.28,2.54-.58h0.06q5.12-1.14,10.25-2.13l1-.2,2.3-.43,1.48-.28,2.14-.38,1.61-.28,0.44-1,0.86-2.07L138,82.65l0.5-1.18,1-2.25,0.9-2.07,0.75-1.71,0.69-1.53,0.63-1.4,0.76-1.66,0.55-1.2,0.71-1.52,0.61-1.3,0.54-1.13,0.76-1.58-1-1-1.35-1.33-0.82-.8-1.5-1.46L141.2,59c-3.6-3.49-7.12-6.82-10.53-10A82.57,82.57,0,0,0,98,56.67l-0.38.7Z" transform="translate(-45.01 -44.13)"/>
					</g>
					<g id="_Group_8" data-name="&lt;Group&gt;">
						<path id="_Path_5" data-name="&lt;Path&gt;" class="cls-2" d="M62.19,89.79l-0.34,1Q61.3,92.38,60.79,94l-0.05.16q-1.62,5.07-2.95,10.14l-0.2.81c-0.22.85-.44,1.7-0.65,2.55-0.12.5-.23,1-0.35,1.49s-0.29,1.23-.43,1.85c2.74,3.83,5.68,7.83,8.76,11.93l0.22,0.3,1,1.28,1,1.28,0.64,0.84L69,128.35l0.86,1.12L71,130.92l2-.68,0.83-.28,2-.64,1-.32,1.78-.57,1.23-.39,1.25-.39q5.47-1.7,11.28-3.36l0.06,0,2.4-.67,0.87-.24c0.2-.69.42-1.38,0.63-2.06l0.48-1.58c1.51-4.9,3.14-9.8,4.86-14.66l0.08-.22q0.61-1.71,1.23-3.42l0.42-1.12c0.31-.83.61-1.67,0.93-2.5l0.62-1.62,0.75-2-16.82-19-1.75.54-1.4.44-1.55.5-1.6.52-1.63.55-1.5.51L77,79.14l-0.65.23Q71.69,81,67.19,82.84l-0.93.38-0.69.28q-1.27,1.77-2.44,3.59L63,87.4C62.73,88.2,62.46,89,62.19,89.79Z" transform="translate(-45.01 -44.13)"/>
					</g>
					<g id="_Group_9" data-name="&lt;Group&gt;">
						<path id="_Path_6" data-name="&lt;Path&gt;" class="cls-2" d="M174.69,62.45l-0.58,1.39,0.95,1,1.34,1.35,1.32,1.34,1,1c4.65,4.74,9.37,9.66,14.08,14.69l2,0.08,0.86,0,2.79,0.16,0.4,0,1.27,0.09a83.73,83.73,0,0,0-5.33-6.68,82.71,82.71,0,0,0-19.38-16.12l-0.46,1.11Z" transform="translate(-45.01 -44.13)"/>
					</g>
					<g id="_Group_10" data-name="&lt;Group&gt;">
						<path id="_Path_7" data-name="&lt;Path&gt;" class="cls-2" d="M190.3,80.79L190,80.49c-5.4-5.71-10.78-11.26-16-16.53l-1.43-.08-1.81-.1-0.9,0q-5.58-.23-11.45-0.11l-1.17,0-1.56.05-1.94.07-1.43.07-2.11.11-1.66.11-1.9.13-1,2.1-0.29.61-1.11,2.37-0.2.44q-2,4.26-4,8.79l-0.42,1-0.89,2.06L138.09,83l-0.68,1.61-0.66,1.57-0.64,1.54,0.47,0.5,2,2.15L140,91.93l1.07,1.15,2,2.14,0.55,0.59,1.3,1.4q4.35,4.68,8.77,9.5L154,107l1.25,1.37,1.35,1.48,2.67-.44,1.16-.19,2-.31,1.87-.3,0.82-.12c4.68-.72,9.28-1.36,13.77-1.93l0.31,0,2.47-.3,1.15-.14,2.16-.25,1.38-.16,0.54-1.85,0.34-1.15,0.76-2.61,0.11-.37q0.85-2.95,1.65-5.76,1.12-4,2.13-7.68l0.11-.42,0.43-1.59,0.26-1-1.06-1.12Z" transform="translate(-45.01 -44.13)"/>
					</g>
					<g id="_Group_11" data-name="&lt;Group&gt;"><path id="_Path_8" data-name="&lt;Path&gt;" class="cls-1" d="M146.16,139.79q1.12-3.32,2.24-6.63l0.32-.95L150,128.6q1.63-4.75,3.26-9.41l0.67-1.93,0.9-2.53c0.56-1.59,1.12-3.19,1.68-4.76l-5.2-5.68-0.54-.59-5.67-6.13-1.52-1.64-1.07-1.15L141,93.2l-0.6-.64-1.94-2.07-0.1-.11L136,87.86l-2.49.44-1.25.22-3.58.67-0.19,0c-5,1-10.11,2-15.14,3.22l-0.71.17-3,.73-2.27.57-1.45.36-0.45,1.16c-0.31.81-.62,1.62-0.93,2.43L104,99c-0.31.82-.62,1.65-0.92,2.48l-0.06.17q-2.58,7.05-4.87,14.19l-0.08.23c-0.28.88-.56,1.77-0.84,2.66l-0.32,1c-0.2.64-.39,1.28-0.58,1.92s-0.35,1.16-.53,1.74l2.24,2.69,0.07,0.08,1.85,2.21,0.53,0.63,3.54,4.2q5.5,6.52,11.25,13.2C125.29,144.19,135.67,142,146.16,139.79Z" transform="translate(-45.01 -44.13)"/></g><g id="_Group_12" data-name="&lt;Group&gt;">
					<path id="_Path_9" data-name="&lt;Path&gt;" class="cls-2" d="M87.06,178.75l2.44-.36,0.24,0L92,178l0.51-.08,2.18-.34,6-.94,0.59-.1,2.53-.41,0.53-.09,2.23-.37,0.88-.15,0.35-1.45c0.16-.67.32-1.34,0.48-2s0.34-1.38.51-2.08l0.36-1.45q0.4-1.59.82-3.2l0.1-.38c1.24-4.81,2.59-9.73,4-14.72v0q0.53-1.84,1.08-3.69l-4.35-5.08-0.66-.78-1.66-1.95-0.82-1-4.29-5.06-2.23-2.64-0.78-.92-1.07-1.28L98,126.31l-1.62-1.94-0.7-.84-2.09.59-1.15.32-2.94.85-0.29.08q-4.81,1.4-9.38,2.84l-0.19.06-2.81.9-0.79.26-2.16.71-0.93.31-1.92.64c-0.12.62-.23,1.23-0.35,1.85s-0.21,1.11-.31,1.66-0.22,1.24-.32,1.86-0.19,1.09-.28,1.64-0.18,1.14-.27,1.71-0.19,1.18-.27,1.76-0.13.93-.19,1.4q-0.5,3.59-.86,7.09c-0.06.55-.12,1.11-0.17,1.66s-0.09,1-.13,1.57-0.1,1.16-.15,1.73-0.07,1.1-.11,1.66-0.07,1.06-.1,1.58c3.85,4.9,7.88,9.9,12,14.94l0.55,0.66,1.15,1.39,1,1.26,1.05,1.26,1.14,1.36,1.12-.16Z" transform="translate(-45.01 -44.13)"/>
				</g>
					<g id="_Group_13" data-name="&lt;Group&gt;"><path id="_Path_10" data-name="&lt;Path&gt;" class="cls-1" d="M198.43,83.63l-1.17-.07-1.62-.09-1.32-.05-1.51-.06-0.58,2.14-0.09.35q-0.7,2.58-1.46,5.32v0l-0.75,2.67,0,0.11-0.38,1.34q-1.42,5-3,10.42l1.59,1.76,0.95,1,0.73,0.81c2.31,2.56,4.62,5.15,6.91,7.73s4.48,5.08,6.7,7.63l0.78,0.89,0.73,0.85,1.71,2,1.72-.28,1.39-.23,1.48-.24,1.59-.26,2.65-.42a82.35,82.35,0,0,0-15.2-43.24h0Z" transform="translate(-45.01 -44.13)"/>
				</g>
					<g id="_Group_14" data-name="&lt;Group&gt;"><path id="_Path_11" data-name="&lt;Path&gt;" class="cls-2" d="M204,125.74c-2.48-2.85-5-5.7-7.48-8.53s-5.09-5.72-7.64-8.55L187,106.58l-0.65-.72-2.54.29-1,.11-2.83.34-0.79.1c-6.07.76-12.35,1.67-18.75,2.7l-1,.17-2.81.46c-0.74,2.07-1.47,4.16-2.21,6.26l-0.36,1q-1.13,3.22-2.26,6.49-0.95,2.73-1.89,5.5l-1,3-1,3-1.53,4.53,21.56,24.34c7.87-1.62,15.69-3.28,23.31-5l7.54-1.67,0.13-.43q0.49-1.66,1-3.31l0.11-.39q0.48-1.67.95-3.32l0.23-.81c0.27-1,.54-1.92.8-2.88l0-.17q0.57-2.1,1.12-4.17,0.39-1.47.77-2.94l0.28-1.1c0.21-.83.43-1.66,0.63-2.49l0.26-1.07c0.21-.82.41-1.65,0.61-2.47l0.29-1.21c0.18-.75.36-1.51,0.54-2.25l-1.13-1.31Z" transform="translate(-45.01 -44.13)"/>
				</g>
				<g id="_Group_15" data-name="&lt;Group&gt;"><path id="_Path_12" data-name="&lt;Path&gt;" class="cls-2" d="M142,140.85c-8.09,1.69-16.09,3.41-23.87,5.15l-2.75.61c-0.24.8-.47,1.6-0.7,2.4l-0.39,1.32c-0.26.88-.5,1.76-0.75,2.64L113.21,154q-0.46,1.63-.9,3.24l-0.12.45q-1,3.68-1.94,7.29l-0.06.25q-0.43,1.67-.85,3.33l-0.26,1c-0.21.84-.42,1.67-0.62,2.5l-0.27,1.13c-0.19.78-.38,1.56-0.56,2.33l0.57,0.66,1.91,2.2,0.57,0.66c2.32,2.66,4.65,5.33,7,8,3.19,3.61,6.44,7.23,9.66,10.78l0.4,0.44,2.19-.25,1.35-.15,2.23-.27,1.39-.17,2.14-.28,1.52-.2,1.19-.16,4.54-.64,1.72-.25,1.89-.29,1.89-.29,2.44-.39,1.38-.22,3.07-.51,0.77-.13q1.28-3.61,2.57-7.29c2.58-7.36,5.17-14.91,7.73-22.53L146.2,140Z" transform="translate(-45.01 -44.13)"/>
			</g>
			<g id="_Group_16" data-name="&lt;Group&gt;"><path id="_Path_13" data-name="&lt;Path&gt;" class="cls-2" d="M212.82,127.6l-1.23.2-1.84.3-0.79.13-2.3.38-0.41,1.72c-0.14.58-.27,1.16-0.42,1.74s-0.34,1.39-.51,2.08L205,135.61c-0.21.84-.43,1.69-0.65,2.54l-0.26,1q-0.44,1.68-.89,3.39l-0.06.23q-1.46,5.47-3.08,11.08l-0.18.6q-0.45,1.55-.91,3.12l1,1.12q3.83,4.46,7.56,8.86a83,83,0,0,0,8-40.41l-0.42.07Z" transform="translate(-45.01 -44.13)"/></g><g id="_Group_17" data-name="&lt;Group&gt;"><path id="_Path_14" data-name="&lt;Path&gt;" class="cls-1" d="M198.79,157.74c-10,2.24-20.36,4.47-30.85,6.64q-1,2.94-2,5.86L165.37,172q-1.23,3.6-2.46,7.16l-0.2.58q-1.26,3.64-2.52,7.24l-0.05.15q-1.26,3.59-2.51,7.11,5.63,6.16,11.16,12.12a83.11,83.11,0,0,0,38.57-38.55q-3-3.54-6.07-7.13Z" transform="translate(-45.01 -44.13)"/></g><g id="_Group_18" data-name="&lt;Group&gt;"><path id="_Path_15" data-name="&lt;Path&gt;" class="cls-2" d="M160.1,197.17l-1.31-1.43-1.3-1.43q-3.8.64-7.54,1.22l-0.1,0q-3.81.59-7.55,1.12l-0.82.11-2.88.4-1.74.22-1.92.25-2,.25-1.59.19-1.92.22-1.62.18-0.53,1.82-0.35,1.19-0.35,1.2q-1.71,5.89-3.2,11.27a82.76,82.76,0,0,0,45.27-7.57q-4.11-4.43-8.29-9Z" transform="translate(-45.01 -44.13)"/></g><g id="_Group_19" data-name="&lt;Group&gt;"><path id="_Path_16" data-name="&lt;Path&gt;" class="cls-1" d="M56.33,161.38c2.64-.81,5.6-1.67,8.87-2.59l0.07,0,1.91-.53,0.16,0c0-.6.08-1.22,0.12-1.83s0.06-.92.09-1.39,0.1-1.21.15-1.82,0.08-1,.13-1.49,0.12-1.18.18-1.77,0.1-1,.16-1.58,0.13-1.07.19-1.6,0.14-1.19.22-1.79,0.13-.94.2-1.41q0.28-2.07.61-4.16c0.07-.44.13-0.88,0.21-1.32,0.11-.66.23-1.33,0.35-2,0.09-.5.17-1,0.26-1.51s0.24-1.26.36-1.88,0.2-1.08.31-1.63l-0.5-.65-1.49-1.94-0.19-.25-2-2.56L65,123.35l-0.66-.88-1.22-1.63-0.82-1.11-1-1.38-0.81-1.11-1-1.35-0.88-1.21-0.88-1.2-0.86-1.2L56,111.12l-1.29.58-1,.45-1,.45-0.52.24a83,83,0,0,0,3.36,48.76l0.54-.17Z" transform="translate(-45.01 -44.13)"/></g><g id="_Group_20" data-name="&lt;Group&gt;"><path id="_Path_17" data-name="&lt;Path&gt;" class="cls-2" d="M83.8,198.46c0-.24,0-0.47,0-0.71,0-.46,0-0.93,0-1.4s0-.68,0-1c0-.5,0-1,0-1.52,0-.33,0-0.65,0-1,0-.56,0-1.12,0-1.69,0-.3,0-0.59,0-0.89,0-.67,0-1.35.06-2,0-.21,0-0.41,0-0.62q0.05-1.29.13-2.62v-0.1q0.08-1.38.18-2.79c0-.34.06-0.68,0.08-1,0-.6.09-1.2,0.15-1.81l-1.15-1.38-1-1.25L80.78,175,80,174,79,172.84l-2.79-3.41-0.57-.71-1.79-2.21-0.32-.4-1.19-1.48-0.91-1.13-1-1.26-1.05-1.33-0.94-1.19-1.07-1.36-1.43.4-0.61.17q-4.07,1.14-7.5,2.17l-0.46.14-1.21.37-0.51.16A83.14,83.14,0,0,0,83.8,198.46Z" transform="translate(-45.01 -44.13)"/></g><g id="_Group_21" data-name="&lt;Group&gt;"><path id="_Path_18" data-name="&lt;Path&gt;" class="cls-1" d="M123.65,212.17l0.56-2,0.07-.24q1.06-3.78,2.23-7.8l0.2-.68,0.49-1.69,0.39-1.34c-3.35-3.69-6.73-7.46-10.06-11.21s-6.75-7.67-10-11.48l-0.67.11-2.43.4-2.44.4-0.61.1-2.85.46-0.5.08-2.58.4-0.36.06-2.48.38-1.19.18-1.58.24-1.15.17-1.55.23-0.86.12-1.71.24c0,0.52-.08,1-0.13,1.55s-0.07.85-.1,1.27-0.07,1.07-.11,1.61-0.05.79-.08,1.18c0,0.57-.06,1.14-0.08,1.7,0,0.34,0,.68,0,1,0,0.62,0,1.23-.06,1.85,0,0.27,0,.54,0,0.8,0,0.78,0,1.55,0,2.31,0,0.09,0,.18,0,0.26q0,1.27,0,2.5c0,0.27,0,.52,0,0.79,0,0.55,0,1.1,0,1.64,0,0.28,0,.54,0,0.82A82.51,82.51,0,0,0,123.16,214l0.27-1Z" transform="translate(-45.01 -44.13)"/></g><g id="_Group_22" data-name="&lt;Group&gt;"><path id="_Path_19" data-name="&lt;Path&gt;" class="cls-1" d="M71,81.15l-0.85.32Z" transform="translate(-45.01 -44.13)"/></g><g id="_Group_23" data-name="&lt;Group&gt;"><path id="_Path_20" data-name="&lt;Path&gt;" class="cls-1" d="M68.29,82.22l-1.14.45Z" transform="translate(-45.01 -44.13)"/></g><g id="_Group_24" data-name="&lt;Group&gt;"><path id="_Path_21" data-name="&lt;Path&gt;" class="cls-1" d="M73.7,80.14l-0.49.18Z" transform="translate(-45.01 -44.13)"/></g><g id="_Group_25" data-name="&lt;Group&gt;"><path id="_Path_22" data-name="&lt;Path&gt;" class="cls-1" d="M90.16,72c2.3-5,4.75-10,7.3-14.74C94.91,62.06,92.46,67,90.16,72Z" transform="translate(-45.01 -44.13)"/></g><g id="_Group_26" data-name="&lt;Group&gt;"><path id="_Path_23" data-name="&lt;Path&gt;" class="cls-1" d="M88.81,75l-1.38.43L88.81,75l0.85-1.89C89.37,73.78,89.09,74.41,88.81,75Z" transform="translate(-45.01 -44.13)"/></g><g id="_Group_27" data-name="&lt;Group&gt;"><path id="_Path_24" data-name="&lt;Path&gt;" class="cls-1" d="M85.65,76l-1.15.37Z" transform="translate(-45.01 -44.13)"/></g><g id="_Group_28" data-name="&lt;Group&gt;"><path id="_Path_25" data-name="&lt;Path&gt;" class="cls-1" d="M91.73,69.09l0.66-1.38Z" transform="translate(-45.01 -44.13)"/></g><g id="_Group_29" data-name="&lt;Group&gt;"><path id="_Path_26" data-name="&lt;Path&gt;" class="cls-1" d="M94.62,63.16L95,62.39Z" transform="translate(-45.01 -44.13)"/></g><g id="_Group_30" data-name="&lt;Group&gt;"><path id="_Path_27" data-name="&lt;Path&gt;" class="cls-1" d="M93.16,66.11L93.73,65Z" transform="translate(-45.01 -44.13)"/></g><g id="_Group_31" data-name="&lt;Group&gt;"><path id="_Path_28" data-name="&lt;Path&gt;" class="cls-1" d="M90.33,72.1l0.75-1.61Z" transform="translate(-45.01 -44.13)"/></g><g id="_Group_32" data-name="&lt;Group&gt;"><path id="_Path_29" data-name="&lt;Path&gt;" class="cls-1" d="M97.05,58.45l0.56-1.07Z" transform="translate(-45.01 -44.13)"/></g><g id="_Group_33" data-name="&lt;Group&gt;"><path id="_Path_30" data-name="&lt;Path&gt;" class="cls-1" d="M89,75.1h0l0.79-1.75Z" transform="translate(-45.01 -44.13)"/></g><g id="_Group_34" data-name="&lt;Group&gt;"><path id="_Path_31" data-name="&lt;Path&gt;" class="cls-1" d="M82.54,77.22l-1.63.55Z" transform="translate(-45.01 -44.13)"/></g><g id="_Group_35" data-name="&lt;Group&gt;"><path id="_Path_32" data-name="&lt;Path&gt;" class="cls-1" d="M79.42,78.28L77,79.14Z" transform="translate(-45.01 -44.13)"/></g><g id="_Group_36" data-name="&lt;Group&gt;"><path id="_Path_33" data-name="&lt;Path&gt;" class="cls-1" d="M87.1,75.76l1.75-.54h0Z" transform="translate(-45.01 -44.13)"/></g><g id="_Group_37" data-name="&lt;Group&gt;"><path id="_Path_34" data-name="&lt;Path&gt;" class="cls-1" d="M85.7,76.2l-1.55.5Z" transform="translate(-45.01 -44.13)"/></g><g id="_Group_38" data-name="&lt;Group&gt;"><path id="_Path_35" data-name="&lt;Path&gt;" class="cls-1" d="M76.32,79.37Q71.68,81,67.19,82.84,71.68,81,76.32,79.37Z" transform="translate(-45.01 -44.13)"/></g><g id="_Group_39" data-name="&lt;Group&gt;"><path id="_Path_36" data-name="&lt;Path&gt;" class="cls-1" d="M65.57,83.51h0l0.69-.28Z" transform="translate(-45.01 -44.13)"/></g><g id="_Group_40" data-name="&lt;Group&gt;"><path id="_Path_37" data-name="&lt;Path&gt;" class="cls-1" d="M57.61,104.24c0.17-.63.34-1.27,0.52-1.9C58,103,57.78,103.61,57.61,104.24Z" transform="translate(-45.01 -44.13)"/></g><g id="_Group_41" data-name="&lt;Group&gt;"><path id="_Path_38" data-name="&lt;Path&gt;" class="cls-1" d="M58.53,100.87q0.95-3.38,2-6.76Q59.48,97.49,58.53,100.87Z" transform="translate(-45.01 -44.13)"/></g><g id="_Group_42" data-name="&lt;Group&gt;"><path id="_Path_39" data-name="&lt;Path&gt;" class="cls-1" d="M60.86,93.18c0.26-.82.53-1.64,0.81-2.46C61.39,91.54,61.13,92.36,60.86,93.18Z" transform="translate(-45.01 -44.13)"/></g><g id="_Group_43" data-name="&lt;Group&gt;"><path id="_Path_40" data-name="&lt;Path&gt;" class="cls-1" d="M56,110.94l-2.08.94,2.08-.94c0.11-.5.24-1,0.35-1.51C56.22,109.94,56.1,110.44,56,110.94Z" transform="translate(-45.01 -44.13)"/></g><g id="_Group_44" data-name="&lt;Group&gt;"><path id="_Path_41" data-name="&lt;Path&gt;" class="cls-1" d="M52.3,112.61h0l1.39-.64Z" transform="translate(-45.01 -44.13)"/></g><g id="_Group_45" data-name="&lt;Group&gt;"><path id="_Path_42" data-name="&lt;Path&gt;" class="cls-1" d="M56.76,107.6c0.13-.52.27-1,0.4-1.57C57,106.56,56.89,107.08,56.76,107.6Z" transform="translate(-45.01 -44.13)"/></g><g id="_Group_46" data-name="&lt;Group&gt;"><path id="_Path_43" data-name="&lt;Path&gt;" class="cls-1" d="M62.68,87.81h0c-0.18.51-.36,1-0.53,1.54Z" transform="translate(-45.01 -44.13)"/></g><g id="_Group_47" data-name="&lt;Group&gt;"><path id="_Path_44" data-name="&lt;Path&gt;" class="cls-1" d="M56.94,107.65c0.21-.85.43-1.7,0.65-2.55C57.36,106,57.15,106.8,56.94,107.65Z" transform="translate(-45.01 -44.13)"/></g><g id="_Group_48" data-name="&lt;Group&gt;"><path id="_Path_45" data-name="&lt;Path&gt;" class="cls-1" d="M62.19,89.79c0.27-.8.55-1.6,0.83-2.39C62.73,88.2,62.46,89,62.19,89.79Z" transform="translate(-45.01 -44.13)"/></g><g id="_Group_49" data-name="&lt;Group&gt;"><path id="_Path_46" data-name="&lt;Path&gt;" class="cls-1" d="M57.79,104.29q1.33-5.06,2.95-10.14Q59.12,99.23,57.79,104.29Z" transform="translate(-45.01 -44.13)"/></g><g id="_Group_50" data-name="&lt;Group&gt;"><path id="_Path_47" data-name="&lt;Path&gt;" class="cls-1" d="M60.79,94q0.51-1.61,1.05-3.21Q61.3,92.38,60.79,94Z" transform="translate(-45.01 -44.13)"/></g><g id="_Group_51" data-name="&lt;Group&gt;"><path id="_Path_48" data-name="&lt;Path&gt;" class="cls-1" d="M56.16,111h0c0.14-.61.29-1.23,0.43-1.85C56.45,109.76,56.3,110.37,56.16,111Z" transform="translate(-45.01 -44.13)"/></g><g id="_Group_52" data-name="&lt;Group&gt;"><path id="_Path_49" data-name="&lt;Path&gt;" class="cls-1" d="M53.74,112.15l-1,.45Z" transform="translate(-45.01 -44.13)"/></g><g id="_Group_53" data-name="&lt;Group&gt;"><path id="_Path_50" data-name="&lt;Path&gt;" class="cls-1" d="M54.75,111.7l1.29-.58h0Z" transform="translate(-45.01 -44.13)"/></g><g id="_Group_54" data-name="&lt;Group&gt;"><path id="_Path_51" data-name="&lt;Path&gt;" class="cls-1" d="M134.84,52.69l-2-1.83Z" transform="translate(-45.01 -44.13)"/></g><g id="_Group_55" data-name="&lt;Group&gt;"><path id="_Path_52" data-name="&lt;Path&gt;" class="cls-1" d="M130.94,49h0l1,0.91Z" transform="translate(-45.01 -44.13)"/></g><g id="_Group_56" data-name="&lt;Group&gt;"><path id="_Path_53" data-name="&lt;Path&gt;" class="cls-1" d="M146.57,64l-1.34-1.32L146.57,64l1.68-.11Z" transform="translate(-45.01 -44.13)"/></g><g id="_Group_57" data-name="&lt;Group&gt;"><path id="_Path_54" data-name="&lt;Path&gt;" class="cls-1" d="M144.25,61.72q-4.66-4.56-9.15-8.79Q139.57,57.15,144.25,61.72Z" transform="translate(-45.01 -44.13)"/></g><g id="_Group_58" data-name="&lt;Group&gt;"><path id="_Path_55" data-name="&lt;Path&gt;" class="cls-1" d="M175.23,60.68h0l-0.47,1.12Z" transform="translate(-45.01 -44.13)"/></g><g id="_Group_59" data-name="&lt;Group&gt;"><path id="_Path_56" data-name="&lt;Path&gt;" class="cls-1" d="M161.22,63.41h0Z" transform="translate(-45.01 -44.13)"/></g><g id="_Group_60" data-name="&lt;Group&gt;"><path id="_Path_57" data-name="&lt;Path&gt;" class="cls-1" d="M174,63.59l-0.07.17-2.05-.11L174,63.77Z" transform="translate(-45.01 -44.13)"/></g><g id="_Group_61" data-name="&lt;Group&gt;"><path id="_Path_58" data-name="&lt;Path&gt;" class="cls-1" d="M168.42,63.5l2.32,0.09Z" transform="translate(-45.01 -44.13)"/></g><g id="_Group_62" data-name="&lt;Group&gt;"><path id="_Path_59" data-name="&lt;Path&gt;" class="cls-1" d="M153.68,63.58q3.53-.15,7-0.18Q157.21,63.43,153.68,63.58Z" transform="translate(-45.01 -44.13)"/></g><g id="_Group_63" data-name="&lt;Group&gt;"><path id="_Path_60" data-name="&lt;Path&gt;" class="cls-1" d="M150.14,63.76l1.76-.09Z" transform="translate(-45.01 -44.13)"/></g><g id="_Group_64" data-name="&lt;Group&gt;"><path id="_Path_61" data-name="&lt;Path&gt;" class="cls-1" d="M164.91,63.42l2.52,0Z" transform="translate(-45.01 -44.13)"/></g><g id="_Group_65" data-name="&lt;Group&gt;"><path id="_Path_62" data-name="&lt;Path&gt;" class="cls-1" d="M141.78,59.58L141.2,59Z" transform="translate(-45.01 -44.13)"/></g><g id="_Group_66" data-name="&lt;Group&gt;"><path id="_Path_63" data-name="&lt;Path&gt;" class="cls-1" d="M144.1,61.83l-0.82-.8Z" transform="translate(-45.01 -44.13)"/></g><g id="_Group_67" data-name="&lt;Group&gt;"><path id="_Path_64" data-name="&lt;Path&gt;" class="cls-1" d="M145.45,63.16l1,1h0Z" transform="translate(-45.01 -44.13)"/></g><g id="_Group_68" data-name="&lt;Group&gt;"><path id="_Path_65" data-name="&lt;Path&gt;" class="cls-1" d="M174.12,63.84h0l0.58-1.39Z" transform="translate(-45.01 -44.13)"/></g><g id="_Group_69" data-name="&lt;Group&gt;"><path id="_Path_66" data-name="&lt;Path&gt;" class="cls-1" d="M175.39,60.78h0l-0.46,1.11Z" transform="translate(-45.01 -44.13)"/></g><g id="_Group_70" data-name="&lt;Group&gt;"><path id="_Path_67" data-name="&lt;Path&gt;" class="cls-1" d="M174,64l-1.43-.08L174,64h0Z" transform="translate(-45.01 -44.13)"/></g><g id="_Group_71" data-name="&lt;Group&gt;"><path id="_Path_68" data-name="&lt;Path&gt;" class="cls-1" d="M150.15,63.94l2.11-.11Z" transform="translate(-45.01 -44.13)"/></g><g id="_Group_72" data-name="&lt;Group&gt;"><path id="_Path_69" data-name="&lt;Path&gt;" class="cls-1" d="M148.49,64.05l-1.9.13h0Z" transform="translate(-45.01 -44.13)"/></g><g id="_Group_73" data-name="&lt;Group&gt;"><path id="_Path_70" data-name="&lt;Path&gt;" class="cls-1" d="M153.69,63.77l1.94-.07Z" transform="translate(-45.01 -44.13)"/></g><g id="_Group_74" data-name="&lt;Group&gt;"><path id="_Path_71" data-name="&lt;Path&gt;" class="cls-1" d="M169.83,63.74l0.9,0Z" transform="translate(-45.01 -44.13)"/></g><g id="_Group_75" data-name="&lt;Group&gt;"><path id="_Path_72" data-name="&lt;Path&gt;" class="cls-1" d="M157.2,63.65l1.17,0Z" transform="translate(-45.01 -44.13)"/></g><g id="_Group_76" data-name="&lt;Group&gt;"><path id="_Path_73" data-name="&lt;Path&gt;" class="cls-1" d="M143.26,70.85l0.55-1.2Z" transform="translate(-45.01 -44.13)"/></g><g id="_Group_77" data-name="&lt;Group&gt;"><path id="_Path_74" data-name="&lt;Path&gt;" class="cls-1" d="M105.8,94.08h0l2-.5Z" transform="translate(-45.01 -44.13)"/></g><g id="_Group_78" data-name="&lt;Group&gt;"><path id="_Path_75" data-name="&lt;Path&gt;" class="cls-1" d="M109.52,93.15l1.74-.42Z" transform="translate(-45.01 -44.13)"/></g><g id="_Group_79" data-name="&lt;Group&gt;"><path id="_Path_76" data-name="&lt;Path&gt;" class="cls-1" d="M144.52,68.13l0.61-1.3Z" transform="translate(-45.01 -44.13)"/></g><g id="_Group_80" data-name="&lt;Group&gt;"><path id="_Path_77" data-name="&lt;Path&gt;" class="cls-1" d="M136.37,86.63l-0.44,1-1.61.28,1.61-.28Z" transform="translate(-45.01 -44.13)"/></g><g id="_Group_81" data-name="&lt;Group&gt;"><path id="_Path_78" data-name="&lt;Path&gt;" class="cls-1" d="M141.87,73.91l0.63-1.4Z" transform="translate(-45.01 -44.13)"/></g><g id="_Group_82" data-name="&lt;Group&gt;"><path id="_Path_79" data-name="&lt;Path&gt;" class="cls-1" d="M113.29,92.25l1.24-.28Z" transform="translate(-45.01 -44.13)"/></g><g id="_Group_83" data-name="&lt;Group&gt;"><path id="_Path_80" data-name="&lt;Path&gt;" class="cls-1" d="M130.7,88.61l1.48-.28Z" transform="translate(-45.01 -44.13)"/></g><g id="_Group_84" data-name="&lt;Group&gt;"><path id="_Path_81" data-name="&lt;Path&gt;" class="cls-1" d="M138.55,81.47l1-2.25Z" transform="translate(-45.01 -44.13)"/></g><g id="_Group_85" data-name="&lt;Group&gt;"><path id="_Path_82" data-name="&lt;Path&gt;" class="cls-1" d="M137.24,84.56L138,82.65Z" transform="translate(-45.01 -44.13)"/></g><g id="_Group_86" data-name="&lt;Group&gt;"><path id="_Path_83" data-name="&lt;Path&gt;" class="cls-1" d="M117.06,91.39h0Z" transform="translate(-45.01 -44.13)"/></g><g id="_Group_87" data-name="&lt;Group&gt;"><path id="_Path_84" data-name="&lt;Path&gt;" class="cls-1" d="M127.38,89.24l1-.2Z" transform="translate(-45.01 -44.13)"/></g><g id="_Group_88" data-name="&lt;Group&gt;"><path id="_Path_85" data-name="&lt;Path&gt;" class="cls-1" d="M140.42,77.16l0.75-1.71Z" transform="translate(-45.01 -44.13)"/></g><g id="_Group_89" data-name="&lt;Group&gt;"><path id="_Path_86" data-name="&lt;Path&gt;" class="cls-1" d="M138.72,81.54l0.89-2.06Z" transform="translate(-45.01 -44.13)"/></g><g id="_Group_90" data-name="&lt;Group&gt;"><path id="_Path_87" data-name="&lt;Path&gt;" class="cls-1" d="M140,78.5q2-4.52,4-8.79Q142,74,140,78.5Z" transform="translate(-45.01 -44.13)"/></g><g id="_Group_91" data-name="&lt;Group&gt;"><path id="_Path_88" data-name="&lt;Path&gt;" class="cls-1" d="M137.41,84.62L138.09,83Z" transform="translate(-45.01 -44.13)"/></g><g id="_Group_92" data-name="&lt;Group&gt;"><path id="_Path_89" data-name="&lt;Path&gt;" class="cls-1" d="M136.11,87.74h0l0.64-1.54Z" transform="translate(-45.01 -44.13)"/></g><g id="_Group_93" data-name="&lt;Group&gt;"><path id="_Path_90" data-name="&lt;Path&gt;" class="cls-1" d="M144.19,69.27l1.11-2.37Z" transform="translate(-45.01 -44.13)"/></g><g id="_Group_94" data-name="&lt;Group&gt;"><path id="_Path_91" data-name="&lt;Path&gt;" class="cls-1" d="M107.29,93.9l-1.45.36h0Z" transform="translate(-45.01 -44.13)"/></g><g id="_Group_95" data-name="&lt;Group&gt;"><path id="_Path_92" data-name="&lt;Path&gt;" class="cls-1" d="M109.56,93.33l3-.73Z" transform="translate(-45.01 -44.13)"/></g><g id="_Group_96" data-name="&lt;Group&gt;"><path id="_Path_93" data-name="&lt;Path&gt;" class="cls-1" d="M136,87.86l-2.49.44,2.49-.44h0Z" transform="translate(-45.01 -44.13)"/></g><g id="_Group_97" data-name="&lt;Group&gt;"><path id="_Path_94" data-name="&lt;Path&gt;" class="cls-1" d="M113.31,92.43c5-1.18,10.09-2.25,15.14-3.22C123.4,90.18,118.34,91.26,113.31,92.43Z" transform="translate(-45.01 -44.13)"/></g><g id="_Group_98" data-name="&lt;Group&gt;"><path id="_Path_95" data-name="&lt;Path&gt;" class="cls-1" d="M128.64,89.18l3.58-.67Z" transform="translate(-45.01 -44.13)"/></g><g id="_Group_99" data-name="&lt;Group&gt;"><path id="_Path_96" data-name="&lt;Path&gt;" class="cls-1" d="M90.16,72l-0.5,1.12L88.81,75h0l0.06,0L89,75.1l0.79-1.75,0.56-1.25,0.75-1.61,0.65-1.4,0.66-1.38,0.77-1.6L93.73,65l0.89-1.79L95,62.39q1-2,2-3.95l0.56-1.07,0.38-.7-0.28.13-0.26.48C94.91,62.06,92.47,67,90.16,72Z" transform="translate(-45.01 -44.13)"/></g><g id="_Group_100" data-name="&lt;Group&gt;"><path id="_Path_97" data-name="&lt;Path&gt;" class="cls-1" d="M141.78,59.58l1.5,1.46,0.82,0.8,1.35,1.33,1,1h0l-0.76,1.58,0.78-1.64,0,0h0.09l-1.34-1.32-1-1q-4.66-4.56-9.15-8.79l-0.26-.24-2-1.83-1-.92-1-.91h-0.26c3.4,3.15,6.92,6.49,10.53,10Z" transform="translate(-45.01 -44.13)"/></g><g id="_Group_101" data-name="&lt;Group&gt;"><path id="_Path_98" data-name="&lt;Path&gt;" class="cls-1" d="M146.59,64.18h0l-1,2.1,1-2.1h0Z" transform="translate(-45.01 -44.13)"/></g><g id="_Group_102" data-name="&lt;Group&gt;"><path id="_Path_99" data-name="&lt;Path&gt;" class="cls-1" d="M61.67,90.72c-0.28.82-.54,1.64-0.81,2.46l-0.3.93q-1.08,3.38-2,6.76c-0.14.49-.27,1-0.4,1.47s-0.35,1.27-.52,1.9-0.3,1.2-.45,1.79-0.27,1-.4,1.57-0.29,1.22-.43,1.83-0.24,1-.35,1.51l0,0,0.07,0,0,0.06c2.75,3.84,5.69,7.85,8.78,12-3.08-4.11-6-8.1-8.76-11.93h0c0.14-.61.29-1.23,0.43-1.85s0.23-1,.35-1.49c0.21-.85.43-1.7,0.65-2.55l0.2-.81q1.33-5.06,2.95-10.14L60.79,94q0.51-1.61,1.05-3.21l0.34-1c0.27-.8.55-1.6,0.83-2.39l0.11-.3-0.45.71-0.53,1.54C62,89.81,61.82,90.26,61.67,90.72Z" transform="translate(-45.01 -44.13)"/></g><g id="_Group_103" data-name="&lt;Group&gt;"><path id="_Path_100" data-name="&lt;Path&gt;" class="cls-1" d="M66.11,124.49l-1-1.28Z" transform="translate(-45.01 -44.13)"/></g><g id="_Group_104" data-name="&lt;Group&gt;"><path id="_Path_101" data-name="&lt;Path&gt;" class="cls-1" d="M96.29,121.29c-0.21.69-.42,1.38-0.63,2.06l-0.87.24,0.87-.24C95.87,122.66,96.08,122,96.29,121.29Z" transform="translate(-45.01 -44.13)"/></g><g id="_Group_105" data-name="&lt;Group&gt;"><path id="_Path_102" data-name="&lt;Path&gt;" class="cls-1" d="M67.71,126.61l-0.64-.84Z" transform="translate(-45.01 -44.13)"/></g><g id="_Group_106" data-name="&lt;Group&gt;"><path id="_Path_103" data-name="&lt;Path&gt;" class="cls-1" d="M69.89,129.47L69,128.35Z" transform="translate(-45.01 -44.13)"/></g><g id="_Group_107" data-name="&lt;Group&gt;"><path id="_Path_104" data-name="&lt;Path&gt;" class="cls-1" d="M71,130.92h0l2-.68Z" transform="translate(-45.01 -44.13)"/></g><g id="_Group_108" data-name="&lt;Group&gt;"><path id="_Path_105" data-name="&lt;Path&gt;" class="cls-1" d="M67.19,82.84q4.49-1.8,9.13-3.47L77,79.14l2.44-.86,1.5-.51,1.63-.55,1.6-.52,1.55-.5,1.4-.44,1.75-.54h0l16.82,19-0.75,2c0.26-.67.51-1.34,0.77-2l0,0h0.1L89,75.1h0L88.9,75l-0.06,0h0l-1.38.43L85.65,76l-1.15.37Q79,78.17,73.7,80.14l-0.49.18L71,81.15l-0.85.32-1.87.74-1.14.45-1.37.56-0.21.28,0.69-.28Z" transform="translate(-45.01 -44.13)"/></g><g id="_Group_109" data-name="&lt;Group&gt;"><path id="_Path_106" data-name="&lt;Path&gt;" class="cls-1" d="M92.34,124.29l0.06,0Z" transform="translate(-45.01 -44.13)"/></g><g id="_Group_110" data-name="&lt;Group&gt;"><path id="_Path_107" data-name="&lt;Path&gt;" class="cls-1" d="M76.8,129l1.78-.57Z" transform="translate(-45.01 -44.13)"/></g><g id="_Group_111" data-name="&lt;Group&gt;"><path id="_Path_108" data-name="&lt;Path&gt;" class="cls-1" d="M73.85,130l2-.64Z" transform="translate(-45.01 -44.13)"/></g><g id="_Group_112" data-name="&lt;Group&gt;"><path id="_Path_109" data-name="&lt;Path&gt;" class="cls-1" d="M79.82,128l1.25-.39Z" transform="translate(-45.01 -44.13)"/></g><g id="_Group_113" data-name="&lt;Group&gt;"><path id="_Path_110" data-name="&lt;Path&gt;" class="cls-1" d="M101.71,104.82q0.61-1.71,1.23-3.42Q102.32,103.11,101.71,104.82Z" transform="translate(-45.01 -44.13)"/></g><g id="_Group_114" data-name="&lt;Group&gt;"><path id="_Path_111" data-name="&lt;Path&gt;" class="cls-1" d="M103.36,100.28c0.31-.83.61-1.67,0.93-2.5C104,98.62,103.67,99.45,103.36,100.28Z" transform="translate(-45.01 -44.13)"/></g><g id="_Group_115" data-name="&lt;Group&gt;"><path id="_Path_112" data-name="&lt;Path&gt;" class="cls-1" d="M96.77,119.71c1.51-4.9,3.14-9.8,4.86-14.66C99.91,109.91,98.28,114.81,96.77,119.71Z" transform="translate(-45.01 -44.13)"/></g><g id="_Group_116" data-name="&lt;Group&gt;"><path id="_Path_113" data-name="&lt;Path&gt;" class="cls-1" d="M95.84,123.4h0c0.17-.58.35-1.16,0.53-1.74C96.19,122.25,96,122.83,95.84,123.4Z" transform="translate(-45.01 -44.13)"/></g><g id="_Group_117" data-name="&lt;Group&gt;"><path id="_Path_114" data-name="&lt;Path&gt;" class="cls-1" d="M103,101.66l0.06-.17Z" transform="translate(-45.01 -44.13)"/></g><g id="_Group_118" data-name="&lt;Group&gt;"><path id="_Path_115" data-name="&lt;Path&gt;" class="cls-1" d="M104,99l0.43-1.15Z" transform="translate(-45.01 -44.13)"/></g><g id="_Group_119" data-name="&lt;Group&gt;"><path id="_Path_116" data-name="&lt;Path&gt;" class="cls-1" d="M96.95,119.75l0.32-1Z" transform="translate(-45.01 -44.13)"/></g><g id="_Group_120" data-name="&lt;Group&gt;"><path id="_Path_117" data-name="&lt;Path&gt;" class="cls-1" d="M98.1,116.08l0.08-.23Z" transform="translate(-45.01 -44.13)"/></g><g id="_Group_121" data-name="&lt;Group&gt;"><path id="_Path_118" data-name="&lt;Path&gt;" class="cls-1" d="M71.05,131.09h0l1.92-.64Z" transform="translate(-45.01 -44.13)"/></g><g id="_Group_122" data-name="&lt;Group&gt;"><path id="_Path_119" data-name="&lt;Path&gt;" class="cls-1" d="M92.46,124.44l-2.94.85Z" transform="translate(-45.01 -44.13)"/></g><g id="_Group_123" data-name="&lt;Group&gt;"><path id="_Path_120" data-name="&lt;Path&gt;" class="cls-1" d="M79.66,128.27l-2.81.9Z" transform="translate(-45.01 -44.13)"/></g><g id="_Group_124" data-name="&lt;Group&gt;"><path id="_Path_121" data-name="&lt;Path&gt;" class="cls-1" d="M76.07,129.43l-2.16.71Z" transform="translate(-45.01 -44.13)"/></g><g id="_Group_125" data-name="&lt;Group&gt;"><path id="_Path_122" data-name="&lt;Path&gt;" class="cls-1" d="M89.24,125.37q-4.81,1.4-9.38,2.84Q84.42,126.77,89.24,125.37Z" transform="translate(-45.01 -44.13)"/></g><g id="_Group_126" data-name="&lt;Group&gt;"><path id="_Path_123" data-name="&lt;Path&gt;" class="cls-1" d="M93.62,124.12l2.09-.59h0Z" transform="translate(-45.01 -44.13)"/></g><g id="_Group_127" data-name="&lt;Group&gt;"><path id="_Path_124" data-name="&lt;Path&gt;" class="cls-1" d="M61.28,118.34l-0.81-1.11Z" transform="translate(-45.01 -44.13)"/></g><g id="_Group_128" data-name="&lt;Group&gt;"><path id="_Path_125" data-name="&lt;Path&gt;" class="cls-1" d="M70.38,130.4l-1.49-1.94Z" transform="translate(-45.01 -44.13)"/></g><g id="_Group_129" data-name="&lt;Group&gt;"><path id="_Path_126" data-name="&lt;Path&gt;" class="cls-1" d="M68.7,128.21l-2-2.56Z" transform="translate(-45.01 -44.13)"/></g><g id="_Group_130" data-name="&lt;Group&gt;"><path id="_Path_127" data-name="&lt;Path&gt;" class="cls-1" d="M65,123.35l-0.66-.88Z" transform="translate(-45.01 -44.13)"/></g><g id="_Group_131" data-name="&lt;Group&gt;"><path id="_Path_128" data-name="&lt;Path&gt;" class="cls-1" d="M63.13,120.83l-0.82-1.11Z" transform="translate(-45.01 -44.13)"/></g><g id="_Group_132" data-name="&lt;Group&gt;"><path id="_Path_129" data-name="&lt;Path&gt;" class="cls-1" d="M57.73,113.47l-0.86-1.2Z" transform="translate(-45.01 -44.13)"/></g><g id="_Group_133" data-name="&lt;Group&gt;"><path id="_Path_130" data-name="&lt;Path&gt;" class="cls-1" d="M59.48,115.89l-0.88-1.21Z" transform="translate(-45.01 -44.13)"/></g><g id="_Group_134" data-name="&lt;Group&gt;"><path id="_Path_131" data-name="&lt;Path&gt;" class="cls-1" d="M105.83,94.26h0l-0.45,1.16,0.45-1.16h0Z" transform="translate(-45.01 -44.13)"/></g><g id="_Group_135" data-name="&lt;Group&gt;"><path id="_Path_132" data-name="&lt;Path&gt;" class="cls-1" d="M174,63.59l-0.07.17h0.1l0,0,1,1-0.95-1h0l0.58-1.39,0.23-.56,0.46-1.11-0.16-.09-0.47,1.12Z" transform="translate(-45.01 -44.13)"/></g><g id="_Group_136" data-name="&lt;Group&gt;"><path id="_Path_133" data-name="&lt;Path&gt;" class="cls-1" d="M200.1,83.57h0l-1.27-.09Z" transform="translate(-45.01 -44.13)"/></g><g id="_Group_137" data-name="&lt;Group&gt;"><path id="_Path_134" data-name="&lt;Path&gt;" class="cls-1" d="M194.77,83.26l-2-.08c-4.71-5-9.43-9.95-14.08-14.69,4.65,4.74,9.36,9.66,14.08,14.69Z" transform="translate(-45.01 -44.13)"/></g><g id="_Group_138" data-name="&lt;Group&gt;"><path id="_Path_135" data-name="&lt;Path&gt;" class="cls-1" d="M195.63,83.29l2.79,0.16Z" transform="translate(-45.01 -44.13)"/></g><g id="_Group_139" data-name="&lt;Group&gt;"><path id="_Path_136" data-name="&lt;Path&gt;" class="cls-1" d="M176.41,66.15l1.32,1.34Z" transform="translate(-45.01 -44.13)"/></g><g id="_Group_140" data-name="&lt;Group&gt;"><path id="_Path_137" data-name="&lt;Path&gt;" class="cls-1" d="M190,80.49l0.29,0.31Z" transform="translate(-45.01 -44.13)"/></g><g id="_Group_141" data-name="&lt;Group&gt;"><path id="_Path_138" data-name="&lt;Path&gt;" class="cls-1" d="M192.65,83.29h0l-1.06-1.12Z" transform="translate(-45.01 -44.13)"/></g><g id="_Group_142" data-name="&lt;Group&gt;"><path id="_Path_139" data-name="&lt;Path&gt;" class="cls-1" d="M198.43,83.63l1.77,0.13Z" transform="translate(-45.01 -44.13)"/></g><g id="_Group_143" data-name="&lt;Group&gt;"><path id="_Path_140" data-name="&lt;Path&gt;" class="cls-1" d="M195.65,83.48l1.62,0.09Z" transform="translate(-45.01 -44.13)"/></g><g id="_Group_144" data-name="&lt;Group&gt;"><path id="_Path_141" data-name="&lt;Path&gt;" class="cls-1" d="M192.82,83.36h0l1.51,0.06Z" transform="translate(-45.01 -44.13)"/></g><g id="_Group_145" data-name="&lt;Group&gt;"><path id="_Path_142" data-name="&lt;Path&gt;" class="cls-1" d="M143.12,95.22l-2-2.14Z" transform="translate(-45.01 -44.13)"/></g><g id="_Group_146" data-name="&lt;Group&gt;"><path id="_Path_143" data-name="&lt;Path&gt;" class="cls-1" d="M181.64,106.22l1.15-.14Z" transform="translate(-45.01 -44.13)"/></g><g id="_Group_147" data-name="&lt;Group&gt;"><path id="_Path_144" data-name="&lt;Path&gt;" class="cls-1" d="M192.4,84.25L192,85.83Z" transform="translate(-45.01 -44.13)"/></g><g id="_Group_148" data-name="&lt;Group&gt;"><path id="_Path_145" data-name="&lt;Path&gt;" class="cls-1" d="M191.85,86.25q-1,3.69-2.13,7.68Q190.85,89.94,191.85,86.25Z" transform="translate(-45.01 -44.13)"/></g><g id="_Group_149" data-name="&lt;Group&gt;"><path id="_Path_146" data-name="&lt;Path&gt;" class="cls-1" d="M188.08,99.69l-0.11.37Z" transform="translate(-45.01 -44.13)"/></g><g id="_Group_150" data-name="&lt;Group&gt;"><path id="_Path_147" data-name="&lt;Path&gt;" class="cls-1" d="M187.22,102.68l-0.34,1.15Z" transform="translate(-45.01 -44.13)"/></g><g id="_Group_151" data-name="&lt;Group&gt;"><path id="_Path_148" data-name="&lt;Path&gt;" class="cls-1" d="M156.61,109.85l-1.35-1.48,1.35,1.48,2.67-.44Z" transform="translate(-45.01 -44.13)"/></g><g id="_Group_152" data-name="&lt;Group&gt;"><path id="_Path_149" data-name="&lt;Path&gt;" class="cls-1" d="M178.86,106.56l0.31,0Z" transform="translate(-45.01 -44.13)"/></g><g id="_Group_153" data-name="&lt;Group&gt;"><path id="_Path_150" data-name="&lt;Path&gt;" class="cls-1" d="M164.27,108.61l0.82-.12Z" transform="translate(-45.01 -44.13)"/></g><g id="_Group_154" data-name="&lt;Group&gt;"><path id="_Path_151" data-name="&lt;Path&gt;" class="cls-1" d="M160.44,109.22l2-.31Z" transform="translate(-45.01 -44.13)"/></g><g id="_Group_155" data-name="&lt;Group&gt;"><path id="_Path_152" data-name="&lt;Path&gt;" class="cls-1" d="M154,107l-0.26-.29Z" transform="translate(-45.01 -44.13)"/></g><g id="_Group_156" data-name="&lt;Group&gt;"><path id="_Path_153" data-name="&lt;Path&gt;" class="cls-1" d="M145,97.22l-1.3-1.4Z" transform="translate(-45.01 -44.13)"/></g><g id="_Group_157" data-name="&lt;Group&gt;"><path id="_Path_154" data-name="&lt;Path&gt;" class="cls-1" d="M140,91.93l-1.44-1.54Z" transform="translate(-45.01 -44.13)"/></g><g id="_Group_158" data-name="&lt;Group&gt;"><path id="_Path_155" data-name="&lt;Path&gt;" class="cls-1" d="M186.34,105.68h0l-1.38.16Z" transform="translate(-45.01 -44.13)"/></g><g id="_Group_159" data-name="&lt;Group&gt;"><path id="_Path_156" data-name="&lt;Path&gt;" class="cls-1" d="M138.45,90.49l1.94,2.07Z" transform="translate(-45.01 -44.13)"/></g><g id="_Group_160" data-name="&lt;Group&gt;"><path id="_Path_157" data-name="&lt;Path&gt;" class="cls-1" d="M143.54,95.94l1.52,1.64Z" transform="translate(-45.01 -44.13)"/></g><g id="_Group_161" data-name="&lt;Group&gt;"><path id="_Path_158" data-name="&lt;Path&gt;" class="cls-1" d="M150.73,103.7l0.54,0.59Z" transform="translate(-45.01 -44.13)"/></g><g id="_Group_162" data-name="&lt;Group&gt;"><path id="_Path_159" data-name="&lt;Path&gt;" class="cls-1" d="M138.34,90.38L136,87.86h0Z" transform="translate(-45.01 -44.13)"/></g><g id="_Group_163" data-name="&lt;Group&gt;"><path id="_Path_160" data-name="&lt;Path&gt;" class="cls-1" d="M141,93.2l1.48,1.59Z" transform="translate(-45.01 -44.13)"/></g><g id="_Group_164" data-name="&lt;Group&gt;"><path id="_Path_161" data-name="&lt;Path&gt;" class="cls-1" d="M190.68,91.2v0Z" transform="translate(-45.01 -44.13)"/></g><g id="_Group_165" data-name="&lt;Group&gt;"><path id="_Path_162" data-name="&lt;Path&gt;" class="cls-1" d="M186.51,105.74h0q1.59-5.41,3-10.42Q188.1,100.32,186.51,105.74Z" transform="translate(-45.01 -44.13)"/></g><g id="_Group_166" data-name="&lt;Group&gt;"><path id="_Path_163" data-name="&lt;Path&gt;" class="cls-1" d="M192.15,85.86l0.09-.35Z" transform="translate(-45.01 -44.13)"/></g><g id="_Group_167" data-name="&lt;Group&gt;"><path id="_Path_164" data-name="&lt;Path&gt;" class="cls-1" d="M189.9,94l0-.11Z" transform="translate(-45.01 -44.13)"/></g><g id="_Group_168" data-name="&lt;Group&gt;"><path id="_Path_165" data-name="&lt;Path&gt;" class="cls-1" d="M160.47,109.4c6.4-1,12.68-1.94,18.75-2.7C173.14,107.46,166.87,108.37,160.47,109.4Z" transform="translate(-45.01 -44.13)"/></g><g id="_Group_169" data-name="&lt;Group&gt;"><path id="_Path_166" data-name="&lt;Path&gt;" class="cls-1" d="M159.45,109.57l-2.8.46h0Z" transform="translate(-45.01 -44.13)"/></g><g id="_Group_170" data-name="&lt;Group&gt;"><path id="_Path_167" data-name="&lt;Path&gt;" class="cls-1" d="M186.37,105.86l-2.54.29,2.54-.29h0Z" transform="translate(-45.01 -44.13)"/></g><g id="_Group_171" data-name="&lt;Group&gt;"><path id="_Path_168" data-name="&lt;Path&gt;" class="cls-1" d="M180,106.61l2.83-.34Z" transform="translate(-45.01 -44.13)"/></g><g id="_Group_172" data-name="&lt;Group&gt;"><path id="_Path_169" data-name="&lt;Path&gt;" class="cls-1" d="M136,87.67h0l0,0,0.51,0.54-0.47-.5h0l0.64-1.54,0.66-1.57L138.09,83l0.63-1.48,0.89-2.06,0.42-1q2-4.53,4-8.79l0.2-.44,1.11-2.37,0.29-.61,1-2.1h0l1.9-.13,1.66-.11,2.11-.11,1.43-.07,1.94-.07,1.56-.05,1.17,0q5.87-.12,11.45.11l0.9,0,1.81,0.1L174,64h0c5.26,5.27,10.64,10.82,16,16.53l0.29,0.31,1.29,1.38,1.06,1.12v0l0-.07h0.11c-4.72-5-9.43-10-14.08-14.69l-1-1-1.32-1.34-1.34-1.35-1-1,0,0H174l-2.05-.11-1.16-.06-2.32-.09-1,0-2.52,0-0.84,0h-3.41q-3.44,0-7,.18l-1.78.09-1.76.09-1.89.13-1.68.11h-0.09l0,0-0.78,1.64-0.54,1.13-0.61,1.3-0.71,1.52-0.55,1.2-0.76,1.66-0.63,1.4-0.69,1.53-0.75,1.71-0.9,2.07-1,2.25L138,82.65l-0.81,1.91-0.86,2.07-0.44,1h0Z" transform="translate(-45.01 -44.13)"/></g><g id="_Group_173" data-name="&lt;Group&gt;"><path id="_Path_170" data-name="&lt;Path&gt;" class="cls-1" d="M153.9,117.27l-0.67,1.93Z" transform="translate(-45.01 -44.13)"/></g><g id="_Group_174" data-name="&lt;Group&gt;"><path id="_Path_171" data-name="&lt;Path&gt;" class="cls-1" d="M100.54,129l-0.53-.63Z" transform="translate(-45.01 -44.13)"/></g><g id="_Group_175" data-name="&lt;Group&gt;"><path id="_Path_172" data-name="&lt;Path&gt;" class="cls-1" d="M98.15,126.18l-0.07-.08Z" transform="translate(-45.01 -44.13)"/></g><g id="_Group_176" data-name="&lt;Group&gt;"><path id="_Path_173" data-name="&lt;Path&gt;" class="cls-1" d="M150,128.6l-1.24,3.61Z" transform="translate(-45.01 -44.13)"/></g><g id="_Group_177" data-name="&lt;Group&gt;"><path id="_Path_174" data-name="&lt;Path&gt;" class="cls-1" d="M148.41,133.16q-1.12,3.3-2.24,6.63c-10.49,2.16-20.87,4.4-30.84,6.64q-5.73-6.67-11.25-13.2,5.5,6.52,11.25,13.2c10-2.25,20.36-4.48,30.84-6.64Q147.28,136.46,148.41,133.16Z" transform="translate(-45.01 -44.13)"/></g><g id="_Group_178" data-name="&lt;Group&gt;"><path id="_Path_175" data-name="&lt;Path&gt;" class="cls-1" d="M108.51,138.75l-0.82-1Z" transform="translate(-45.01 -44.13)"/></g><g id="_Group_179" data-name="&lt;Group&gt;"><path id="_Path_176" data-name="&lt;Path&gt;" class="cls-1" d="M110.84,141.47l-0.66-.78Z" transform="translate(-45.01 -44.13)"/></g><g id="_Group_180" data-name="&lt;Group&gt;"><path id="_Path_177" data-name="&lt;Path&gt;" class="cls-1" d="M100.4,129.15l-1.07-1.28Z" transform="translate(-45.01 -44.13)"/></g><g id="_Group_181" data-name="&lt;Group&gt;"><path id="_Path_178" data-name="&lt;Path&gt;" class="cls-1" d="M98,126.31l-1.62-1.94Z" transform="translate(-45.01 -44.13)"/></g><g id="_Group_182" data-name="&lt;Group&gt;"><path id="_Path_179" data-name="&lt;Path&gt;" class="cls-1" d="M103.41,132.72l-2.23-2.64Z" transform="translate(-45.01 -44.13)"/></g><g id="_Group_183" data-name="&lt;Group&gt;"><path id="_Path_180" data-name="&lt;Path&gt;" class="cls-1" d="M147.87,135.32c-0.51,1.51-1,3-1.53,4.53h0Z" transform="translate(-45.01 -44.13)"/></g><g id="_Group_184" data-name="&lt;Group&gt;"><path id="_Path_181" data-name="&lt;Path&gt;" class="cls-1" d="M148.9,132.27l1-3Z" transform="translate(-45.01 -44.13)"/></g><g id="_Group_185" data-name="&lt;Group&gt;"><path id="_Path_182" data-name="&lt;Path&gt;" class="cls-1" d="M151.81,123.8q1.13-3.26,2.26-6.49C153.32,119.46,152.57,121.63,151.81,123.8Z" transform="translate(-45.01 -44.13)"/></g><g id="_Group_186" data-name="&lt;Group&gt;"><path id="_Path_183" data-name="&lt;Path&gt;" class="cls-1" d="M146.2,140l-4.22.88,4.22-.88h0Z" transform="translate(-45.01 -44.13)"/></g><g id="_Group_187" data-name="&lt;Group&gt;"><path id="_Path_184" data-name="&lt;Path&gt;" class="cls-1" d="M118.1,146l-2.75.61h0Z" transform="translate(-45.01 -44.13)"/></g><g id="_Group_188" data-name="&lt;Group&gt;"><path id="_Path_185" data-name="&lt;Path&gt;" class="cls-1" d="M95.71,123.34l0.06,0,0,0,0,0c0.17-.58.35-1.16,0.53-1.73s0.38-1.28.58-1.92l0.32-1c0.28-.88.55-1.77,0.84-2.66l0.08-.23q2.29-7.12,4.87-14.19l0.06-.17c0.3-.83.61-1.65,0.92-2.48l0.43-1.15c0.31-.81.62-1.62,0.93-2.43l0.45-1.16h0l1.45-.36,2.27-.57,3-.73,0.71-.17c5-1.18,10.09-2.25,15.14-3.22l0.19,0,3.58-.67,1.25-.22,2.49-.44h0l2.37,2.52,0.1,0.11,1.94,2.07L141,93.2l1.48,1.59,1.07,1.15,1.52,1.64,5.67,6.13,0.54,0.59,5.2,5.68c-0.56,1.57-1.12,3.17-1.68,4.76,0.57-1.61,1.14-3.22,1.7-4.81l0-.05h0.1l-1.35-1.48L154,107l-0.26-.29q-4.42-4.82-8.77-9.5l-1.3-1.4-0.55-.59-2-2.14L140,91.93l-1.44-1.54-2-2.15-0.51-.54,0,0h-0.1l-1.61.28-2.14.38-1.48.28-2.3.43-1,.2q-5.13,1-10.25,2.13h-0.06l-2.54.58-1.24.28-2,.49-1.74.42-1.71.43-2,.5h-0.1l0,0c-0.26.67-.51,1.34-0.77,2l-0.62,1.62c-0.31.83-.62,1.66-0.93,2.5l-0.42,1.12q-0.62,1.71-1.23,3.42l-0.08.22c-1.72,4.87-3.35,9.77-4.86,14.66l-0.48,1.58c-0.21.69-.42,1.38-0.63,2.06h0Z" transform="translate(-45.01 -44.13)"/></g><g id="_Group_189" data-name="&lt;Group&gt;"><path id="_Path_186" data-name="&lt;Path&gt;" class="cls-1" d="M156.65,110h0c-0.74,2.07-1.47,4.16-2.21,6.26,0.74-2.1,1.48-4.19,2.21-6.26h0Z" transform="translate(-45.01 -44.13)"/></g><g id="_Group_190" data-name="&lt;Group&gt;"><path id="_Path_187" data-name="&lt;Path&gt;" class="cls-1" d="M92.53,177.94L92,178Z" transform="translate(-45.01 -44.13)"/></g><g id="_Group_191" data-name="&lt;Group&gt;"><path id="_Path_188" data-name="&lt;Path&gt;" class="cls-1" d="M87.06,178.75l-1.47.21Z" transform="translate(-45.01 -44.13)"/></g><g id="_Group_192" data-name="&lt;Group&gt;"><path id="_Path_189" data-name="&lt;Path&gt;" class="cls-1" d="M106.57,175.7l-2.23.37Z" transform="translate(-45.01 -44.13)"/></g><g id="_Group_193" data-name="&lt;Group&gt;"><path id="_Path_190" data-name="&lt;Path&gt;" class="cls-1" d="M100.69,176.66l-6,.94Z" transform="translate(-45.01 -44.13)"/></g><g id="_Group_194" data-name="&lt;Group&gt;"><path id="_Path_191" data-name="&lt;Path&gt;" class="cls-1" d="M107.45,175.56h0l0.35-1.45Z" transform="translate(-45.01 -44.13)"/></g><g id="_Group_195" data-name="&lt;Group&gt;"><path id="_Path_192" data-name="&lt;Path&gt;" class="cls-1" d="M89.74,178.36l-0.24,0Z" transform="translate(-45.01 -44.13)"/></g><g id="_Group_196" data-name="&lt;Group&gt;"><path id="_Path_193" data-name="&lt;Path&gt;" class="cls-1" d="M110.06,165c1.24-4.81,2.59-9.73,4-14.72C112.65,155.25,111.31,160.17,110.06,165Z" transform="translate(-45.01 -44.13)"/></g><g id="_Group_197" data-name="&lt;Group&gt;"><path id="_Path_194" data-name="&lt;Path&gt;" class="cls-1" d="M109.15,168.56q0.4-1.59.82-3.2Q109.55,167,109.15,168.56Z" transform="translate(-45.01 -44.13)"/></g><g id="_Group_198" data-name="&lt;Group&gt;"><path id="_Path_195" data-name="&lt;Path&gt;" class="cls-1" d="M67.88,153.28c0-.52.08-1,0.13-1.57C68,152.24,67.92,152.76,67.88,153.28Z" transform="translate(-45.01 -44.13)"/></g><g id="_Group_199" data-name="&lt;Group&gt;"><path id="_Path_196" data-name="&lt;Path&gt;" class="cls-1" d="M69.24,141.56c0.09-.58.18-1.17,0.27-1.76C69.43,140.38,69.33,141,69.24,141.56Z" transform="translate(-45.01 -44.13)"/></g><g id="_Group_200" data-name="&lt;Group&gt;"><path id="_Path_197" data-name="&lt;Path&gt;" class="cls-1" d="M108.28,172.09c0.17-.69.34-1.38,0.51-2.08C108.62,170.7,108.45,171.4,108.28,172.09Z" transform="translate(-45.01 -44.13)"/></g><g id="_Group_201" data-name="&lt;Group&gt;"><path id="_Path_198" data-name="&lt;Path&gt;" class="cls-1" d="M68.18,150q0.36-3.5.86-7.09Q68.54,146.55,68.18,150Z" transform="translate(-45.01 -44.13)"/></g><g id="_Group_202" data-name="&lt;Group&gt;"><path id="_Path_199" data-name="&lt;Path&gt;" class="cls-1" d="M103.81,176.16l-2.53.41Z" transform="translate(-45.01 -44.13)"/></g><g id="_Group_203" data-name="&lt;Group&gt;"><path id="_Path_200" data-name="&lt;Path&gt;" class="cls-1" d="M69.78,138.09c0.09-.54.19-1.09,0.28-1.64C70,137,69.87,137.55,69.78,138.09Z" transform="translate(-45.01 -44.13)"/></g><g id="_Group_204" data-name="&lt;Group&gt;"><path id="_Path_201" data-name="&lt;Path&gt;" class="cls-1" d="M81.24,175.24l-1.15-1.39Z" transform="translate(-45.01 -44.13)"/></g><g id="_Group_205" data-name="&lt;Group&gt;"><path id="_Path_202" data-name="&lt;Path&gt;" class="cls-1" d="M67.52,158.24c3.85,4.9,7.88,9.9,12,14.94-4.15-5-8.18-10-12-14.94h0Z" transform="translate(-45.01 -44.13)"/></g><g id="_Group_206" data-name="&lt;Group&gt;"><path id="_Path_203" data-name="&lt;Path&gt;" class="cls-1" d="M73.9,130.13l2.16-.71,0.79-.26,2.81-.9,0.19-.06q4.56-1.44,9.38-2.84l0.29-.08,2.94-.85,1.15-.32,2.09-.59h0l0.7,0.84L98,126.31l1.3,1.56,1.07,1.28,0.78,0.92,2.23,2.64,4.29,5.06,0.82,1,1.66,1.95,0.66,0.78,4.35,5.08q-0.55,1.85-1.08,3.69,0.54-1.86,1.1-3.74l0-.05h0.11q-5.73-6.67-11.25-13.2l-3.54-4.2-0.53-.63-1.85-2.21-0.07-.08-2.24-2.69h0l0,0,0,0-0.06,0h0l-0.87.24-2.4.67-0.06,0q-5.81,1.65-11.28,3.36l-1.25.39-1.23.39L76.8,129l-1,.32-2,.64-0.83.28-2,.68L71,131l0,0v0.09l1.92-.64Z" transform="translate(-45.01 -44.13)"/></g><g id="_Group_207" data-name="&lt;Group&gt;"><path id="_Path_204" data-name="&lt;Path&gt;" class="cls-1" d="M70.39,134.6c0.1-.55.21-1.1,0.31-1.66C70.6,133.49,70.49,134,70.39,134.6Z" transform="translate(-45.01 -44.13)"/></g><g id="_Group_208" data-name="&lt;Group&gt;"><path id="_Path_205" data-name="&lt;Path&gt;" class="cls-1" d="M67.63,156.66c0-.55.07-1.1,0.11-1.66C67.69,155.56,67.66,156.11,67.63,156.66Z" transform="translate(-45.01 -44.13)"/></g><g id="_Group_209" data-name="&lt;Group&gt;"><path id="_Path_206" data-name="&lt;Path&gt;" class="cls-1" d="M83.33,177.76l-1.05-1.26Z" transform="translate(-45.01 -44.13)"/></g><g id="_Group_210" data-name="&lt;Group&gt;"><path id="_Path_207" data-name="&lt;Path&gt;" class="cls-1" d="M113.52,153c0.25-.88.5-1.76,0.75-2.64C114,151.21,113.76,152.09,113.52,153Z" transform="translate(-45.01 -44.13)"/></g><g id="_Group_211" data-name="&lt;Group&gt;"><path id="_Path_208" data-name="&lt;Path&gt;" class="cls-1" d="M112.31,157.29q0.44-1.62.9-3.24Q112.75,155.68,112.31,157.29Z" transform="translate(-45.01 -44.13)"/></g><g id="_Group_212" data-name="&lt;Group&gt;"><path id="_Path_209" data-name="&lt;Path&gt;" class="cls-1" d="M109.33,168.61q0.42-1.66.85-3.33Q109.74,166.95,109.33,168.61Z" transform="translate(-45.01 -44.13)"/></g><g id="_Group_213" data-name="&lt;Group&gt;"><path id="_Path_210" data-name="&lt;Path&gt;" class="cls-1" d="M108.45,172.15c0.2-.83.41-1.67,0.62-2.5C108.86,170.48,108.65,171.32,108.45,172.15Z" transform="translate(-45.01 -44.13)"/></g><g id="_Group_214" data-name="&lt;Group&gt;"><path id="_Path_211" data-name="&lt;Path&gt;" class="cls-1" d="M110.24,165q0.93-3.61,1.94-7.29Q111.17,161.42,110.24,165Z" transform="translate(-45.01 -44.13)"/></g><g id="_Group_215" data-name="&lt;Group&gt;"><path id="_Path_212" data-name="&lt;Path&gt;" class="cls-1" d="M107.63,175.61h0c0.18-.77.37-1.55,0.56-2.33C108,174.06,107.81,174.84,107.63,175.61Z" transform="translate(-45.01 -44.13)"/></g><g id="_Group_216" data-name="&lt;Group&gt;"><path id="_Path_213" data-name="&lt;Path&gt;" class="cls-1" d="M70.21,134.56c0.11-.63.24-1.26,0.36-1.88C70.45,133.3,70.32,133.93,70.21,134.56Z" transform="translate(-45.01 -44.13)"/></g><g id="_Group_217" data-name="&lt;Group&gt;"><path id="_Path_214" data-name="&lt;Path&gt;" class="cls-1" d="M67.46,156.37c0-.46.06-0.92,0.09-1.39C67.52,155.45,67.49,155.91,67.46,156.37Z" transform="translate(-45.01 -44.13)"/></g><g id="_Group_218" data-name="&lt;Group&gt;"><path id="_Path_215" data-name="&lt;Path&gt;" class="cls-1" d="M67.71,153.17c0-.5.08-1,0.13-1.49C67.78,152.18,67.75,152.67,67.71,153.17Z" transform="translate(-45.01 -44.13)"/></g><g id="_Group_219" data-name="&lt;Group&gt;"><path id="_Path_216" data-name="&lt;Path&gt;" class="cls-1" d="M68.78,143.53q0.28-2.07.61-4.16Q69.07,141.47,68.78,143.53Z" transform="translate(-45.01 -44.13)"/></g><g id="_Group_220" data-name="&lt;Group&gt;"><path id="_Path_217" data-name="&lt;Path&gt;" class="cls-1" d="M68.37,146.73c0.07-.6.14-1.19,0.22-1.79C68.51,145.54,68.44,146.13,68.37,146.73Z" transform="translate(-45.01 -44.13)"/></g><g id="_Group_221" data-name="&lt;Group&gt;"><path id="_Path_218" data-name="&lt;Path&gt;" class="cls-1" d="M68,149.91c0.05-.53.1-1,0.16-1.58C68.12,148.86,68.07,149.38,68,149.91Z" transform="translate(-45.01 -44.13)"/></g><g id="_Group_222" data-name="&lt;Group&gt;"><path id="_Path_219" data-name="&lt;Path&gt;" class="cls-1" d="M69.6,138.06c0.11-.66.23-1.33,0.35-2C69.83,136.73,69.71,137.4,69.6,138.06Z" transform="translate(-45.01 -44.13)"/></g><g id="_Group_223" data-name="&lt;Group&gt;"><path id="_Path_220" data-name="&lt;Path&gt;" class="cls-1" d="M73.55,166.12l-1.19-1.48Z" transform="translate(-45.01 -44.13)"/></g><g id="_Group_224" data-name="&lt;Group&gt;"><path id="_Path_221" data-name="&lt;Path&gt;" class="cls-1" d="M83.18,177.86l-1-1.25Z" transform="translate(-45.01 -44.13)"/></g><g id="_Group_225" data-name="&lt;Group&gt;"><path id="_Path_222" data-name="&lt;Path&gt;" class="cls-1" d="M71.46,163.51l-1-1.26Z" transform="translate(-45.01 -44.13)"/></g><g id="_Group_226" data-name="&lt;Group&gt;"><path id="_Path_223" data-name="&lt;Path&gt;" class="cls-1" d="M69.41,160.92l-0.94-1.19Z" transform="translate(-45.01 -44.13)"/></g><g id="_Group_227" data-name="&lt;Group&gt;"><path id="_Path_224" data-name="&lt;Path&gt;" class="cls-1" d="M80.78,175L80,174Z" transform="translate(-45.01 -44.13)"/></g><g id="_Group_228" data-name="&lt;Group&gt;"><path id="_Path_225" data-name="&lt;Path&gt;" class="cls-1" d="M75.66,168.72l-1.79-2.21Z" transform="translate(-45.01 -44.13)"/></g><g id="_Group_229" data-name="&lt;Group&gt;"><path id="_Path_226" data-name="&lt;Path&gt;" class="cls-1" d="M79,172.84l-2.79-3.41Z" transform="translate(-45.01 -44.13)"/></g><g id="_Group_230" data-name="&lt;Group&gt;"><path id="_Path_227" data-name="&lt;Path&gt;" class="cls-1" d="M86.23,179.06l0.86-.12Z" transform="translate(-45.01 -44.13)"/></g><g id="_Group_231" data-name="&lt;Group&gt;"><path id="_Path_228" data-name="&lt;Path&gt;" class="cls-1" d="M95,177.74l0.36-.06Z" transform="translate(-45.01 -44.13)"/></g><g id="_Group_232" data-name="&lt;Group&gt;"><path id="_Path_229" data-name="&lt;Path&gt;" class="cls-1" d="M88.64,178.71l1.15-.17Z" transform="translate(-45.01 -44.13)"/></g><g id="_Group_233" data-name="&lt;Group&gt;"><path id="_Path_230" data-name="&lt;Path&gt;" class="cls-1" d="M91.37,178.3l1.19-.18Z" transform="translate(-45.01 -44.13)"/></g><g id="_Group_234" data-name="&lt;Group&gt;"><path id="_Path_231" data-name="&lt;Path&gt;" class="cls-1" d="M101.33,176.75l0.61-.1Z" transform="translate(-45.01 -44.13)"/></g><g id="_Group_235" data-name="&lt;Group&gt;"><path id="_Path_232" data-name="&lt;Path&gt;" class="cls-1" d="M104.39,176.25l2.43-.4Z" transform="translate(-45.01 -44.13)"/></g><g id="_Group_236" data-name="&lt;Group&gt;"><path id="_Path_233" data-name="&lt;Path&gt;" class="cls-1" d="M98,177.28l0.5-.08Z" transform="translate(-45.01 -44.13)"/></g><g id="_Group_237" data-name="&lt;Group&gt;"><path id="_Path_234" data-name="&lt;Path&gt;" class="cls-1" d="M115.36,146.61h0c-0.24.8-.47,1.6-0.7,2.4,0.23-.8.46-1.59,0.7-2.4h0Z" transform="translate(-45.01 -44.13)"/></g><g id="_Group_238" data-name="&lt;Group&gt;"><path id="_Path_235" data-name="&lt;Path&gt;" class="cls-1" d="M198.43,83.45l-2.79-.16-0.86,0-2-.08h-0.11l0,0.07v0h0l-0.26,1L192,85.83l-0.11.42q-1,3.69-2.13,7.68-0.79,2.81-1.65,5.76l-0.11.37-0.76,2.61-0.34,1.15-0.54,1.85h0.11l0,0,1.63,1.8-1.59-1.76h0q1.6-5.42,3-10.42L189.9,94l0-.11,0.75-2.67v0q0.76-2.74,1.46-5.32l0.09-.35,0.58-2.14h0l1.51,0.06,1.32,0.05,1.62,0.09,1.17,0.07,1.77,0.13h0l-0.14-.19-1.27-.09Z" transform="translate(-45.01 -44.13)"/></g><g id="_Group_239" data-name="&lt;Group&gt;"><path id="_Path_236" data-name="&lt;Path&gt;" class="cls-1" d="M208.33,128.15l-1.72.28-1.71-2,1.71,2Z" transform="translate(-45.01 -44.13)"/></g><g id="_Group_240" data-name="&lt;Group&gt;"><path id="_Path_237" data-name="&lt;Path&gt;" class="cls-1" d="M189,108.54l0.73,0.81Z" transform="translate(-45.01 -44.13)"/></g><g id="_Group_241" data-name="&lt;Group&gt;"><path id="_Path_238" data-name="&lt;Path&gt;" class="cls-1" d="M215.44,127h0l-2.65.42Z" transform="translate(-45.01 -44.13)"/></g><g id="_Group_242" data-name="&lt;Group&gt;"><path id="_Path_239" data-name="&lt;Path&gt;" class="cls-1" d="M203.39,124.72l0.78,0.89Z" transform="translate(-45.01 -44.13)"/></g><g id="_Group_243" data-name="&lt;Group&gt;"><path id="_Path_240" data-name="&lt;Path&gt;" class="cls-1" d="M209.72,127.92l1.48-.24Z" transform="translate(-45.01 -44.13)"/></g><g id="_Group_244" data-name="&lt;Group&gt;"><path id="_Path_241" data-name="&lt;Path&gt;" class="cls-1" d="M206.48,128.56h0l-1.13-1.31Z" transform="translate(-45.01 -44.13)"/></g><g id="_Group_245" data-name="&lt;Group&gt;"><path id="_Path_242" data-name="&lt;Path&gt;" class="cls-1" d="M204,125.74c-2.48-2.85-5-5.71-7.48-8.53s-5.09-5.72-7.64-8.55c2.55,2.83,5.11,5.69,7.64,8.55S201.56,122.89,204,125.74Z" transform="translate(-45.01 -44.13)"/></g><g id="_Group_246" data-name="&lt;Group&gt;"><path id="_Path_243" data-name="&lt;Path&gt;" class="cls-1" d="M187,106.58l-0.65-.72h0Z" transform="translate(-45.01 -44.13)"/></g><g id="_Group_247" data-name="&lt;Group&gt;"><path id="_Path_244" data-name="&lt;Path&gt;" class="cls-1" d="M212.82,127.6l2.2-.35Z" transform="translate(-45.01 -44.13)"/></g><g id="_Group_248" data-name="&lt;Group&gt;"><path id="_Path_245" data-name="&lt;Path&gt;" class="cls-1" d="M206.66,128.61h0l2.3-.38Z" transform="translate(-45.01 -44.13)"/></g><g id="_Group_249" data-name="&lt;Group&gt;"><path id="_Path_246" data-name="&lt;Path&gt;" class="cls-1" d="M209.74,128.1l1.84-.3Z" transform="translate(-45.01 -44.13)"/></g><g id="_Group_250" data-name="&lt;Group&gt;"><path id="_Path_247" data-name="&lt;Path&gt;" class="cls-1" d="M182.79,106.08l-1.15.14-2.47.3-0.31,0c-4.49.57-9.09,1.21-13.77,1.93l-0.82.12-1.87.3-2,.31-1.16.19-2.67.44h-0.1l0,0.05c-0.57,1.59-1.13,3.2-1.7,4.81l-0.9,2.53-0.67,1.93q-1.63,4.66-3.26,9.41l-1.24,3.61-0.32.95q-1.12,3.3-2.24,6.63h0.1l0.07,0.08c0.51-1.52,1-3,1.53-4.53l1-3,1-3q0.95-2.76,1.89-5.5c0.75-2.18,1.51-4.35,2.26-6.49l0.36-1c0.74-2.1,1.48-4.19,2.21-6.26h0l2.8-.46,1-.17c6.4-1,12.68-1.94,18.75-2.7l0.79-.1,2.83-.34,1-.11,2.54-.29h0l0.65,0.72,1.89,2.08c2.55,2.83,5.12,5.69,7.64,8.55s5,5.68,7.48,8.53l1.31,1.51,1.13,1.31v-0.1h0.11l-1.71-2-0.73-.85-0.78-.89c-2.22-2.55-4.46-5.1-6.7-7.63s-4.6-5.17-6.91-7.73l-0.73-.81-0.95-1-1.63-1.8,0,0h-0.11l-1.38.16Z" transform="translate(-45.01 -44.13)"/></g><g id="_Group_251" data-name="&lt;Group&gt;"><path id="_Path_248" data-name="&lt;Path&gt;" class="cls-1" d="M204.15,138l-0.28,1.1Z" transform="translate(-45.01 -44.13)"/></g><g id="_Group_252" data-name="&lt;Group&gt;"><path id="_Path_249" data-name="&lt;Path&gt;" class="cls-1" d="M205.94,130.81L205.65,132Z" transform="translate(-45.01 -44.13)"/></g><g id="_Group_253" data-name="&lt;Group&gt;"><path id="_Path_250" data-name="&lt;Path&gt;" class="cls-1" d="M205,134.49l-0.26,1.07Z" transform="translate(-45.01 -44.13)"/></g><g id="_Group_254" data-name="&lt;Group&gt;"><path id="_Path_251" data-name="&lt;Path&gt;" class="cls-1" d="M201.93,146.41c-0.26,1-.53,1.92-0.8,2.88C201.4,148.33,201.67,147.37,201.93,146.41Z" transform="translate(-45.01 -44.13)"/></g><g id="_Group_255" data-name="&lt;Group&gt;"><path id="_Path_252" data-name="&lt;Path&gt;" class="cls-1" d="M200.9,150.1q-0.47,1.65-.95,3.32Q200.43,151.76,200.9,150.1Z" transform="translate(-45.01 -44.13)"/></g><g id="_Group_256" data-name="&lt;Group&gt;"><path id="_Path_253" data-name="&lt;Path&gt;" class="cls-1" d="M198.75,157.56h0l-7.54,1.67Z" transform="translate(-45.01 -44.13)"/></g><g id="_Group_257" data-name="&lt;Group&gt;"><path id="_Path_254" data-name="&lt;Path&gt;" class="cls-1" d="M199.84,153.82q-0.48,1.65-1,3.31Q199.36,155.47,199.84,153.82Z" transform="translate(-45.01 -44.13)"/></g><g id="_Group_258" data-name="&lt;Group&gt;"><path id="_Path_255" data-name="&lt;Path&gt;" class="cls-1" d="M203.09,142.08q-0.55,2.07-1.12,4.17Q202.55,144.15,203.09,142.08Z" transform="translate(-45.01 -44.13)"/></g><g id="_Group_259" data-name="&lt;Group&gt;"><path id="_Path_256" data-name="&lt;Path&gt;" class="cls-1" d="M203.09,142.81l0.06-.23Z" transform="translate(-45.01 -44.13)"/></g><g id="_Group_260" data-name="&lt;Group&gt;"><path id="_Path_257" data-name="&lt;Path&gt;" class="cls-1" d="M205,135.61l0.36-1.45Z" transform="translate(-45.01 -44.13)"/></g><g id="_Group_261" data-name="&lt;Group&gt;"><path id="_Path_258" data-name="&lt;Path&gt;" class="cls-1" d="M204,139.19l0.26-1Z" transform="translate(-45.01 -44.13)"/></g><g id="_Group_262" data-name="&lt;Group&gt;"><path id="_Path_259" data-name="&lt;Path&gt;" class="cls-1" d="M205.83,132.08c0.14-.58.28-1.16,0.42-1.74C206.11,130.91,206,131.49,205.83,132.08Z" transform="translate(-45.01 -44.13)"/></g><g id="_Group_263" data-name="&lt;Group&gt;"><path id="_Path_260" data-name="&lt;Path&gt;" class="cls-1" d="M199.83,154.5l0.18-.6Z" transform="translate(-45.01 -44.13)"/></g><g id="_Group_264" data-name="&lt;Group&gt;"><path id="_Path_261" data-name="&lt;Path&gt;" class="cls-1" d="M152.24,195l-2.44.39Z" transform="translate(-45.01 -44.13)"/></g><g id="_Group_265" data-name="&lt;Group&gt;"><path id="_Path_262" data-name="&lt;Path&gt;" class="cls-1" d="M144.3,196.19l-4.54.64Z" transform="translate(-45.01 -44.13)"/></g><g id="_Group_266" data-name="&lt;Group&gt;"><path id="_Path_263" data-name="&lt;Path&gt;" class="cls-1" d="M147.91,195.66l-1.89.29Z" transform="translate(-45.01 -44.13)"/></g><g id="_Group_267" data-name="&lt;Group&gt;"><path id="_Path_264" data-name="&lt;Path&gt;" class="cls-1" d="M156.69,194.26l-3.07.51Z" transform="translate(-45.01 -44.13)"/></g><g id="_Group_268" data-name="&lt;Group&gt;"><path id="_Path_265" data-name="&lt;Path&gt;" class="cls-1" d="M138.56,197l-1.52.2Z" transform="translate(-45.01 -44.13)"/></g><g id="_Group_269" data-name="&lt;Group&gt;"><path id="_Path_266" data-name="&lt;Path&gt;" class="cls-1" d="M134.89,197.47l-1.39.17Z" transform="translate(-45.01 -44.13)"/></g><g id="_Group_270" data-name="&lt;Group&gt;"><path id="_Path_267" data-name="&lt;Path&gt;" class="cls-1" d="M131.28,197.91l-1.35.15Z" transform="translate(-45.01 -44.13)"/></g><g id="_Group_271" data-name="&lt;Group&gt;"><path id="_Path_268" data-name="&lt;Path&gt;" class="cls-1" d="M157.45,194.13q1.28-3.61,2.57-7.29-1.29,3.68-2.57,7.29h0Z" transform="translate(-45.01 -44.13)"/></g><g id="_Group_272" data-name="&lt;Group&gt;"><path id="_Path_269" data-name="&lt;Path&gt;" class="cls-1" d="M110.68,179.13c2.32,2.66,4.66,5.33,7,8,3.19,3.61,6.44,7.23,9.66,10.77-3.22-3.55-6.47-7.17-9.66-10.78C115.33,184.45,113,181.79,110.68,179.13Z" transform="translate(-45.01 -44.13)"/></g><g id="_Group_273" data-name="&lt;Group&gt;"><path id="_Path_270" data-name="&lt;Path&gt;" class="cls-1" d="M110.11,178.47l-1.91-2.2Z" transform="translate(-45.01 -44.13)"/></g><g id="_Group_274" data-name="&lt;Group&gt;"><path id="_Path_271" data-name="&lt;Path&gt;" class="cls-1" d="M165.37,172l0.58-1.72Z" transform="translate(-45.01 -44.13)"/></g><g id="_Group_275" data-name="&lt;Group&gt;"><path id="_Path_272" data-name="&lt;Path&gt;" class="cls-1" d="M160.14,187.08l0.05-.15Z" transform="translate(-45.01 -44.13)"/></g><g id="_Group_276" data-name="&lt;Group&gt;"><path id="_Path_273" data-name="&lt;Path&gt;" class="cls-1" d="M162.71,179.69l0.2-.58Z" transform="translate(-45.01 -44.13)"/></g><g id="_Group_277" data-name="&lt;Group&gt;"><path id="_Path_274" data-name="&lt;Path&gt;" class="cls-1" d="M129.39,198.31l1.92-.22Z" transform="translate(-45.01 -44.13)"/></g><g id="_Group_278" data-name="&lt;Group&gt;"><path id="_Path_275" data-name="&lt;Path&gt;" class="cls-1" d="M149.84,195.55l0.1,0Z" transform="translate(-45.01 -44.13)"/></g><g id="_Group_279" data-name="&lt;Group&gt;"><path id="_Path_276" data-name="&lt;Path&gt;" class="cls-1" d="M141.47,196.78l0.82-.11Z" transform="translate(-45.01 -44.13)"/></g><g id="_Group_280" data-name="&lt;Group&gt;"><path id="_Path_277" data-name="&lt;Path&gt;" class="cls-1" d="M132.9,197.9l2-.25Z" transform="translate(-45.01 -44.13)"/></g><g id="_Group_281" data-name="&lt;Group&gt;"><path id="_Path_278" data-name="&lt;Path&gt;" class="cls-1" d="M136.85,197.4l1.74-.22Z" transform="translate(-45.01 -44.13)"/></g><g id="_Group_282" data-name="&lt;Group&gt;"><path id="_Path_279" data-name="&lt;Path&gt;" class="cls-1" d="M146.33,139.85l-0.07-.08h-0.1c-10.48,2.16-20.86,4.39-30.84,6.64h-0.11l0,0.05q-0.56,1.88-1.1,3.74v0c-1.44,5-2.79,9.91-4,14.72l-0.1.38q-0.42,1.61-.82,3.2L108.79,170c-0.17.69-.35,1.39-0.51,2.08s-0.32,1.35-.48,2l-0.35,1.45h0.11l0,0,0,0c0.18-.77.37-1.55,0.56-2.33l0.27-1.13c0.2-.83.41-1.67,0.62-2.5l0.26-1q0.42-1.66.85-3.33l0.06-.25q0.93-3.61,1.94-7.29l0.12-.45q0.44-1.62.9-3.24l0.31-1.08c0.25-.88.5-1.76,0.75-2.64l0.39-1.32c0.23-.8.46-1.59,0.7-2.4h0l2.75-.61c7.79-1.74,15.78-3.46,23.87-5.15l4.22-.88h0l21.56,24.34,0,0,0,0h0.1l-21.56-24.34h0Z" transform="translate(-45.01 -44.13)"/></g><g id="_Group_283" data-name="&lt;Group&gt;"><path id="_Path_280" data-name="&lt;Path&gt;" class="cls-1" d="M211.2,127.68l-1.48.24-1.39.23-1.72.28h-0.11v0.1h0c-0.17.75-.36,1.5-0.54,2.25L205.65,132c-0.2.82-.4,1.64-0.61,2.47l-0.26,1.07c-0.21.82-.42,1.66-0.63,2.49l-0.28,1.1q-0.38,1.46-.77,2.94-0.55,2.07-1.12,4.17l0,0.17c-0.26,1-.53,1.92-0.8,2.88l-0.23.81q-0.47,1.65-.95,3.32l-0.11.39q-0.48,1.65-1,3.31l-0.13.43h0.11l0,0,1,1.16-1-1.12q0.46-1.56.91-3.12l0.18-.6q1.62-5.61,3.08-11.08l0.06-.23q0.45-1.7.89-3.39l0.26-1c0.22-.85.44-1.7,0.65-2.54l0.36-1.45c0.17-.7.35-1.39,0.51-2.08s0.28-1.16.42-1.74l0.41-1.72h0l2.3-.38,0.79-.13,1.84-.3,1.23-.2,2.2-.35,0.42-.07c0-.06,0-0.12,0-0.18l-2.65.42Z" transform="translate(-45.01 -44.13)"/></g><g id="_Group_284" data-name="&lt;Group&gt;"><path id="_Path_281" data-name="&lt;Path&gt;" class="cls-1" d="M207.35,167.77h0q-3-3.54-6.07-7.13Q204.35,164.23,207.35,167.77Z" transform="translate(-45.01 -44.13)"/></g><g id="_Group_285" data-name="&lt;Group&gt;"><path id="_Path_282" data-name="&lt;Path&gt;" class="cls-1" d="M168.61,206.4h0q-4.11-4.43-8.29-9Q164.5,202,168.61,206.4Z" transform="translate(-45.01 -44.13)"/></g><g id="_Group_286" data-name="&lt;Group&gt;"><path id="_Path_283" data-name="&lt;Path&gt;" class="cls-1" d="M158.79,195.74l1.31,1.43Z" transform="translate(-45.01 -44.13)"/></g><g id="_Group_287" data-name="&lt;Group&gt;"><path id="_Path_284" data-name="&lt;Path&gt;" class="cls-1" d="M198.89,157.58l0,0h-0.11l-7.54,1.67c-7.62,1.68-15.44,3.34-23.31,5h-0.1l0,0,0,0c-2.56,7.63-5.15,15.18-7.73,22.53q-1.29,3.68-2.57,7.29h0.1l0,0q5.64,6.19,11.2,12.16h0q-5.52-5.95-11.16-12.12,1.25-3.52,2.51-7.11l0.05-.15q1.26-3.59,2.52-7.24l0.2-.58q1.23-3.56,2.46-7.16l0.58-1.72q1-2.93,2-5.86c10.49-2.16,20.87-4.39,30.85-6.64l2.49,2.91q3.07,3.58,6.07,7.13l0.09-.18q-3.73-4.4-7.56-8.86Z" transform="translate(-45.01 -44.13)"/></g><g id="_Group_288" data-name="&lt;Group&gt;"><path id="_Path_285" data-name="&lt;Path&gt;" class="cls-1" d="M123.34,214h0q1.48-5.36,3.2-11.27Q124.83,208.6,123.34,214Z" transform="translate(-45.01 -44.13)"/></g><g id="_Group_289" data-name="&lt;Group&gt;"><path id="_Path_286" data-name="&lt;Path&gt;" class="cls-1" d="M127.23,200.31l-0.35,1.19Z" transform="translate(-45.01 -44.13)"/></g><g id="_Group_290" data-name="&lt;Group&gt;"><path id="_Path_287" data-name="&lt;Path&gt;" class="cls-1" d="M126.51,202.14q-1.17,4-2.23,7.8Q125.34,206.16,126.51,202.14Z" transform="translate(-45.01 -44.13)"/></g><g id="_Group_291" data-name="&lt;Group&gt;"><path id="_Path_288" data-name="&lt;Path&gt;" class="cls-1" d="M124.21,210.18l-0.56,2Z" transform="translate(-45.01 -44.13)"/></g><g id="_Group_292" data-name="&lt;Group&gt;"><path id="_Path_289" data-name="&lt;Path&gt;" class="cls-1" d="M123.16,214h0l0.27-1Z" transform="translate(-45.01 -44.13)"/></g><g id="_Group_293" data-name="&lt;Group&gt;"><path id="_Path_290" data-name="&lt;Path&gt;" class="cls-1" d="M127.2,199.77l-0.49,1.69Z" transform="translate(-45.01 -44.13)"/></g><g id="_Group_294" data-name="&lt;Group&gt;"><path id="_Path_291" data-name="&lt;Path&gt;" class="cls-1" d="M157.59,194.15l0,0h-0.1l-0.77.13-3.07.51-1.38.22-2.44.39-1.89.29-1.89.29-1.72.25-4.54.64-1.19.16-1.52.2-2.14.28-1.39.17-2.23.27-1.35.15-2.19.25,0,0,0,0v0l0,0.06,1.62-.18,1.92-.22,1.59-.19,2-.25,1.92-.25,1.74-.22,2.88-.4,0.82-.11q3.74-.52,7.55-1.12l0.1,0q3.74-.58,7.54-1.22l1.3,1.43,1.31,1.43,0.22,0.24q4.18,4.56,8.29,9l0.17-.08Q163.25,200.35,157.59,194.15Z" transform="translate(-45.01 -44.13)"/></g><g id="_Group_295" data-name="&lt;Group&gt;"><path id="_Path_292" data-name="&lt;Path&gt;" class="cls-1" d="M65.28,158.77l-0.07,0Z" transform="translate(-45.01 -44.13)"/></g><g id="_Group_296" data-name="&lt;Group&gt;"><path id="_Path_293" data-name="&lt;Path&gt;" class="cls-1" d="M56.33,161.38l-0.19.06Z" transform="translate(-45.01 -44.13)"/></g><g id="_Group_297" data-name="&lt;Group&gt;"><path id="_Path_294" data-name="&lt;Path&gt;" class="cls-1" d="M65.35,158.94q-4.07,1.14-7.5,2.17Q61.27,160.08,65.35,158.94Z" transform="translate(-45.01 -44.13)"/></g><g id="_Group_298" data-name="&lt;Group&gt;"><path id="_Path_295" data-name="&lt;Path&gt;" class="cls-1" d="M66,158.77l1.43-.4h0Z" transform="translate(-45.01 -44.13)"/></g><g id="_Group_299" data-name="&lt;Group&gt;"><path id="_Path_296" data-name="&lt;Path&gt;" class="cls-1" d="M57.39,161.25l-1.21.37Z" transform="translate(-45.01 -44.13)"/></g><g id="_Group_300" data-name="&lt;Group&gt;"><path id="_Path_297" data-name="&lt;Path&gt;" class="cls-1" d="M53.74,112.15l1-.45,1.29-.58h0l0.83,1.15,0.86,1.2,0.88,1.2,0.88,1.21,1,1.35,0.81,1.11,1,1.38,0.82,1.11,1.22,1.63L65,123.35l1.73,2.29,2,2.56,0.19,0.25,1.49,1.94,0.5,0.65c-0.11.55-.21,1.09-0.31,1.63s-0.24,1.26-.36,1.88-0.17,1-.26,1.51c-0.12.66-.24,1.33-0.35,2-0.07.44-.14,0.88-0.21,1.32q-0.33,2.09-.61,4.16c-0.06.47-.14,0.94-0.2,1.41s-0.14,1.19-.22,1.79-0.13,1.07-.19,1.6-0.11,1.05-.16,1.58-0.13,1.18-.18,1.77-0.08,1-.13,1.49-0.11,1.21-.15,1.82-0.06.93-.09,1.39-0.09,1.22-.12,1.83l-0.16,0,0.22-.06,0.06,0,0,0,0,0h0c0-.52.07-1.05,0.1-1.58s0.07-1.1.11-1.66,0.1-1.15.15-1.73,0.08-1,.13-1.57,0.11-1.11.17-1.66q0.36-3.5.86-7.09c0.07-.47.13-0.93,0.19-1.4s0.18-1.17.27-1.76,0.17-1.13.27-1.71,0.19-1.09.28-1.64,0.21-1.24.32-1.86,0.21-1.1.31-1.66,0.23-1.23.35-1.85h0V131l0,0,0-.05h0l-1.11-1.45L69,128.35l-1.32-1.74-0.64-.84-1-1.28-1-1.28-0.22-.3c-3.09-4.12-6-8.12-8.78-12l0-.06-0.07,0,0,0-2.08.94-0.21.09-1.39.64-0.06.23,0.52-.24Z" transform="translate(-45.01 -44.13)"/></g><g id="_Group_301" data-name="&lt;Group&gt;"><path id="_Path_298" data-name="&lt;Path&gt;" class="cls-1" d="M83.79,187.6q0.05-1.29.13-2.62Q83.85,186.3,83.79,187.6Z" transform="translate(-45.01 -44.13)"/></g><g id="_Group_302" data-name="&lt;Group&gt;"><path id="_Path_299" data-name="&lt;Path&gt;" class="cls-1" d="M83.68,192.82c0-.56,0-1.12,0-1.69C83.69,191.7,83.68,192.27,83.68,192.82Z" transform="translate(-45.01 -44.13)"/></g><g id="_Group_303" data-name="&lt;Group&gt;"><path id="_Path_300" data-name="&lt;Path&gt;" class="cls-1" d="M83.93,184.87q0.08-1.38.18-2.79Q84,183.49,83.93,184.87Z" transform="translate(-45.01 -44.13)"/></g><g id="_Group_304" data-name="&lt;Group&gt;"><path id="_Path_301" data-name="&lt;Path&gt;" class="cls-1" d="M83.7,195.33c0-.5,0-1,0-1.52C83.69,194.31,83.69,194.83,83.7,195.33Z" transform="translate(-45.01 -44.13)"/></g><g id="_Group_305" data-name="&lt;Group&gt;"><path id="_Path_302" data-name="&lt;Path&gt;" class="cls-1" d="M83.76,197.75c0-.46,0-0.93,0-1.4C83.74,196.82,83.75,197.29,83.76,197.75Z" transform="translate(-45.01 -44.13)"/></g><g id="_Group_306" data-name="&lt;Group&gt;"><path id="_Path_303" data-name="&lt;Path&gt;" class="cls-1" d="M83.71,190.25c0-.67,0-1.35.06-2C83.75,188.9,83.73,189.58,83.71,190.25Z" transform="translate(-45.01 -44.13)"/></g><g id="_Group_307" data-name="&lt;Group&gt;"><path id="_Path_304" data-name="&lt;Path&gt;" class="cls-1" d="M84.18,183.72c0-.54.07-1.07,0.11-1.61C84.25,182.66,84.22,183.19,84.18,183.72Z" transform="translate(-45.01 -44.13)"/></g><g id="_Group_308" data-name="&lt;Group&gt;"><path id="_Path_305" data-name="&lt;Path&gt;" class="cls-1" d="M83.88,195.35q0-1.23,0-2.5Q83.86,194.12,83.88,195.35Z" transform="translate(-45.01 -44.13)"/></g><g id="_Group_309" data-name="&lt;Group&gt;"><path id="_Path_306" data-name="&lt;Path&gt;" class="cls-1" d="M83.92,189.47c0-.61,0-1.22.06-1.85C84,188.25,83.93,188.86,83.92,189.47Z" transform="translate(-45.01 -44.13)"/></g><g id="_Group_310" data-name="&lt;Group&gt;"><path id="_Path_307" data-name="&lt;Path&gt;" class="cls-1" d="M84,186.6c0-.56,0-1.13.08-1.7C84.07,185.48,84,186,84,186.6Z" transform="translate(-45.01 -44.13)"/></g><g id="_Group_311" data-name="&lt;Group&gt;"><path id="_Path_308" data-name="&lt;Path&gt;" class="cls-1" d="M83.86,192.58c0-.76,0-1.53,0-2.31C83.88,191.05,83.87,191.82,83.86,192.58Z" transform="translate(-45.01 -44.13)"/></g><g id="_Group_312" data-name="&lt;Group&gt;"><path id="_Path_309" data-name="&lt;Path&gt;" class="cls-1" d="M83.95,197.78c0-.54,0-1.09,0-1.64C83.91,196.69,83.93,197.24,83.95,197.78Z" transform="translate(-45.01 -44.13)"/></g><g id="_Group_313" data-name="&lt;Group&gt;"><path id="_Path_310" data-name="&lt;Path&gt;" class="cls-1" d="M84.52,179.3c0,0.52-.08,1-0.12,1.55,0-.51.08-1,0.13-1.55h0Z" transform="translate(-45.01 -44.13)"/></g><g id="_Group_314" data-name="&lt;Group&gt;"><path id="_Path_311" data-name="&lt;Path&gt;" class="cls-1" d="M57.39,161.25l0.46-.14q3.42-1,7.5-2.17l0.61-.17,1.43-.4h0l1.07,1.36,0.94,1.19,1.05,1.33,1,1.26,0.91,1.13,1.19,1.48,0.32,0.4,1.79,2.21,0.57,0.71L79,172.84,80,174l0.81,1,1.37,1.65,1,1.25,1.15,1.38c-0.05.61-.1,1.21-0.15,1.81,0-.61.09-1.23,0.15-1.85v-0.07h0.12l-1.14-1.36-1.05-1.26-1-1.26-1.15-1.39-0.55-.66c-4.15-5-8.18-10-12-14.94l0,0,0,0-0.06,0-0.22.06-1.91.53-0.07,0c-3.27.91-6.24,1.78-8.87,2.59l-0.19.06-0.54.17,0.06,0.17,0.51-.16Z" transform="translate(-45.01 -44.13)"/></g><g id="_Group_315" data-name="&lt;Group&gt;"><path id="_Path_312" data-name="&lt;Path&gt;" class="cls-1" d="M126.88,201.51l0.35-1.19,0.53-1.82,0-.06v0l0,0,0,0-0.4-.44c-3.22-3.55-6.46-7.17-9.66-10.77-2.34-2.64-4.68-5.31-7-8l-0.57-.66-1.91-2.2-0.57-.66h0l0,0,0,0h-0.11l-0.88.15-2.23.37-0.53.09-2.53.41-0.59.1-6,.94-2.18.34L92,178l-2.27.34-0.24,0-2.44.36-1.47.21-1.12.16H84.35v0.07c-0.06.62-.1,1.23-0.15,1.85,0,0.34-.06.69-0.08,1q-0.1,1.41-.18,2.79V185q-0.07,1.32-.13,2.62c0,0.21,0,.41,0,0.62,0,0.68,0,1.36-.06,2,0,0.3,0,.59,0,0.89,0,0.57,0,1.13,0,1.69,0,0.33,0,.65,0,1,0,0.51,0,1,0,1.52,0,0.35,0,.68,0,1s0,0.94,0,1.4c0,0.24,0,.47,0,0.71L84,198.59c0-.27,0-0.54,0-0.82,0-.54,0-1.09,0-1.64,0-.26,0-0.52,0-0.79q0-1.23,0-2.5c0-.09,0-0.18,0-0.26,0-.76,0-1.53,0-2.31,0-.26,0-0.54,0-0.8,0-.61,0-1.22.06-1.85,0-.34,0-0.68,0-1,0-.56,0-1.13.08-1.7,0-.39.05-0.79,0.08-1.18s0.07-1.07.11-1.61,0.07-.85.1-1.27,0.08-1,.12-1.55h0l1.71-.24,0.86-.12,1.55-.23,1.15-.17,1.58-.24,1.19-.18,2.48-.38,0.36-.06,2.58-.4,0.5-.08,2.85-.46,0.61-.1,2.44-.4,2.43-.4,0.67-.11c3.3,3.82,6.68,7.68,10,11.48s6.71,7.53,10.06,11.21l-0.39,1.34-0.49,1.69-0.2.68q-1.17,4-2.23,7.8l-0.07.24-0.56,2-0.22.79-0.27,1,0.18,0q1.48-5.36,3.2-11.27Z" transform="translate(-45.01 -44.13)"/></g></g><g id="_Group_316" data-name="&lt;Group&gt;"><path id="_Compound_Path_" data-name="&lt;Compound Path&gt;" class="cls-1" d="M132.9,219.91A87.89,87.89,0,1,1,220.79,132,88,88,0,0,1,132.9,219.91Zm0-167.49A79.6,79.6,0,1,0,212.5,132,79.69,79.69,0,0,0,132.9,52.42Z" transform="translate(-45.01 -44.13)"/></g></g></g></svg>