<svg id="football" xmlns="http://www.w3.org/2000/svg" viewBox="0 0 175.78 175.78"><defs><style>.cls-1{fill:#231f20;}.cls-2{fill:#fff;}</style></defs><title>logo</title><g id="_Group_2" data-name=" Group 2"><g id="_Group_316" data-name=" Group 316"><path id="_Compound_Path_" data-name=" Compound Path " class="cls-1" d="M87.89,175.78a87.89,87.89,0,1,1,87.89-87.91A87.89,87.89,0,0,1,87.89,175.78Zm0-167.49a79.6,79.6,0,1,0,79.6,79.6v0A79.69,79.69,0,0,0,87.89,8.29Z" transform="translate(0 0)"/></g><g id="_Group_3" data-name=" Group 3"><g id="_Group_4" data-name=" Group 4"><path id="_Path_" data-name=" Path " class="cls-1" d="M21,35.75L22.9,35l0.86-.34L26,33.81l0.5-.18q5.43-2,11-3.81l1.19-.41,1.82-.57,1.41-.45,0.87-1.93,0.51-1.13c2.35-5.1,4.84-10.2,7.45-15L51,9.81a84.85,84.85,0,0,0-32.58,27l1.4-.57Z" transform="translate(0 0)"/></g><g id="_Group_5" data-name=" Group 5"><path id="_Path_2" data-name=" Path 2" class="cls-2" d="M6.32,66l2.12-1c0.11-.51.24-1,0.36-1.54s0.29-1.24.44-1.87,0.28-1,.41-1.6,0.31-1.21.46-1.83,0.35-1.3.53-1.94,0.27-1,.41-1.5q1-3.45,2-6.89l0.31-.95q0.4-1.25.83-2.51c0.15-.47.33-0.94,0.49-1.4l0.54-1.57A84.05,84.05,0,0,0,4.66,66.75l1.42-.65Z" transform="translate(0 0)"/></g><g id="_Group_6" data-name=" Group 6"><path id="_Path_3" data-name=" Path 3" class="cls-1" d="M86.88,3.77l2,1.87,0.27,0.24q4.56,4.3,9.33,9l1,1,1.3,1.31,1.71-.11,1.93-.13,1.8-.09,1.82-.09q3.6-.15,7.14-0.18h7.92l2.37,0.09,1.18,0.06,2.11,0.22,0.07-.17,0.75-1.84,0.48-1.14A84.49,84.49,0,0,0,84.89,1.87l1,0.93Z" transform="translate(0 0)"/></g><g id="_Group_7" data-name=" Group 7"><path id="_Path_4" data-name=" Path 4" class="cls-2" d="M50.33,11.51q-1,2-2,4l-0.4.79-0.95,1.87-0.58,1.18L45.57,21,44.9,22.41l-0.66,1.43-0.76,1.59L42.9,26.71l-0.79,1.78L59.27,47.87l2-.51,1.74-.44,1.77-.43,2-.5,1.26-.29,2.59-.59h0.06Q76,44,81.24,42.94l1-.2,2.35-.44L86.12,42l2.18-.39,1.64-.29,0.45-1,0.88-2.11,0.83-2L92.6,35l1-2.29,0.92-2.11,0.76-1.74L96,27.28l0.64-1.43,0.78-1.69L98,22.93l0.72-1.55,0.62-1.33,0.55-1.15,0.78-1.61-1-1-1.38-1.36-0.84-.82L95.9,12.61l-0.54-.54Q89.85,6.73,84.62,1.87A84.21,84.21,0,0,0,51.3,9.69l-0.39.71Z" transform="translate(0 0)"/></g><g id="_Group_8" data-name=" Group 8"><path id="_Path_5" data-name=" Path 5" class="cls-2" d="M14.77,43.47l-0.35,1q-0.56,1.62-1.08,3.27l-0.05.16q-1.65,5.17-3,10.34l-0.2.83c-0.22.87-.45,1.73-0.66,2.6-0.12.51-.23,1-0.36,1.52s-0.3,1.25-.44,1.89c2.79,3.91,5.79,8,8.93,12.17l0.22,0.31,1,1.31,1,1.31L20.47,81l1.24,1.75,0.88,1.14,1.16,1.48,2-.69,0.85-.29,2-.65,1-.33,1.82-.58,1.25-.4,1.27-.4q5.58-1.73,11.5-3.43h0.06L48.06,78,49,77.73c0.2-.7.43-1.41,0.64-2.1L50.08,74c1.54-5,3.2-10,5-15l0.08-.22,1.25-3.49,0.43-1.14c0.32-.85.62-1.7,0.95-2.55L58.38,50l0.76-2L42,28.59l-1.78.55-1.43.45-1.58.51-1.63.53-1.66.56-1.53.52-2.5.9-0.66.23q-4.75,1.66-9.34,3.54l-0.95.39-0.7.29q-1.3,1.81-2.49,3.66L15.6,41Z" transform="translate(0 0)"/></g><g id="_Group_9" data-name=" Group 9"><path id="_Path_6" data-name=" Path 6" class="cls-2" d="M129.51,15.59L128.92,17l1,1,1.37,1.38,1.35,1.37,1,1c4.74,4.83,9.56,9.85,14.36,15l2,0.08h0.88L153.75,37h0.41l1.3,0.09A85.4,85.4,0,0,0,150,30.3a84.36,84.36,0,0,0-19.77-16.44L129.78,15Z" transform="translate(0 0)"/></g><g id="_Group_10" data-name=" Group 10"><path id="_Path_7" data-name=" Path 7" class="cls-2" d="M145.43,34.29L145.13,34c-5.51-5.82-11-11.48-16.32-16.86L127.35,17l-1.85-.1h-0.92q-5.69-.23-11.68-0.11h-1.19l-1.59.05-2,.07-1.46.07-2.15.11-1.69.11-1.94.13-1,2.14-0.3.62-1.13,2.42-0.2.45q-2,4.34-4.08,9l-0.43,1-0.91,2.1-0.65,1.45-0.69,1.64-0.67,1.6-0.65,1.57,0.48,0.51,2,2.19,1.45,1.59,1.09,1.17,2,2.18,0.56,0.6L99.15,51q4.44,4.77,8.94,9.69l0.32,0.3,1.27,1.4,1.38,1.51,2.72-.45,1.18-.19,2-.32,1.91-.31,0.84-.12c4.77-.73,9.46-1.39,14-2h0.32l2.52-.31,1.17-.14,2.2-.25,1.41-.16L142,57.82l0.35-1.17L143.09,54l0.11-.38q0.87-3,1.68-5.87,1.14-4.08,2.17-7.83l0.11-.43,0.44-1.62,0.27-1-1.08-1.14Z" transform="translate(0 0)"/></g><g id="_Group_11" data-name=" Group 11"><path id="_Path_8" data-name=" Path 8" class="cls-1" d="M100.42,94.47l2.28-6.76,0.33-1,1.31-3.68q1.66-4.84,3.32-9.6l0.68-2,0.92-2.58c0.57-1.62,1.14-3.25,1.71-4.85l-5.3-5.79-0.55-.6-5.78-6.25-1.55-1.67-1.09-1.17L95.15,47l-0.61-.65-2-2.11-0.1-.11L90.05,41.5,87.51,42l-1.27.22-3.65.68H82.39c-5.1,1-10.31,2-15.44,3.28l-0.72.17-3.06.74-2.32.58L59.37,48l-0.46,1.18L58,51.67l-0.55,1.19c-0.32.84-.63,1.68-0.94,2.53l-0.06.17q-2.63,7.19-5,14.47l-0.08.23L50.51,73l-0.33,1c-0.2.65-.4,1.31-0.59,2s-0.36,1.18-.54,1.77l2.28,2.74,0.07,0.08,1.89,2.25,0.54,0.64,3.61,4.28q5.61,6.65,11.47,13.46C79.13,99,89.72,96.72,100.42,94.47Z" transform="translate(0 0)"/></g><g id="_Group_12" data-name=" Group 12"><path id="_Path_9" data-name=" Path 9" class="cls-2" d="M40.14,134.21l2.49-.37h0.24l2.31-.4,0.52-.08,2.22-.35,6.12-1,0.6-.1,2.58-.42,0.54-.09,2.27-.38,0.9-.15,0.36-1.48,0.49-2,0.52-2.12,0.37-1.48q0.41-1.62.84-3.26l0.1-.39c1.26-4.91,2.64-9.92,4.08-15h0q0.54-1.88,1.1-3.76l-4.44-5.18-0.67-.8L62,93.4l-0.84-1-4.38-5.16L54.5,84.52l-0.8-.94-1.09-1.31L51.3,80.72l-1.65-2-0.71-.86-2.13.6-1.17.33-3,.87-0.3.08q-4.91,1.43-9.57,2.9l-0.19.06-2.87.92-0.81.27-2.2.72-0.95.32-2,.65c-0.12.63-.23,1.25-0.36,1.89s-0.21,1.13-.32,1.69-0.22,1.26-.33,1.9-0.19,1.11-.29,1.67-0.18,1.16-.28,1.74S22,95.69,22,96.28s-0.13.95-.19,1.43q-0.51,3.66-.88,7.23c-0.06.56-.12,1.13-0.17,1.69s-0.09,1-.13,1.6-0.1,1.18-.15,1.76-0.07,1.12-.11,1.69-0.07,1.08-.1,1.61c3.93,5,8,10.1,12.24,15.24L33,129.22l1.17,1.42,1,1.29,1.07,1.29,1.16,1.39,1.14-.16Z" transform="translate(0 0)"/></g><g id="_Group_13" data-name=" Group 13"><path id="_Path_10" data-name=" Path 10" class="cls-1" d="M153.73,37.19l-1.19-.07L150.88,37,149.53,37,148,36.91,147.4,39.1l-0.09.36q-0.71,2.63-1.49,5.43h0l-0.76,2.72v0.11l-0.39,1.37q-1.45,5.1-3.06,10.63l1.62,1.8,1,1,0.74,0.83c2.36,2.61,4.71,5.25,7,7.88s4.57,5.18,6.83,7.78l0.8,0.91,0.74,0.87,1.74,2,1.75-.29,1.42-.23,1.51-.24,1.62-.27,2.7-.43a84,84,0,0,0-15.5-44.1h0Z" transform="translate(0 0)"/></g><g id="_Group_14" data-name=" Group 14"><path id="_Path_11" data-name=" Path 11" class="cls-2" d="M159.41,80.14c-2.53-2.91-5.1-5.81-7.63-8.7s-5.19-5.83-7.79-8.72l-1.92-2.12-0.66-.73-2.59.3-1,.11-2.89.35-0.81.1c-6.19.78-12.6,1.7-19.12,2.75l-1,.17-2.87.47c-0.75,2.11-1.5,4.24-2.25,6.38l-0.37,1q-1.15,3.28-2.31,6.62-1,2.78-1.93,5.61l-1,3.06-1,3.06-1.56,4.62,22,24.82c8-1.65,16-3.35,23.77-5.1l7.69-1.7,0.13-.44q0.5-1.69,1-3.38l0.11-.4,1-3.39,0.23-.83c0.28-1,.55-2,0.82-2.94V101q0.58-2.14,1.14-4.25,0.4-1.5.79-3l0.29-1.12c0.21-.85.44-1.69,0.64-2.54L160.5,89c0.21-.84.42-1.68,0.62-2.52l0.3-1.23c0.18-.76.37-1.54,0.55-2.29l-1.15-1.34Z" transform="translate(0 0)"/></g><g id="_Group_15" data-name=" Group 15"><path id="_Path_12" data-name=" Path 12" class="cls-2" d="M96.17,95.55C87.92,97.27,79.76,99,71.83,100.8l-2.8.62c-0.24.82-.48,1.63-0.71,2.45l-0.4,1.35c-0.27.9-.51,1.8-0.76,2.69L66.81,109q-0.47,1.66-.92,3.3l-0.12.46q-1,3.75-2,7.44l-0.06.25-0.87,3.4-0.27,1c-0.21.86-.43,1.7-0.63,2.55l-0.28,1.15c-0.19.8-.39,1.59-0.57,2.38l0.58,0.67,1.95,2.24,0.58,0.67q3.55,4.07,7.14,8.16c3.25,3.68,6.57,7.37,9.85,11l0.41,0.45,2.23-.25,1.38-.15,2.27-.28,1.42-.17,2.18-.29,1.55-.2,1.21-.16,4.63-.65,1.75-.25,1.93-.3,1.93-.3,2.49-.4,1.41-.22,3.13-.52,0.79-.13q1.31-3.68,2.62-7.44c2.63-7.51,5.27-15.21,7.88-23l-22-24.72Z" transform="translate(0 0)"/></g><g id="_Group_16" data-name=" Group 16"><path id="_Path_13" data-name=" Path 13" class="cls-2" d="M168.4,82l-1.25.2-1.88.31-0.81.13-2.35.39-0.42,1.75c-0.14.59-.28,1.18-0.43,1.77s-0.35,1.42-.52,2.12l-0.33,1.49c-0.21.86-.44,1.72-0.66,2.59l-0.27,1-0.91,3.46-0.06.23q-1.49,5.58-3.14,11.3l-0.18.61-0.93,3.18,1,1.14q3.91,4.55,7.71,9a84.65,84.65,0,0,0,8.16-41.21l-0.43.07Z" transform="translate(0 0)"/></g><g id="_Group_17" data-name=" Group 17"><path id="_Path_14" data-name=" Path 14" class="cls-1" d="M154.09,112.78c-10.2,2.28-20.77,4.56-31.46,6.77l-2,6-0.58,1.8q-1.25,3.67-2.51,7.3l-0.2.59q-1.29,3.71-2.57,7.38l-0.05.15q-1.29,3.66-2.56,7.25,5.74,6.28,11.38,12.36A84.77,84.77,0,0,0,162.83,123q-3.06-3.61-6.19-7.27Z" transform="translate(0 0)"/></g><g id="_Group_18" data-name=" Group 18"><path id="_Path_15" data-name=" Path 15" class="cls-2" d="M114.63,153l-1.34-1.46L112,150.07q-3.88.65-7.69,1.24h-0.1q-3.89.6-7.7,1.14l-0.84.11L92.7,153l-1.77.22-2,.25-2,.25-1.62.19-2,.22-1.65.18-0.54,1.86-0.36,1.21-0.36,1.22q-1.74,6-3.26,11.49a84.41,84.41,0,0,0,46.17-7.72q-4.19-4.52-8.46-9.18Z" transform="translate(0 0)"/></g><g id="_Group_19" data-name=" Group 19"><path id="_Path_16" data-name=" Path 16" class="cls-1" d="M8.8,116.49q4-1.24,9-2.64h0.07l1.95-.54H20c0-.61.08-1.24,0.12-1.87L20.24,110c0-.48.1-1.23,0.15-1.86s0.08-1,.13-1.52l0.18-1.81c0.06-.6.1-1,0.16-1.61s0.13-1.09.19-1.63,0.14-1.21.22-1.83,0.13-1,.2-1.44q0.29-2.11.62-4.24c0.07-.45.13-0.9,0.21-1.35,0.11-.67.23-1.36,0.36-2,0.09-.51.17-1,0.27-1.54s0.24-1.29.37-1.92,0.2-1.1.32-1.66l-0.51-.66-1.52-2-0.19-.25-2-2.61L17.64,77.7,17,76.8l-1.24-1.66L14.89,74l-1-1.41L13,71.47l-1-1.38-0.9-1.23-0.9-1.22L9.35,66.41,8.46,65.23l-1.32.59-1,.46-1,.46L4.57,67A84.65,84.65,0,0,0,8,116.71l0.55-.17Z" transform="translate(0 0)"/></g><g id="_Group_20" data-name=" Group 20"><path id="_Path_17" data-name=" Path 17" class="cls-2" d="M36.81,154.31v-8.37c0-.68,0-1.38.06-2v-0.63q0.05-1.32.13-2.67v-0.1q0.08-1.41.18-2.85c0-.35.06-0.69,0.08-1,0-.61.09-1.22,0.15-1.85l-1.17-1.41-1-1.27-1.5-1.71-0.8-1-1-1.18-2.85-3.48L28.49,124l-1.83-2.25-0.33-.41-1.21-1.51-0.93-1.15-1-1.29L22.11,116l-1-1.21-1.09-1.39-1.46.41L18,114q-4.15,1.16-7.65,2.21l-0.47.14-1.23.38-0.52.16A84.8,84.8,0,0,0,36.81,154.31Z" transform="translate(0 0)"/></g><g id="_Group_21" data-name=" Group 21"><path id="_Path_18" data-name=" Path 18" class="cls-1" d="M77.46,168.29l0.57-2L78.1,166q1.08-3.86,2.27-8l0.2-.69,0.5-1.72,0.4-1.37c-3.42-3.76-6.86-7.61-10.26-11.43S64.33,135,61,131.12l-0.68.11-2.48.41-2.49.41-0.62.1-2.91.47-0.51.08-2.63.41-0.37.06-2.53.39-1.21.18L43,134l-1.17.17-1.58.23-0.88.12-1.74.24c0,0.53-.08,1-0.13,1.58s-0.07.87-.1,1.3-0.07,1.09-.11,1.64-0.05.81-.08,1.2c0,0.58-.06,1.16-0.08,1.73v1c0,0.63,0,1.25-.06,1.89v9.3A84.15,84.15,0,0,0,77,170.16l0.28-1Z" transform="translate(0 0)"/></g><g id="_Group_22" data-name=" Group 22"><path id="_Path_19" data-name=" Path 19" class="cls-1" d="M23.76,34.66L22.89,35Z" transform="translate(0 0)"/></g><g id="_Group_23" data-name=" Group 23"><path id="_Path_20" data-name=" Path 20" class="cls-1" d="M21,35.75l-1.16.46Z" transform="translate(0 0)"/></g><g id="_Group_24" data-name=" Group 24"><path id="_Path_21" data-name=" Path 21" class="cls-1" d="M26.51,33.63l-0.5.18Z" transform="translate(0 0)"/></g><g id="_Group_25" data-name=" Group 25"><path id="_Path_22" data-name=" Path 22" class="cls-1" d="M43.3,25.33c2.35-5.1,4.84-10.2,7.45-15C48.14,15.19,45.65,20.23,43.3,25.33Z" transform="translate(0 0)"/></g><g id="_Group_26" data-name=" Group 26"><path id="_Path_23" data-name=" Path 23" class="cls-1" d="M41.92,28.39l-1.41.44,1.41-.44,0.87-1.93C42.49,27.14,42.21,27.79,41.92,28.39Z" transform="translate(0 0)"/></g><g id="_Group_27" data-name=" Group 27"><path id="_Path_24" data-name=" Path 24" class="cls-1" d="M38.7,29.41l-1.17.38Z" transform="translate(0 0)"/></g><g id="_Group_28" data-name=" Group 28"><path id="_Path_25" data-name=" Path 25" class="cls-1" d="M44.9,22.36L45.57,21Z" transform="translate(0 0)"/></g><g id="_Group_29" data-name=" Group 29"><path id="_Path_26" data-name=" Path 26" class="cls-1" d="M47.85,16.31l0.39-.79Z" transform="translate(0 0)"/></g><g id="_Group_30" data-name=" Group 30"><path id="_Path_27" data-name=" Path 27" class="cls-1" d="M46.36,19.32l0.58-1.13Z" transform="translate(0 0)"/></g><g id="_Group_31" data-name=" Group 31"><path id="_Path_28" data-name=" Path 28" class="cls-1" d="M43.47,25.43l0.76-1.64Z" transform="translate(0 0)"/></g><g id="_Group_32" data-name=" Group 32"><path id="_Path_29" data-name=" Path 29" class="cls-1" d="M50.33,11.51l0.57-1.09Z" transform="translate(0 0)"/></g><g id="_Group_33" data-name=" Group 33"><path id="_Path_30" data-name=" Path 30" class="cls-1" d="M42.12,28.49h0l0.81-1.78Z" transform="translate(0 0)"/></g><g id="_Group_34" data-name=" Group 34"><path id="_Path_31" data-name=" Path 31" class="cls-1" d="M35.53,30.65l-1.66.56Z" transform="translate(0 0)"/></g><g id="_Group_35" data-name=" Group 35"><path id="_Path_32" data-name=" Path 32" class="cls-1" d="M32.35,31.73l-2.47.88Z" transform="translate(0 0)"/></g><g id="_Group_36" data-name=" Group 36"><path id="_Path_33" data-name=" Path 33" class="cls-1" d="M40.18,29.16L42,28.61h0Z" transform="translate(0 0)"/></g><g id="_Group_37" data-name=" Group 37"><path id="_Path_34" data-name=" Path 34" class="cls-1" d="M38.75,29.61l-1.58.51Z" transform="translate(0 0)"/></g><g id="_Group_38" data-name=" Group 38"><path id="_Path_35" data-name=" Path 35" class="cls-1" d="M29.18,32.85q-4.73,1.66-9.31,3.54Q24.45,34.51,29.18,32.85Z" transform="translate(0 0)"/></g><g id="_Group_39" data-name=" Group 39"><path id="_Path_36" data-name=" Path 36" class="cls-1" d="M18.22,37.07h0l0.7-.29Z" transform="translate(0 0)"/></g><g id="_Group_40" data-name=" Group 40"><path id="_Path_37" data-name=" Path 37" class="cls-1" d="M10.1,58.21c0.17-.64.35-1.3,0.53-1.94C10.5,56.95,10.28,57.57,10.1,58.21Z" transform="translate(0 0)"/></g><g id="_Group_41" data-name=" Group 41"><path id="_Path_38" data-name=" Path 38" class="cls-1" d="M11,54.77q1-3.45,2-6.89Q12,51.33,11,54.77Z" transform="translate(0 0)"/></g><g id="_Group_42" data-name=" Group 42"><path id="_Path_39" data-name=" Path 39" class="cls-1" d="M13.42,46.93q0.4-1.25.83-2.51C14,45.26,13.69,46.09,13.42,46.93Z" transform="translate(0 0)"/></g><g id="_Group_43" data-name=" Group 43"><path id="_Path_40" data-name=" Path 40" class="cls-1" d="M8.46,65L6.34,66l2.12-1c0.11-.51.24-1,0.36-1.54C8.68,64,8.56,64.53,8.46,65Z" transform="translate(0 0)"/></g><g id="_Group_44" data-name=" Group 44"><path id="_Path_41" data-name=" Path 41" class="cls-1" d="M4.69,66.75h0l1.42-.65Z" transform="translate(0 0)"/></g><g id="_Group_45" data-name=" Group 45"><path id="_Path_42" data-name=" Path 42" class="cls-1" d="M9.23,61.64c0.13-.53.28-1,0.41-1.6C9.48,60.58,9.37,61.11,9.23,61.64Z" transform="translate(0 0)"/></g><g id="_Group_46" data-name=" Group 46"><path id="_Path_43" data-name=" Path 43" class="cls-1" d="M15.27,41.45h0c-0.18.52-.37,1-0.54,1.57Z" transform="translate(0 0)"/></g><g id="_Group_47" data-name=" Group 47"><path id="_Path_44" data-name=" Path 44" class="cls-1" d="M9.42,61.69c0.21-.87.44-1.73,0.66-2.6C9.85,60,9.63,60.82,9.42,61.69Z" transform="translate(0 0)"/></g><g id="_Group_48" data-name=" Group 48"><path id="_Path_45" data-name=" Path 45" class="cls-1" d="M14.77,43.47c0.28-.82.56-1.63,0.85-2.44C15.32,41.85,15,42.67,14.77,43.47Z" transform="translate(0 0)"/></g><g id="_Group_49" data-name=" Group 49"><path id="_Path_46" data-name=" Path 46" class="cls-1" d="M10.29,58.26q1.36-5.16,3-10.34Q11.64,53.1,10.29,58.26Z" transform="translate(0 0)"/></g><g id="_Group_50" data-name=" Group 50"><path id="_Path_47" data-name=" Path 47" class="cls-1" d="M13.34,47.77q0.52-1.64,1.07-3.27Q13.87,46.11,13.34,47.77Z" transform="translate(0 0)"/></g><g id="_Group_51" data-name=" Group 51"><path id="_Path_48" data-name=" Path 48" class="cls-1" d="M8.62,65.11h0c0.14-.62.3-1.25,0.44-1.89C8.92,63.84,8.77,64.46,8.62,65.11Z" transform="translate(0 0)"/></g><g id="_Group_52" data-name=" Group 52"><path id="_Path_49" data-name=" Path 49" class="cls-1" d="M6.15,66.28l-1,.46Z" transform="translate(0 0)"/></g><g id="_Group_53" data-name=" Group 53"><path id="_Path_50" data-name=" Path 50" class="cls-1" d="M7.18,65.82l1.32-.59h0Z" transform="translate(0 0)"/></g><g id="_Group_54" data-name=" Group 54"><path id="_Path_51" data-name=" Path 51" class="cls-1" d="M88.87,5.63l-2-1.87Z" transform="translate(0 0)"/></g><g id="_Group_55" data-name=" Group 55"><path id="_Path_52" data-name=" Path 52" class="cls-1" d="M84.89,1.87h0l1,0.93Z" transform="translate(0 0)"/></g><g id="_Group_56" data-name=" Group 56"><path id="_Path_53" data-name=" Path 53" class="cls-1" d="M100.83,17.17l-1.37-1.35,1.37,1.35,1.71-.11Z" transform="translate(0 0)"/></g><g id="_Group_57" data-name=" Group 57"><path id="_Path_54" data-name=" Path 54" class="cls-1" d="M98.47,14.84q-4.75-4.65-9.33-9Q93.69,10.18,98.47,14.84Z" transform="translate(0 0)"/></g><g id="_Group_58" data-name=" Group 58"><path id="_Path_55" data-name=" Path 55" class="cls-1" d="M130.06,13.78h0l-0.48,1.14Z" transform="translate(0 0)"/></g><g id="_Group_59" data-name=" Group 59"><path id="_Path_56" data-name=" Path 56" class="cls-1" d="M115.78,16.57h0Z" transform="translate(0 0)"/></g><g id="_Group_60" data-name=" Group 60"><path id="_Path_57" data-name=" Path 57" class="cls-1" d="M128.81,16.75l-0.07.17-2.09-.11,2.16,0.12V16.75Z" transform="translate(0 0)"/></g><g id="_Group_61" data-name=" Group 61"><path id="_Path_58" data-name=" Path 58" class="cls-1" d="M123.12,16.66l2.37,0.09Z" transform="translate(0 0)"/></g><g id="_Group_62" data-name=" Group 62"><path id="_Path_59" data-name=" Path 59" class="cls-1" d="M108.09,16.74q3.6-.15,7.14-0.18Q111.69,16.59,108.09,16.74Z" transform="translate(0 0)"/></g><g id="_Group_63" data-name=" Group 63"><path id="_Path_60" data-name=" Path 60" class="cls-1" d="M104.47,16.92l1.8-.09Z" transform="translate(0 0)"/></g><g id="_Group_64" data-name=" Group 64"><path id="_Path_61" data-name=" Path 61" class="cls-1" d="M119.54,16.58h0Z" transform="translate(0 0)"/></g><g id="_Group_65" data-name=" Group 65"><path id="_Path_62" data-name=" Path 62" class="cls-1" d="M95.95,12.66l-0.59-.59Z" transform="translate(0 0)"/></g><g id="_Group_66" data-name=" Group 66"><path id="_Path_63" data-name=" Path 63" class="cls-1" d="M98.31,15l-0.84-.82Z" transform="translate(0 0)"/></g><g id="_Group_67" data-name=" Group 67"><path id="_Path_64" data-name=" Path 64" class="cls-1" d="M99.69,16.31l1,1h0Z" transform="translate(0 0)"/></g><g id="_Group_68" data-name=" Group 68"><path id="_Path_65" data-name=" Path 65" class="cls-1" d="M128.93,17h0l0.59-1.42Z" transform="translate(0 0)"/></g><g id="_Group_69" data-name=" Group 69"><path id="_Path_66" data-name=" Path 66" class="cls-1" d="M130.23,13.89h0L129.76,15Z" transform="translate(0 0)"/></g><g id="_Group_70" data-name=" Group 70"><path id="_Path_67" data-name=" Path 67" class="cls-1" d="M128.81,17.17l-1.46-.08,1.46,0.08h0Z" transform="translate(0 0)"/></g><g id="_Group_71" data-name=" Group 71"><path id="_Path_68" data-name=" Path 68" class="cls-1" d="M104.49,17.11l2.15-.11Z" transform="translate(0 0)"/></g><g id="_Group_72" data-name=" Group 72"><path id="_Path_69" data-name=" Path 69" class="cls-1" d="M102.79,17.22l-1.94.13h0Z" transform="translate(0 0)"/></g><g id="_Group_73" data-name=" Group 73"><path id="_Path_70" data-name=" Path 70" class="cls-1" d="M108.1,16.93l2-.07Z" transform="translate(0 0)"/></g><g id="_Group_74" data-name=" Group 74"><path id="_Path_71" data-name=" Path 71" class="cls-1" d="M124.56,16.9h0Z" transform="translate(0 0)"/></g><g id="_Group_75" data-name=" Group 75"><path id="_Path_72" data-name=" Path 72" class="cls-1" d="M111.68,16.81h0Z" transform="translate(0 0)"/></g><g id="_Group_76" data-name=" Group 76"><path id="_Path_73" data-name=" Path 73" class="cls-1" d="M97.46,24.16L98,22.93Z" transform="translate(0 0)"/></g><g id="_Group_77" data-name=" Group 77"><path id="_Path_74" data-name=" Path 74" class="cls-1" d="M59.25,47.85h0l2-.51Z" transform="translate(0 0)"/></g><g id="_Group_78" data-name=" Group 78"><path id="_Path_75" data-name=" Path 75" class="cls-1" d="M63,46.9l1.77-.43Z" transform="translate(0 0)"/></g><g id="_Group_79" data-name=" Group 79"><path id="_Path_76" data-name=" Path 76" class="cls-1" d="M98.74,21.38l0.62-1.33Z" transform="translate(0 0)"/></g><g id="_Group_80" data-name=" Group 80"><path id="_Path_77" data-name=" Path 77" class="cls-1" d="M90.43,40.25l-0.45,1-1.64.29L90,41.27Z" transform="translate(0 0)"/></g><g id="_Group_81" data-name=" Group 81"><path id="_Path_78" data-name=" Path 78" class="cls-1" d="M96,27.28l0.64-1.43Z" transform="translate(0 0)"/></g><g id="_Group_82" data-name=" Group 82"><path id="_Path_79" data-name=" Path 79" class="cls-1" d="M66.89,46l1.26-.29Z" transform="translate(0 0)"/></g><g id="_Group_83" data-name=" Group 83"><path id="_Path_80" data-name=" Path 80" class="cls-1" d="M84.65,42.27L86.16,42Z" transform="translate(0 0)"/></g><g id="_Group_84" data-name=" Group 84"><path id="_Path_81" data-name=" Path 81" class="cls-1" d="M92.65,35l1-2.29Z" transform="translate(0 0)"/></g><g id="_Group_85" data-name=" Group 85"><path id="_Path_82" data-name=" Path 82" class="cls-1" d="M91.32,38.14l0.78-1.95Z" transform="translate(0 0)"/></g><g id="_Group_86" data-name=" Group 86"><path id="_Path_83" data-name=" Path 83" class="cls-1" d="M70.74,45.1h0Z" transform="translate(0 0)"/></g><g id="_Group_87" data-name=" Group 87"><path id="_Path_84" data-name=" Path 84" class="cls-1" d="M81.26,42.91l1-.2Z" transform="translate(0 0)"/></g><g id="_Group_88" data-name=" Group 88"><path id="_Path_85" data-name=" Path 85" class="cls-1" d="M94.56,30.59l0.76-1.74Z" transform="translate(0 0)"/></g><g id="_Group_89" data-name=" Group 89"><path id="_Path_86" data-name=" Path 86" class="cls-1" d="M92.83,35.06L93.74,33Z" transform="translate(0 0)"/></g><g id="_Group_90" data-name=" Group 90"><path id="_Path_87" data-name=" Path 87" class="cls-1" d="M94.13,32q2-4.61,4.08-9Q96.17,27.37,94.13,32Z" transform="translate(0 0)"/></g><g id="_Group_91" data-name=" Group 91"><path id="_Path_88" data-name=" Path 88" class="cls-1" d="M91.49,38.2l0.69-1.65Z" transform="translate(0 0)"/></g><g id="_Group_92" data-name=" Group 92"><path id="_Path_89" data-name=" Path 89" class="cls-1" d="M90.17,41.38h0l0.65-1.57Z" transform="translate(0 0)"/></g><g id="_Group_93" data-name=" Group 93"><path id="_Path_90" data-name=" Path 90" class="cls-1" d="M98.41,22.54l1.13-2.42Z" transform="translate(0 0)"/></g><g id="_Group_94" data-name=" Group 94"><path id="_Path_91" data-name=" Path 91" class="cls-1" d="M60.77,47.66L59.29,48h0Z" transform="translate(0 0)"/></g><g id="_Group_95" data-name=" Group 95"><path id="_Path_92" data-name=" Path 92" class="cls-1" d="M63.09,47.08l3.06-.74Z" transform="translate(0 0)"/></g><g id="_Group_96" data-name=" Group 96"><path id="_Path_93" data-name=" Path 93" class="cls-1" d="M90.05,41.5L87.51,42l2.54-.45h0Z" transform="translate(0 0)"/></g><g id="_Group_97" data-name=" Group 97"><path id="_Path_94" data-name=" Path 94" class="cls-1" d="M66.91,46.17C72,45,77.2,43.87,82.35,42.88,77.2,43.87,72,45,66.91,46.17Z" transform="translate(0 0)"/></g><g id="_Group_98" data-name=" Group 98"><path id="_Path_95" data-name=" Path 95" class="cls-1" d="M82.55,42.85l3.65-.68Z" transform="translate(0 0)"/></g><g id="_Group_99" data-name=" Group 99"><path id="_Path_96" data-name=" Path 96" class="cls-1" d="M43.3,25.33l-0.51,1.14-0.87,1.92H42l0.13,0.1,0.81-1.78,0.57-1.27,0.76-1.64,0.66-1.43L45.59,21l0.79-1.63,0.56-1.13,0.91-1.83,0.39-.84q1-2,2-4l0.57-1.09,0.39-.71-0.29.13-0.27.49C48.14,15.19,45.66,20.23,43.3,25.33Z" transform="translate(0 0)"/></g><g id="_Group_100" data-name=" Group 100"><path id="_Path_97" data-name=" Path 97" class="cls-1" d="M95.95,12.66l1.53,1.49L98.31,15l1.38,1.36,1,1h0L99.94,19l0.8-1.67h0.09l-1.37-1.35-1-1q-4.75-4.65-9.33-9l-0.27-.24-2-1.87-1-.94-1-.93H84.49q5.2,4.82,10.74,10.2Z" transform="translate(0 0)"/></g><g id="_Group_101" data-name=" Group 101"><path id="_Path_98" data-name=" Path 98" class="cls-1" d="M100.85,17.35h0l-1,2.14,1-2.14h0Z" transform="translate(0 0)"/></g><g id="_Group_102" data-name=" Group 102"><path id="_Path_99" data-name=" Path 99" class="cls-1" d="M14.24,44.42c-0.29.84-.55,1.67-0.83,2.51l-0.31.95q-1.1,3.45-2,6.89c-0.14.5-.28,1-0.41,1.5l-0.53,1.94C10,58.85,9.83,59.43,9.67,60s-0.28,1-.41,1.6S9,62.88,8.83,63.5s-0.24,1-.36,1.54H8.54v0.06c2.8,3.92,5.8,8,9,12.24-3.14-4.19-6.12-8.26-8.93-12.17h0c0.14-.62.3-1.25,0.44-1.89s0.23-1,.36-1.52C9.57,60.9,9.8,60,10,59.17l0.2-.83q1.36-5.16,3-10.34l0.11-.23q0.52-1.64,1.07-3.27l0.35-1c0.28-.82.56-1.63,0.85-2.44l0.11-.31-0.46.72L14.72,43C14.58,43.49,14.4,44,14.24,44.42Z" transform="translate(0 0)"/></g><g id="_Group_103" data-name=" Group 103"><path id="_Path_100" data-name=" Path 100" class="cls-1" d="M18.77,78.86l-1-1.31Z" transform="translate(0 0)"/></g><g id="_Group_104" data-name=" Group 104"><path id="_Path_101" data-name=" Path 101" class="cls-1" d="M49.55,75.6l-0.64,2.1L48,77.95l0.89-.24C49.12,77,49.34,76.32,49.55,75.6Z" transform="translate(0 0)"/></g><g id="_Group_105" data-name=" Group 105"><path id="_Path_102" data-name=" Path 102" class="cls-1" d="M20.4,81l-0.65-.86Z" transform="translate(0 0)"/></g><g id="_Group_106" data-name=" Group 106"><path id="_Path_103" data-name=" Path 103" class="cls-1" d="M22.63,83.94L21.72,82.8Z" transform="translate(0 0)"/></g><g id="_Group_107" data-name=" Group 107"><path id="_Path_104" data-name=" Path 104" class="cls-1" d="M23.76,85.42h0l2-.69Z" transform="translate(0 0)"/></g><g id="_Group_108" data-name=" Group 108"><path id="_Path_105" data-name=" Path 105" class="cls-1" d="M19.87,36.38q4.58-1.84,9.31-3.54l0.69-.23,2.49-.88,1.53-.52,1.66-.56,1.63-.53,1.58-.51,1.43-.45L42,28.61h0L59.14,48l-0.76,2c0.27-.68.52-1.37,0.79-2h0.1L42.12,28.49h0l-0.1-.1H42l-1.41.44-1.85.58-1.17.38q-5.61,1.84-11,3.85l-0.5.18-2.25.85L22.89,35,21,35.74l-1.16.46-1.4.57-0.21.29,0.7-.29Z" transform="translate(0 0)"/></g><g id="_Group_109" data-name=" Group 109"><path id="_Path_106" data-name=" Path 106" class="cls-1" d="M45.52,78.66h0Z" transform="translate(0 0)"/></g><g id="_Group_110" data-name=" Group 110"><path id="_Path_107" data-name=" Path 107" class="cls-1" d="M29.67,83.46l1.82-.58Z" transform="translate(0 0)"/></g><g id="_Group_111" data-name=" Group 111"><path id="_Path_108" data-name=" Path 108" class="cls-1" d="M26.67,84.48l2-.65Z" transform="translate(0 0)"/></g><g id="_Group_112" data-name=" Group 112"><path id="_Path_109" data-name=" Path 109" class="cls-1" d="M32.75,82.44L34,82Z" transform="translate(0 0)"/></g><g id="_Group_113" data-name=" Group 113"><path id="_Path_110" data-name=" Path 110" class="cls-1" d="M55.08,58.8l1.25-3.49Z" transform="translate(0 0)"/></g><g id="_Group_114" data-name=" Group 114"><path id="_Path_111" data-name=" Path 111" class="cls-1" d="M56.76,54.17c0.32-.85.62-1.7,0.95-2.55C57.42,52.48,57.08,53.33,56.76,54.17Z" transform="translate(0 0)"/></g><g id="_Group_115" data-name=" Group 115"><path id="_Path_112" data-name=" Path 112" class="cls-1" d="M50,74c1.54-5,3.2-10,5-15C53.24,64,51.58,69,50,74Z" transform="translate(0 0)"/></g><g id="_Group_116" data-name=" Group 116"><path id="_Path_113" data-name=" Path 113" class="cls-1" d="M49.09,77.75h0c0.17-.59.36-1.18,0.54-1.77C49.45,76.58,49.26,77.17,49.09,77.75Z" transform="translate(0 0)"/></g><g id="_Group_117" data-name=" Group 117"><path id="_Path_114" data-name=" Path 114" class="cls-1" d="M56.4,55.58l0.06-.17Z" transform="translate(0 0)"/></g><g id="_Group_118" data-name=" Group 118"><path id="_Path_115" data-name=" Path 115" class="cls-1" d="M57.42,52.87l0.44-1.17Z" transform="translate(0 0)"/></g><g id="_Group_119" data-name=" Group 119"><path id="_Path_116" data-name=" Path 116" class="cls-1" d="M50.23,74l0.33-1Z" transform="translate(0 0)"/></g><g id="_Group_120" data-name=" Group 120"><path id="_Path_117" data-name=" Path 117" class="cls-1" d="M51.4,70.29l0.08-.23Z" transform="translate(0 0)"/></g><g id="_Group_121" data-name=" Group 121"><path id="_Path_118" data-name=" Path 118" class="cls-1" d="M23.81,85.6h0l2-.65Z" transform="translate(0 0)"/></g><g id="_Group_122" data-name=" Group 122"><path id="_Path_119" data-name=" Path 119" class="cls-1" d="M45.65,78.81l-3,.87Z" transform="translate(0 0)"/></g><g id="_Group_123" data-name=" Group 123"><path id="_Path_120" data-name=" Path 120" class="cls-1" d="M32.59,82.72l-2.87.92Z" transform="translate(0 0)"/></g><g id="_Group_124" data-name=" Group 124"><path id="_Path_121" data-name=" Path 121" class="cls-1" d="M28.93,83.9l-2.2.72Z" transform="translate(0 0)"/></g><g id="_Group_125" data-name=" Group 125"><path id="_Path_122" data-name=" Path 122" class="cls-1" d="M42.36,79.76q-4.91,1.43-9.57,2.9Q37.45,81.19,42.36,79.76Z" transform="translate(0 0)"/></g><g id="_Group_126" data-name=" Group 126"><path id="_Path_123" data-name=" Path 123" class="cls-1" d="M46.83,78.49l2.13-.6h0Z" transform="translate(0 0)"/></g><g id="_Group_127" data-name=" Group 127"><path id="_Path_124" data-name=" Path 124" class="cls-1" d="M13.84,72.59L13,71.46Z" transform="translate(0 0)"/></g><g id="_Group_128" data-name=" Group 128"><path id="_Path_125" data-name=" Path 125" class="cls-1" d="M23.13,84.89l-1.52-2Z" transform="translate(0 0)"/></g><g id="_Group_129" data-name=" Group 129"><path id="_Path_126" data-name=" Path 126" class="cls-1" d="M21.41,82.66l-2-2.61Z" transform="translate(0 0)"/></g><g id="_Group_130" data-name=" Group 130"><path id="_Path_127" data-name=" Path 127" class="cls-1" d="M17.64,77.7L17,76.8Z" transform="translate(0 0)"/></g><g id="_Group_131" data-name=" Group 131"><path id="_Path_128" data-name=" Path 128" class="cls-1" d="M15.73,75.13L14.9,74Z" transform="translate(0 0)"/></g><g id="_Group_132" data-name=" Group 132"><path id="_Path_129" data-name=" Path 129" class="cls-1" d="M10.22,67.62L9.35,66.4Z" transform="translate(0 0)"/></g><g id="_Group_133" data-name=" Group 133"><path id="_Path_130" data-name=" Path 130" class="cls-1" d="M12,70.09l-0.9-1.23Z" transform="translate(0 0)"/></g><g id="_Group_134" data-name=" Group 134"><path id="_Path_131" data-name=" Path 131" class="cls-1" d="M59.28,48h0l-0.46,1.18L59.28,48h0Z" transform="translate(0 0)"/></g><g id="_Group_135" data-name=" Group 135"><path id="_Path_132" data-name=" Path 132" class="cls-1" d="M128.81,16.75l-0.07.17h0.1l1,1-1-1h0l0.59-1.42,0.23-.57,0.47-1.13L130,13.71l-0.48,1.14Z" transform="translate(0 0)"/></g><g id="_Group_136" data-name=" Group 136"><path id="_Path_133" data-name=" Path 133" class="cls-1" d="M155.43,37.13h0l-1.3-.09Z" transform="translate(0 0)"/></g><g id="_Group_137" data-name=" Group 137"><path id="_Path_134" data-name=" Path 134" class="cls-1" d="M150,36.81l-2-.08c-4.8-5.1-9.62-10.15-14.36-15,4.74,4.83,9.55,9.85,14.36,15Z" transform="translate(0 0)"/></g><g id="_Group_138" data-name=" Group 138"><path id="_Path_135" data-name=" Path 135" class="cls-1" d="M150.87,36.84L153.72,37Z" transform="translate(0 0)"/></g><g id="_Group_139" data-name=" Group 139"><path id="_Path_136" data-name=" Path 136" class="cls-1" d="M131.27,19.36l1.35,1.37Z" transform="translate(0 0)"/></g><g id="_Group_140" data-name=" Group 140"><path id="_Path_137" data-name=" Path 137" class="cls-1" d="M145.13,34l0.3,0.32Z" transform="translate(0 0)"/></g><g id="_Group_141" data-name=" Group 141"><path id="_Path_138" data-name=" Path 138" class="cls-1" d="M147.83,36.84h0l-1.08-1.14Z" transform="translate(0 0)"/></g><g id="_Group_142" data-name=" Group 142"><path id="_Path_139" data-name=" Path 139" class="cls-1" d="M153.73,37.19l1.81,0.13Z" transform="translate(0 0)"/></g><g id="_Group_143" data-name=" Group 143"><path id="_Path_140" data-name=" Path 140" class="cls-1" d="M150.89,37l1.65,0.09Z" transform="translate(0 0)"/></g><g id="_Group_144" data-name=" Group 144"><path id="_Path_141" data-name=" Path 141" class="cls-1" d="M148,36.91h0L149.55,37Z" transform="translate(0 0)"/></g><g id="_Group_145" data-name=" Group 145"><path id="_Path_142" data-name=" Path 142" class="cls-1" d="M97.31,49l-2-2.18Z" transform="translate(0 0)"/></g><g id="_Group_146" data-name=" Group 146"><path id="_Path_143" data-name=" Path 143" class="cls-1" d="M136.6,60.23l1.17-.14Z" transform="translate(0 0)"/></g><g id="_Group_147" data-name=" Group 147"><path id="_Path_144" data-name=" Path 144" class="cls-1" d="M147.58,37.82l-0.41,1.61Z" transform="translate(0 0)"/></g><g id="_Group_148" data-name=" Group 148"><path id="_Path_145" data-name=" Path 145" class="cls-1" d="M147,39.86q-1,3.76-2.17,7.83Q146,43.63,147,39.86Z" transform="translate(0 0)"/></g><g id="_Group_149" data-name=" Group 149"><path id="_Path_146" data-name=" Path 146" class="cls-1" d="M143.17,53.57l-0.11.38Z" transform="translate(0 0)"/></g><g id="_Group_150" data-name=" Group 150"><path id="_Path_147" data-name=" Path 147" class="cls-1" d="M142.29,56.62l-0.35,1.17Z" transform="translate(0 0)"/></g><g id="_Group_151" data-name=" Group 151"><path id="_Path_148" data-name=" Path 148" class="cls-1" d="M111.07,63.93l-1.38-1.51,1.38,1.51,2.72-.45Z" transform="translate(0 0)"/></g><g id="_Group_152" data-name=" Group 152"><path id="_Path_149" data-name=" Path 149" class="cls-1" d="M133.77,60.58h0Z" transform="translate(0 0)"/></g><g id="_Group_153" data-name=" Group 153"><path id="_Path_150" data-name=" Path 150" class="cls-1" d="M118.89,62.67l0.84-.12Z" transform="translate(0 0)"/></g><g id="_Group_154" data-name=" Group 154"><path id="_Path_151" data-name=" Path 151" class="cls-1" d="M115,63.29l2-.32Z" transform="translate(0 0)"/></g><g id="_Group_155" data-name=" Group 155"><path id="_Path_152" data-name=" Path 152" class="cls-1" d="M108.41,61l-0.27-.3Z" transform="translate(0 0)"/></g><g id="_Group_156" data-name=" Group 156"><path id="_Path_153" data-name=" Path 153" class="cls-1" d="M99.23,51.05l-1.33-1.43Z" transform="translate(0 0)"/></g><g id="_Group_157" data-name=" Group 157"><path id="_Path_154" data-name=" Path 154" class="cls-1" d="M94.13,45.66l-1.47-1.57Z" transform="translate(0 0)"/></g><g id="_Group_158" data-name=" Group 158"><path id="_Path_155" data-name=" Path 155" class="cls-1" d="M141.4,59.68h0l-1.41.16Z" transform="translate(0 0)"/></g><g id="_Group_159" data-name=" Group 159"><path id="_Path_156" data-name=" Path 156" class="cls-1" d="M92.55,44.19l2,2.11Z" transform="translate(0 0)"/></g><g id="_Group_160" data-name=" Group 160"><path id="_Path_157" data-name=" Path 157" class="cls-1" d="M97.74,49.75l1.55,1.67Z" transform="translate(0 0)"/></g><g id="_Group_161" data-name=" Group 161"><path id="_Path_158" data-name=" Path 158" class="cls-1" d="M105.08,57.66l0.55,0.6Z" transform="translate(0 0)"/></g><g id="_Group_162" data-name=" Group 162"><path id="_Path_159" data-name=" Path 159" class="cls-1" d="M92.44,44.07L90.05,41.5h0Z" transform="translate(0 0)"/></g><g id="_Group_163" data-name=" Group 163"><path id="_Path_160" data-name=" Path 160" class="cls-1" d="M95.15,47l1.51,1.62Z" transform="translate(0 0)"/></g><g id="_Group_164" data-name=" Group 164"><path id="_Path_161" data-name=" Path 161" class="cls-1" d="M145.82,44.91h0Z" transform="translate(0 0)"/></g><g id="_Group_165" data-name=" Group 165"><path id="_Path_162" data-name=" Path 162" class="cls-1" d="M141.57,59.74h0q1.62-5.52,3.06-10.63Q143.19,54.21,141.57,59.74Z" transform="translate(0 0)"/></g><g id="_Group_166" data-name=" Group 166"><path id="_Path_163" data-name=" Path 163" class="cls-1" d="M147.32,39.46l0.09-.36Z" transform="translate(0 0)"/></g><g id="_Group_167" data-name=" Group 167"><path id="_Path_164" data-name=" Path 164" class="cls-1" d="M145,47.77v0Z" transform="translate(0 0)"/></g><g id="_Group_168" data-name=" Group 168"><path id="_Path_165" data-name=" Path 165" class="cls-1" d="M115,63.47c6.53-1,12.93-2,19.12-2.75C127.93,61.49,121.54,62.42,115,63.47Z" transform="translate(0 0)"/></g><g id="_Group_169" data-name=" Group 169"><path id="_Path_166" data-name=" Path 166" class="cls-1" d="M114,63.65l-2.86.47h0Z" transform="translate(0 0)"/></g><g id="_Group_170" data-name=" Group 170"><path id="_Path_167" data-name=" Path 167" class="cls-1" d="M141.43,59.86l-2.59.3,2.59-.3h0Z" transform="translate(0 0)"/></g><g id="_Group_171" data-name=" Group 171"><path id="_Path_168" data-name=" Path 168" class="cls-1" d="M134.93,60.63l2.89-.35Z" transform="translate(0 0)"/></g><g id="_Group_172" data-name=" Group 172"><path id="_Path_169" data-name=" Path 169" class="cls-1" d="M90.05,41.31h0l0.52,0.55-0.48-.51h0l0.65-1.57,0.67-1.6,0.76-1.63L92.83,35l0.91-2.1,0.43-1q2-4.62,4.08-9l0.2-.45,1.13-2.42,0.3-.62,1-2.14h0l1.94-.13,1.69-.11,2.15-.11,1.46-.07,2-.07,1.59-.05h1.19q6-.12,11.68.11h0.92l1.85,0.1,1.47,0.18h0c5.36,5.37,10.85,11,16.32,16.86l0.3,0.32,1.32,1.41,1.08,1.14h0V36.82h0.11c-4.81-5.1-9.62-10.2-14.36-15l-1-1-1.35-1.37-1.37-1.38-1-1h0l-2.09-.11-1.18-.06-2.37-.09h-7.92q-3.51,0-7.14.18l-1.82.09-1.8.09-1.93.13-1.71.11h-0.09L100,19.08l-0.55,1.15-0.62,1.33-0.72,1.55-0.56,1.22L96.73,26l-0.64,1.43L95.39,29l-0.76,1.74L93.7,32.87l-1,2.29-0.59,1-0.83,1.95-0.88,2.11-0.45,1h0Z" transform="translate(0 0)"/></g><g id="_Group_173" data-name=" Group 173"><path id="_Path_170" data-name=" Path 170" class="cls-1" d="M108.31,71.5l-0.68,2Z" transform="translate(0 0)"/></g><g id="_Group_174" data-name=" Group 174"><path id="_Path_171" data-name=" Path 171" class="cls-1" d="M53.89,83.46l-0.54-.64Z" transform="translate(0 0)"/></g><g id="_Group_175" data-name=" Group 175"><path id="_Path_172" data-name=" Path 172" class="cls-1" d="M51.45,80.59l-0.07-.08Z" transform="translate(0 0)"/></g><g id="_Group_176" data-name=" Group 176"><path id="_Path_173" data-name=" Path 173" class="cls-1" d="M104.33,83.06l-1.26,3.68Z" transform="translate(0 0)"/></g><g id="_Group_177" data-name=" Group 177"><path id="_Path_174" data-name=" Path 174" class="cls-1" d="M102.71,87.71q-1.14,3.37-2.28,6.76C89.73,96.67,79.14,99,69,101.24q-5.84-6.8-11.47-13.46Q63.11,94.43,69,101.24c10.2-2.29,20.77-4.57,31.45-6.77Q101.56,91.07,102.71,87.71Z" transform="translate(0 0)"/></g><g id="_Group_178" data-name=" Group 178"><path id="_Path_175" data-name=" Path 175" class="cls-1" d="M62,93.41l-0.84-1Z" transform="translate(0 0)"/></g><g id="_Group_179" data-name=" Group 179"><path id="_Path_176" data-name=" Path 176" class="cls-1" d="M64.39,96.18l-0.67-.8Z" transform="translate(0 0)"/></g><g id="_Group_180" data-name=" Group 180"><path id="_Path_177" data-name=" Path 177" class="cls-1" d="M53.74,83.62l-1.09-1.31Z" transform="translate(0 0)"/></g><g id="_Group_181" data-name=" Group 181"><path id="_Path_178" data-name=" Path 178" class="cls-1" d="M51.3,80.72l-1.65-2Z" transform="translate(0 0)"/></g><g id="_Group_182" data-name=" Group 182"><path id="_Path_179" data-name=" Path 179" class="cls-1" d="M56.81,87.26l-2.27-2.69Z" transform="translate(0 0)"/></g><g id="_Group_183" data-name=" Group 183"><path id="_Path_180" data-name=" Path 180" class="cls-1" d="M102.16,89.91c-0.52,1.54-1,3.06-1.56,4.62h0Z" transform="translate(0 0)"/></g><g id="_Group_184" data-name=" Group 184"><path id="_Path_181" data-name=" Path 181" class="cls-1" d="M103.21,86.8l1-3.06Z" transform="translate(0 0)"/></g><g id="_Group_185" data-name=" Group 185"><path id="_Path_182" data-name=" Path 182" class="cls-1" d="M106.18,78.16q1.15-3.32,2.31-6.62C107.72,73.73,107,75.95,106.18,78.16Z" transform="translate(0 0)"/></g><g id="_Group_186" data-name=" Group 186"><path id="_Path_183" data-name=" Path 183" class="cls-1" d="M100.46,94.68l-4.3.9,4.3-.9h0Z" transform="translate(0 0)"/></g><g id="_Group_187" data-name=" Group 187"><path id="_Path_184" data-name=" Path 184" class="cls-1" d="M71.8,100.8l-2.8.62h0Z" transform="translate(0 0)"/></g><g id="_Group_188" data-name=" Group 188"><path id="_Path_185" data-name=" Path 185" class="cls-1" d="M49,77.69H49c0.17-.59.36-1.18,0.54-1.76s0.39-1.31.59-2l0.33-1c0.29-.9.56-1.81,0.86-2.71L51.42,70q2.34-7.26,5-14.47l0.06-.17c0.31-.85.62-1.68,0.94-2.53l0.44-1.17,0.95-2.48L59.23,48h0l1.48-.37L63,47l3.06-.74,0.72-.17c5.1-1.2,10.29-2.29,15.44-3.28h0.19l3.65-.68,1.27-.22,2.54-.45h0l2.42,2.57,0.1,0.11,2,2.11L95.15,47l1.51,1.62,1.09,1.17,1.55,1.67,5.78,6.25,0.55,0.6,5.3,5.79c-0.57,1.6-1.14,3.23-1.71,4.85L111,64V64h0.1l-1.38-1.51L108.41,61l-0.27-.3Q103.64,55.81,99.2,51l-1.33-1.43L97.31,49l-2-2.18-1.14-1.17-1.47-1.57-2-2.19-0.52-.55H90l-1.64.29L86.18,42l-1.51.29-2.35.44-1,.2q-5.23,1-10.45,2.17H70.79l-2.59.59L66.93,46l-2,.5-1.77.43-1.74.44-2,.51h-0.1c-0.27.68-.52,1.37-0.79,2l-0.63,1.65-0.95,2.55-0.43,1.14-1.25,3.49L55.1,59c-1.75,5-3.42,10-5,15l-0.49,1.61L49,77.63h0Z" transform="translate(0 0)"/></g><g id="_Group_189" data-name=" Group 189"><path id="_Path_186" data-name=" Path 186" class="cls-1" d="M111.11,64.09h0c-0.75,2.11-1.5,4.24-2.25,6.38l2.25-6.38h0Z" transform="translate(0 0)"/></g><g id="_Group_190" data-name=" Group 190"><path id="_Path_187" data-name=" Path 187" class="cls-1" d="M45.72,133.38l-0.54.06Z" transform="translate(0 0)"/></g><g id="_Group_191" data-name=" Group 191"><path id="_Path_188" data-name=" Path 188" class="cls-1" d="M40.14,134.21l-1.5.21Z" transform="translate(0 0)"/></g><g id="_Group_192" data-name=" Group 192"><path id="_Path_189" data-name=" Path 189" class="cls-1" d="M60,131.09l-2.27.38Z" transform="translate(0 0)"/></g><g id="_Group_193" data-name=" Group 193"><path id="_Path_190" data-name=" Path 190" class="cls-1" d="M54,132.07l-6.12,1Z" transform="translate(0 0)"/></g><g id="_Group_194" data-name=" Group 194"><path id="_Path_191" data-name=" Path 191" class="cls-1" d="M60.93,131h0l0.36-1.48Z" transform="translate(0 0)"/></g><g id="_Group_195" data-name=" Group 195"><path id="_Path_192" data-name=" Path 192" class="cls-1" d="M42.87,133.81h0Z" transform="translate(0 0)"/></g><g id="_Group_196" data-name=" Group 196"><path id="_Path_193" data-name=" Path 193" class="cls-1" d="M63.6,120.18c1.26-4.91,2.64-9.92,4.08-15C66.24,110.24,64.87,115.25,63.6,120.18Z" transform="translate(0 0)"/></g><g id="_Group_197" data-name=" Group 197"><path id="_Path_194" data-name=" Path 194" class="cls-1" d="M62.67,123.81q0.41-1.62.84-3.26Z" transform="translate(0 0)"/></g><g id="_Group_198" data-name=" Group 198"><path id="_Path_195" data-name=" Path 195" class="cls-1" d="M20.58,108.23c0-.53.08-1,0.13-1.6C20.7,107.17,20.62,107.7,20.58,108.23Z" transform="translate(0 0)"/></g><g id="_Group_199" data-name=" Group 199"><path id="_Path_196" data-name=" Path 196" class="cls-1" d="M22,96.27l0.28-1.8C22.16,95.07,22.06,95.7,22,96.27Z" transform="translate(0 0)"/></g><g id="_Group_200" data-name=" Group 200"><path id="_Path_197" data-name=" Path 197" class="cls-1" d="M61.78,127.41l0.52-2.12Z" transform="translate(0 0)"/></g><g id="_Group_201" data-name=" Group 201"><path id="_Path_198" data-name=" Path 198" class="cls-1" d="M20.88,104.88q0.37-3.57.88-7.23Q21.25,101.36,20.88,104.88Z" transform="translate(0 0)"/></g><g id="_Group_202" data-name=" Group 202"><path id="_Path_199" data-name=" Path 199" class="cls-1" d="M57.22,131.56l-2.58.42Z" transform="translate(0 0)"/></g><g id="_Group_203" data-name=" Group 203"><path id="_Path_200" data-name=" Path 200" class="cls-1" d="M22.51,92.74c0.09-.55.19-1.11,0.29-1.67C22.74,91.62,22.61,92.18,22.51,92.74Z" transform="translate(0 0)"/></g><g id="_Group_204" data-name=" Group 204"><path id="_Path_201" data-name=" Path 201" class="cls-1" d="M34.2,130.63L33,129.21Z" transform="translate(0 0)"/></g><g id="_Group_205" data-name=" Group 205"><path id="_Path_202" data-name=" Path 202" class="cls-1" d="M20.21,113.29c3.93,5,8,10.1,12.24,15.24-4.23-5.1-8.34-10.2-12.24-15.24h0Z" transform="translate(0 0)"/></g><g id="_Group_206" data-name=" Group 206"><path id="_Path_203" data-name=" Path 203" class="cls-1" d="M26.72,84.62l2.2-.72,0.81-.27,2.87-.92,0.19-.06q4.65-1.47,9.57-2.9l0.3-.08,3-.87,1.17-.33,2.13-.6h0l0.71,0.86,1.63,2,1.33,1.59,1.09,1.31,0.8,0.94,2.27,2.69,4.38,5.16,0.84,1,1.69,2,0.67,0.8,4.44,5.18q-0.56,1.89-1.1,3.76,0.55-1.9,1.12-3.81v-0.05h0.11q-5.84-6.8-11.47-13.46l-3.61-4.28-0.54-.64-1.89-2.25-0.07-.08-2.28-2.74H49l-0.89.24-2.45.68H45.61q-5.93,1.68-11.5,3.43l-1.27.4-1.25.4-1.9.49-1,.33-2,.65-0.85.29-2,.69,0,0.08h0V85.6l2-.65Z" transform="translate(0 0)"/></g><g id="_Group_207" data-name=" Group 207"><path id="_Path_204" data-name=" Path 204" class="cls-1" d="M23.14,89.18c0.1-.56.21-1.12,0.32-1.69C23.35,88,23.24,88.56,23.14,89.18Z" transform="translate(0 0)"/></g><g id="_Group_208" data-name=" Group 208"><path id="_Path_205" data-name=" Path 205" class="cls-1" d="M20.32,111.67c0-.56.07-1.12,0.11-1.69C20.38,110.55,20.35,111.11,20.32,111.67Z" transform="translate(0 0)"/></g><g id="_Group_209" data-name=" Group 209"><path id="_Path_206" data-name=" Path 206" class="cls-1" d="M36.33,133.2l-1.07-1.29Z" transform="translate(0 0)"/></g><g id="_Group_210" data-name=" Group 210"><path id="_Path_207" data-name=" Path 207" class="cls-1" d="M67.13,107.94l0.76-2.69C67.61,106.12,67.37,107,67.13,107.94Z" transform="translate(0 0)"/></g><g id="_Group_211" data-name=" Group 211"><path id="_Path_208" data-name=" Path 208" class="cls-1" d="M65.89,112.32q0.45-1.65.92-3.3Q66.34,110.68,65.89,112.32Z" transform="translate(0 0)"/></g><g id="_Group_212" data-name=" Group 212"><path id="_Path_209" data-name=" Path 209" class="cls-1" d="M62.85,123.86l0.87-3.4Q63.27,122.17,62.85,123.86Z" transform="translate(0 0)"/></g><g id="_Group_213" data-name=" Group 213"><path id="_Path_210" data-name=" Path 210" class="cls-1" d="M62,127.47c0.2-.85.42-1.7,0.63-2.55C62.37,125.77,62.16,126.63,62,127.47Z" transform="translate(0 0)"/></g><g id="_Group_214" data-name=" Group 214"><path id="_Path_211" data-name=" Path 211" class="cls-1" d="M63.78,120.18q0.95-3.68,2-7.44Q64.73,116.53,63.78,120.18Z" transform="translate(0 0)"/></g><g id="_Group_215" data-name=" Group 215"><path id="_Path_212" data-name=" Path 212" class="cls-1" d="M61.12,131h0c0.18-.79.38-1.58,0.57-2.38C61.5,129.42,61.3,130.22,61.12,131Z" transform="translate(0 0)"/></g><g id="_Group_216" data-name=" Group 216"><path id="_Path_213" data-name=" Path 213" class="cls-1" d="M23,89.13c0.11-.64.24-1.29,0.37-1.92C23.2,87.85,23.06,88.49,23,89.13Z" transform="translate(0 0)"/></g><g id="_Group_217" data-name=" Group 217"><path id="_Path_214" data-name=" Path 214" class="cls-1" d="M20.15,111.38c0-.47.06-0.94,0.09-1.42Z" transform="translate(0 0)"/></g><g id="_Group_218" data-name=" Group 218"><path id="_Path_215" data-name=" Path 215" class="cls-1" d="M20.4,108.12a15,15,0,0,1,.13-1.52C20.47,107.11,20.44,107.61,20.4,108.12Z" transform="translate(0 0)"/></g><g id="_Group_219" data-name=" Group 219"><path id="_Path_216" data-name=" Path 216" class="cls-1" d="M21.49,98.28q0.29-2.11.62-4.24Q21.79,96.18,21.49,98.28Z" transform="translate(0 0)"/></g><g id="_Group_220" data-name=" Group 220"><path id="_Path_217" data-name=" Path 217" class="cls-1" d="M21.08,101.55c0.07-.61.14-1.21,0.22-1.83C21.22,100.33,21.15,100.94,21.08,101.55Z" transform="translate(0 0)"/></g><g id="_Group_221" data-name=" Group 221"><path id="_Path_218" data-name=" Path 218" class="cls-1" d="M20.7,104.79c0.05-.54.1-1,0.16-1.61C20.82,103.72,20.77,104.25,20.7,104.79Z" transform="translate(0 0)"/></g><g id="_Group_222" data-name=" Group 222"><path id="_Path_219" data-name=" Path 219" class="cls-1" d="M22.33,92.7c0.11-.67.23-1.36,0.36-2C22.57,91.35,22.44,92,22.33,92.7Z" transform="translate(0 0)"/></g><g id="_Group_223" data-name=" Group 223"><path id="_Path_220" data-name=" Path 220" class="cls-1" d="M26.36,121.32l-1.21-1.51Z" transform="translate(0 0)"/></g><g id="_Group_224" data-name=" Group 224"><path id="_Path_221" data-name=" Path 221" class="cls-1" d="M36.18,133.3l-1-1.27Z" transform="translate(0 0)"/></g><g id="_Group_225" data-name=" Group 225"><path id="_Path_222" data-name=" Path 222" class="cls-1" d="M24.23,118.66l-1-1.29Z" transform="translate(0 0)"/></g><g id="_Group_226" data-name=" Group 226"><path id="_Path_223" data-name=" Path 223" class="cls-1" d="M22.14,116l-1-1.21Z" transform="translate(0 0)"/></g><g id="_Group_227" data-name=" Group 227"><path id="_Path_224" data-name=" Path 224" class="cls-1" d="M33.73,130.38l-0.8-1Z" transform="translate(0 0)"/></g><g id="_Group_228" data-name=" Group 228"><path id="_Path_225" data-name=" Path 225" class="cls-1" d="M28.51,124l-1.83-2.25Z" transform="translate(0 0)"/></g><g id="_Group_229" data-name=" Group 229"><path id="_Path_226" data-name=" Path 226" class="cls-1" d="M31.92,128.18l-2.85-3.48Z" transform="translate(0 0)"/></g><g id="_Group_230" data-name=" Group 230"><path id="_Path_227" data-name=" Path 227" class="cls-1" d="M39.29,134.52l0.88-.12Z" transform="translate(0 0)"/></g><g id="_Group_231" data-name=" Group 231"><path id="_Path_228" data-name=" Path 228" class="cls-1" d="M48.24,133.17l0.37-.06Z" transform="translate(0 0)"/></g><g id="_Group_232" data-name=" Group 232"><path id="_Path_229" data-name=" Path 229" class="cls-1" d="M41.75,134.16l1.17-.17Z" transform="translate(0 0)"/></g><g id="_Group_233" data-name=" Group 233"><path id="_Path_230" data-name=" Path 230" class="cls-1" d="M44.53,133.75l1.21-.18Z" transform="translate(0 0)"/></g><g id="_Group_234" data-name=" Group 234"><path id="_Path_231" data-name=" Path 231" class="cls-1" d="M54.69,132.17l0.62-.1Z" transform="translate(0 0)"/></g><g id="_Group_235" data-name=" Group 235"><path id="_Path_232" data-name=" Path 232" class="cls-1" d="M57.81,131.66l2.48-.41Z" transform="translate(0 0)"/></g><g id="_Group_236" data-name=" Group 236"><path id="_Path_233" data-name=" Path 233" class="cls-1" d="M51.3,132.71l0.51-.08Z" transform="translate(0 0)"/></g><g id="_Group_237" data-name=" Group 237"><path id="_Path_234" data-name=" Path 234" class="cls-1" d="M69,101.42h0c-0.24.82-.48,1.63-0.71,2.45,0.23-.82.47-1.62,0.71-2.45h0Z" transform="translate(0 0)"/></g><g id="_Group_238" data-name=" Group 238"><path id="_Path_235" data-name=" Path 235" class="cls-1" d="M153.73,37l-2.85-.16H150l-2-.08h-0.11v0.07h0l-0.27,1-0.42,1.58-0.11.43q-1,3.76-2.17,7.83-0.81,2.87-1.68,5.87l-0.11.38-0.78,2.66L142,57.78l-0.55,1.89h0.11l1.66,1.84-1.62-1.8h0q1.63-5.53,3.06-10.63l0.4-1.32V47.65l0.76-2.72h0q0.78-2.79,1.49-5.43l0.09-.36L148,37h0L149.5,37l1.35,0.05,1.65,0.09,1.19,0.07,1.81,0.13h0l-0.14-.19-1.3-.09Z" transform="translate(0 0)"/></g><g id="_Group_239" data-name=" Group 239"><path id="_Path_236" data-name=" Path 236" class="cls-1" d="M163.82,82.6l-1.75.29-1.74-2,1.74,2Z" transform="translate(0 0)"/></g><g id="_Group_240" data-name=" Group 240"><path id="_Path_237" data-name=" Path 237" class="cls-1" d="M144.11,62.6l0.74,0.83Z" transform="translate(0 0)"/></g><g id="_Group_241" data-name=" Group 241"><path id="_Path_238" data-name=" Path 238" class="cls-1" d="M171.08,81.42h0l-2.7.43Z" transform="translate(0 0)"/></g><g id="_Group_242" data-name=" Group 242"><path id="_Path_239" data-name=" Path 239" class="cls-1" d="M158.79,79.1l0.8,0.91Z" transform="translate(0 0)"/></g><g id="_Group_243" data-name=" Group 243"><path id="_Path_240" data-name=" Path 240" class="cls-1" d="M165.24,82.36l1.51-.24Z" transform="translate(0 0)"/></g><g id="_Group_244" data-name=" Group 244"><path id="_Path_241" data-name=" Path 241" class="cls-1" d="M161.94,83h0l-1.15-1.34Z" transform="translate(0 0)"/></g><g id="_Group_245" data-name=" Group 245"><path id="_Path_242" data-name=" Path 242" class="cls-1" d="M159.41,80.14c-2.53-2.91-5.1-5.82-7.63-8.7s-5.19-5.83-7.79-8.72c2.6,2.89,5.21,5.8,7.79,8.72S156.92,77.23,159.41,80.14Z" transform="translate(0 0)"/></g><g id="_Group_246" data-name=" Group 246"><path id="_Path_243" data-name=" Path 243" class="cls-1" d="M142.07,60.6l-0.66-.73h0Z" transform="translate(0 0)"/></g><g id="_Group_247" data-name=" Group 247"><path id="_Path_244" data-name=" Path 244" class="cls-1" d="M168.4,82l2.24-.36Z" transform="translate(0 0)"/></g><g id="_Group_248" data-name=" Group 248"><path id="_Path_245" data-name=" Path 245" class="cls-1" d="M162.12,83.07h0l2.35-.39Z" transform="translate(0 0)"/></g><g id="_Group_249" data-name=" Group 249"><path id="_Path_246" data-name=" Path 246" class="cls-1" d="M165.26,82.55l1.88-.31Z" transform="translate(0 0)"/></g><g id="_Group_250" data-name=" Group 250"><path id="_Path_247" data-name=" Path 247" class="cls-1" d="M137.78,60.09l-1.17.14-2.52.31h-0.32c-4.58.58-9.27,1.23-14,2l-0.84.12-1.91.31-2,.32-1.18.19-2.72.45h-0.1v0.05c-0.58,1.62-1.15,3.26-1.73,4.91l-0.92,2.58-0.68,2q-1.66,4.75-3.32,9.6L103,86.68l-0.33,1q-1.14,3.37-2.28,6.76h0.1l0.07,0.08c0.52-1.55,1-3.06,1.56-4.62l1-3.06,1-3.06,1.93-5.61c0.76-2.22,1.54-4.44,2.31-6.62l0.37-1L111,64.12h0l2.86-.47,1-.17c6.53-1,12.93-2,19.12-2.75l0.81-.1,2.89-.35,1-.11,2.59-.3h0L142,60.6l1.93,2.12c2.6,2.89,5.22,5.8,7.79,8.72s5.1,5.79,7.63,8.7l1.34,1.54L161.82,83v-0.1h0.11l-1.74-2L159.45,80l-0.8-.91q-3.4-3.9-6.83-7.78c-2.28-2.58-4.69-5.27-7-7.88L144,62.61l-1-1-1.66-1.84h-0.11l-1.41.16Z" transform="translate(0 0)"/></g><g id="_Group_251" data-name=" Group 251"><path id="_Path_248" data-name=" Path 248" class="cls-1" d="M159.56,92.64l-0.29,1.12Z" transform="translate(0 0)"/></g><g id="_Group_252" data-name=" Group 252"><path id="_Path_249" data-name=" Path 249" class="cls-1" d="M161.39,85.31l-0.3,1.21Z" transform="translate(0 0)"/></g><g id="_Group_253" data-name=" Group 253"><path id="_Path_250" data-name=" Path 250" class="cls-1" d="M160.43,89.06l-0.27,1.09Z" transform="translate(0 0)"/></g><g id="_Group_254" data-name=" Group 254"><path id="_Path_251" data-name=" Path 251" class="cls-1" d="M157.3,101.22c-0.27,1-.54,2-0.82,2.94C156.76,103.18,157,102.2,157.3,101.22Z" transform="translate(0 0)"/></g><g id="_Group_255" data-name=" Group 255"><path id="_Path_252" data-name=" Path 252" class="cls-1" d="M156.25,105l-1,3.39Q155.77,106.68,156.25,105Z" transform="translate(0 0)"/></g><g id="_Group_256" data-name=" Group 256"><path id="_Path_253" data-name=" Path 253" class="cls-1" d="M154.05,112.59h0l-7.69,1.7Z" transform="translate(0 0)"/></g><g id="_Group_257" data-name=" Group 257"><path id="_Path_254" data-name=" Path 254" class="cls-1" d="M155.16,108.78q-0.49,1.68-1,3.38Q154.68,110.46,155.16,108.78Z" transform="translate(0 0)"/></g><g id="_Group_258" data-name=" Group 258"><path id="_Path_255" data-name=" Path 255" class="cls-1" d="M158.48,96.8q-0.56,2.11-1.14,4.25Q157.93,98.92,158.48,96.8Z" transform="translate(0 0)"/></g><g id="_Group_259" data-name=" Group 259"><path id="_Path_256" data-name=" Path 256" class="cls-1" d="M158.48,97.55l0.06-.23Z" transform="translate(0 0)"/></g><g id="_Group_260" data-name=" Group 260"><path id="_Path_257" data-name=" Path 257" class="cls-1" d="M160.43,90.21l0.37-1.48Z" transform="translate(0 0)"/></g><g id="_Group_261" data-name=" Group 261"><path id="_Path_258" data-name=" Path 258" class="cls-1" d="M159.41,93.86l0.27-1Z" transform="translate(0 0)"/></g><g id="_Group_262" data-name=" Group 262"><path id="_Path_259" data-name=" Path 259" class="cls-1" d="M161.27,86.61l0.43-1.77C161.56,85.41,161.45,86,161.27,86.61Z" transform="translate(0 0)"/></g><g id="_Group_263" data-name=" Group 263"><path id="_Path_260" data-name=" Path 260" class="cls-1" d="M155.15,109.47l0.18-.61Z" transform="translate(0 0)"/></g><g id="_Group_264" data-name=" Group 264"><path id="_Path_261" data-name=" Path 261" class="cls-1" d="M106.62,150.78l-2.49.4Z" transform="translate(0 0)"/></g><g id="_Group_265" data-name=" Group 265"><path id="_Path_262" data-name=" Path 262" class="cls-1" d="M98.52,152l-4.63.65Z" transform="translate(0 0)"/></g><g id="_Group_266" data-name=" Group 266"><path id="_Path_263" data-name=" Path 263" class="cls-1" d="M102.2,151.45l-1.93.3Z" transform="translate(0 0)"/></g><g id="_Group_267" data-name=" Group 267"><path id="_Path_264" data-name=" Path 264" class="cls-1" d="M111.16,150l-3.13.52Z" transform="translate(0 0)"/></g><g id="_Group_268" data-name=" Group 268"><path id="_Path_265" data-name=" Path 265" class="cls-1" d="M92.66,152.82l-1.55.2Z" transform="translate(0 0)"/></g><g id="_Group_269" data-name=" Group 269"><path id="_Path_266" data-name=" Path 266" class="cls-1" d="M88.92,153.3l-1.42.17Z" transform="translate(0 0)"/></g><g id="_Group_270" data-name=" Group 270"><path id="_Path_267" data-name=" Path 267" class="cls-1" d="M85.24,153.75l-1.38.15Z" transform="translate(0 0)"/></g><g id="_Group_271" data-name=" Group 271"><path id="_Path_268" data-name=" Path 268" class="cls-1" d="M111.93,149.89q1.31-3.68,2.62-7.44-1.32,3.75-2.62,7.44h0Z" transform="translate(0 0)"/></g><g id="_Group_272" data-name=" Group 272"><path id="_Path_269" data-name=" Path 269" class="cls-1" d="M64.23,134.59l7.14,8.16c3.25,3.68,6.57,7.37,9.85,11-3.28-3.62-6.6-7.31-9.85-11Q67.77,138.66,64.23,134.59Z" transform="translate(0 0)"/></g><g id="_Group_273" data-name=" Group 273"><path id="_Path_270" data-name=" Path 270" class="cls-1" d="M63.65,133.92l-1.95-2.24Z" transform="translate(0 0)"/></g><g id="_Group_274" data-name=" Group 274"><path id="_Path_271" data-name=" Path 271" class="cls-1" d="M120,127.32l0.59-1.75Z" transform="translate(0 0)"/></g><g id="_Group_275" data-name=" Group 275"><path id="_Path_272" data-name=" Path 272" class="cls-1" d="M114.67,142.7l0.05-.15Z" transform="translate(0 0)"/></g><g id="_Group_276" data-name=" Group 276"><path id="_Path_273" data-name=" Path 273" class="cls-1" d="M117.3,135.16l0.2-.59Z" transform="translate(0 0)"/></g><g id="_Group_277" data-name=" Group 277"><path id="_Path_274" data-name=" Path 274" class="cls-1" d="M83.31,154.15l2-.22Z" transform="translate(0 0)"/></g><g id="_Group_278" data-name=" Group 278"><path id="_Path_275" data-name=" Path 275" class="cls-1" d="M104.17,151.34h0Z" transform="translate(0 0)"/></g><g id="_Group_279" data-name=" Group 279"><path id="_Path_276" data-name=" Path 276" class="cls-1" d="M95.63,152.59l0.84-.11Z" transform="translate(0 0)"/></g><g id="_Group_280" data-name=" Group 280"><path id="_Path_277" data-name=" Path 277" class="cls-1" d="M86.89,153.74l2-.25Z" transform="translate(0 0)"/></g><g id="_Group_281" data-name=" Group 281"><path id="_Path_278" data-name=" Path 278" class="cls-1" d="M90.92,153.23l1.77-.22Z" transform="translate(0 0)"/></g><g id="_Group_282" data-name=" Group 282"><path id="_Path_279" data-name=" Path 279" class="cls-1" d="M100.59,94.53l-0.07-.08h-0.1c-10.69,2.2-21.28,4.48-31.45,6.77H68.85v0.05q-0.57,1.92-1.12,3.81h0c-1.47,5.1-2.85,10.11-4.08,15l-0.1.39q-0.43,1.64-.84,3.26l-0.41,1.53c-0.17.7-.36,1.42-0.52,2.12s-0.33,1.38-.49,2l-0.36,1.48H61c0.18-.79.38-1.58,0.57-2.38l0.28-1.15c0.2-.85.42-1.7,0.63-2.55l0.27-1,0.87-3.4,0.06-.25q0.95-3.68,2-7.44l0.12-.46q0.45-1.65.92-3.3l0.32-1.1,0.76-2.69,0.4-1.35c0.23-.82.47-1.62,0.71-2.45h0l2.8-.62c7.95-1.77,16.09-3.53,24.35-5.25l4.3-.9h0l22,24.82h0.1l-22-24.82h0Z" transform="translate(0 0)"/></g><g id="_Group_283" data-name=" Group 283"><path id="_Path_280" data-name=" Path 280" class="cls-1" d="M166.75,82.12l-1.51.24-1.42.23-1.75.29H162V83h0c-0.17.76-.37,1.53-0.55,2.29l-0.32,1.24c-0.2.84-.41,1.67-0.62,2.52l-0.27,1.09c-0.21.84-.43,1.69-0.64,2.54l-0.29,1.12-0.79,3q-0.56,2.11-1.14,4.25v0.17c-0.27,1-.54,2-0.82,2.94l-0.23.83-1,3.39-0.11.4q-0.49,1.68-1,3.38l-0.13.44h0.11l1,1.18-1-1.14q0.47-1.59.93-3.18l0.18-.61q1.65-5.72,3.14-11.3l0.06-.23,0.91-3.46,0.27-1c0.22-.87.45-1.73,0.66-2.59l0.37-1.48c0.17-.71.36-1.42,0.52-2.12s0.29-1.18.43-1.77l0.42-1.75h0l2.35-.39,0.81-.13,1.88-.31,1.25-.2,2.24-.36,0.43-.07V81.45l-2.7.43Z" transform="translate(0 0)"/></g><g id="_Group_284" data-name=" Group 284"><path id="_Path_281" data-name=" Path 281" class="cls-1" d="M162.82,123h0q-3.06-3.61-6.19-7.27Q159.76,119.4,162.82,123Z" transform="translate(0 0)"/></g><g id="_Group_285" data-name=" Group 285"><path id="_Path_282" data-name=" Path 282" class="cls-1" d="M123.31,162.41h0q-4.19-4.52-8.46-9.18Q119.12,157.92,123.31,162.41Z" transform="translate(0 0)"/></g><g id="_Group_286" data-name=" Group 286"><path id="_Path_283" data-name=" Path 283" class="cls-1" d="M113.3,151.53l1.34,1.46Z" transform="translate(0 0)"/></g><g id="_Group_287" data-name=" Group 287"><path id="_Path_284" data-name=" Path 284" class="cls-1" d="M154.2,112.61h-0.11l-7.69,1.7c-7.77,1.71-15.75,3.41-23.77,5.1h-0.1c-2.61,7.78-5.25,15.48-7.88,23q-1.32,3.75-2.62,7.44h0.1q5.75,6.31,11.42,12.4h0q-5.63-6.07-11.38-12.36,1.27-3.59,2.56-7.25l0.05-.15q1.29-3.66,2.57-7.38l0.2-.59q1.25-3.63,2.51-7.3l0.59-1.75,2-6c10.7-2.2,21.29-4.48,31.46-6.77l2.54,3q3.13,3.65,6.19,7.27l0.09-.18q-3.8-4.49-7.71-9Z" transform="translate(0 0)"/></g><g id="_Group_288" data-name=" Group 288"><path id="_Path_285" data-name=" Path 285" class="cls-1" d="M77.14,170.16h0q1.51-5.47,3.26-11.49Q78.66,164.65,77.14,170.16Z" transform="translate(0 0)"/></g><g id="_Group_289" data-name=" Group 289"><path id="_Path_286" data-name=" Path 286" class="cls-1" d="M81.11,156.19l-0.36,1.21Z" transform="translate(0 0)"/></g><g id="_Group_290" data-name=" Group 290"><path id="_Path_287" data-name=" Path 287" class="cls-1" d="M80.37,158.06q-1.19,4.08-2.27,8Q79.18,162.16,80.37,158.06Z" transform="translate(0 0)"/></g><g id="_Group_291" data-name=" Group 291"><path id="_Path_288" data-name=" Path 288" class="cls-1" d="M78,166.26l-0.57,2Z" transform="translate(0 0)"/></g><g id="_Group_292" data-name=" Group 292"><path id="_Path_289" data-name=" Path 289" class="cls-1" d="M77,170.16h0l0.28-1Z" transform="translate(0 0)"/></g><g id="_Group_293" data-name=" Group 293"><path id="_Path_290" data-name=" Path 290" class="cls-1" d="M81.08,155.64l-0.5,1.72Z" transform="translate(0 0)"/></g><g id="_Group_294" data-name=" Group 294"><path id="_Path_291" data-name=" Path 291" class="cls-1" d="M112.07,149.91H112l-0.79.13-3.13.52-1.41.22-2.49.4-1.93.3-1.93.3-1.75.25-4.63.65-1.21.16-1.55.2-2.18.29-1.42.17-2.27.28-1.38.15-2.23.25h0v0.06l1.65-.18,2-.22,1.62-.19,2-.25,2-.25,1.77-.22,2.94-.41,0.84-.11q3.81-.53,7.7-1.14h0.1q3.81-.59,7.69-1.24l1.33,1.46,1.34,1.46,0.22,0.24q4.26,4.65,8.46,9.18l0.17-.08Q117.85,156.24,112.07,149.91Z" transform="translate(0 0)"/></g><g id="_Group_295" data-name=" Group 295"><path id="_Path_292" data-name=" Path 292" class="cls-1" d="M17.92,113.83h0Z" transform="translate(0 0)"/></g><g id="_Group_296" data-name=" Group 296"><path id="_Path_293" data-name=" Path 293" class="cls-1" d="M8.8,116.49l-0.19.06Z" transform="translate(0 0)"/></g><g id="_Group_297" data-name=" Group 297"><path id="_Path_294" data-name=" Path 294" class="cls-1" d="M18,114q-4.15,1.16-7.65,2.21Q13.83,115.16,18,114Z" transform="translate(0 0)"/></g><g id="_Group_298" data-name=" Group 298"><path id="_Path_295" data-name=" Path 295" class="cls-1" d="M18.66,113.83l1.46-.41h0Z" transform="translate(0 0)"/></g><g id="_Group_299" data-name=" Group 299"><path id="_Path_296" data-name=" Path 296" class="cls-1" d="M9.88,116.36l-1.23.38Z" transform="translate(0 0)"/></g><g id="_Group_300" data-name=" Group 300"><path id="_Path_297" data-name=" Path 297" class="cls-1" d="M6.15,66.28l1-.46,1.32-.59h0L9.34,66.4l0.88,1.22,0.9,1.22L12,70.08l1,1.38,0.83,1.13,1,1.41,0.84,1.13L17,76.79l0.68,0.91L19.4,80l2,2.61,0.19,0.25,1.52,2,0.51,0.66c-0.11.56-.21,1.11-0.32,1.66s-0.24,1.29-.37,1.92-0.17,1-.27,1.54c-0.12.67-.24,1.36-0.36,2l-0.21,1.35q-0.34,2.13-.62,4.24c-0.06.48-.14,1-0.2,1.44s-0.14,1.21-.22,1.83-0.13,1.09-.19,1.63-0.11,1.07-.16,1.61-0.13,1.2-.18,1.81-0.08,1-.13,1.52-0.11,1.23-.15,1.86l-0.09,1.42c0,0.47-.09,1.24-0.12,1.87H19.89l0.22-.06h0.06c0-.53.07-1.07,0.1-1.61s0.07-1.12.11-1.69,0.1-1.17.15-1.76,0.08-1,.13-1.6,0.11-1.13.17-1.69q0.37-3.57.88-7.23c0.07-.48.13-0.95,0.19-1.43s0.18-1.19.28-1.8,0.17-1.15.28-1.74,0.19-1.11.29-1.67,0.21-1.26.33-1.9,0.21-1.12.32-1.69,0.23-1.25.36-1.89h0V85.45h0L22.63,84,21.72,82.8,20.37,81l-0.65-.86-1-1.31-1-1.31-0.22-.31C14.3,73.05,11.34,69,8.5,65V65H8.43l-2.12,1L6.09,66l-1.42.65-0.06.23,0.53-.24Z" transform="translate(0 0)"/></g><g id="_Group_301" data-name=" Group 301"><path id="_Path_298" data-name=" Path 298" class="cls-1" d="M36.8,143.23q0.05-1.32.13-2.67Q36.86,141.91,36.8,143.23Z" transform="translate(0 0)"/></g><g id="_Group_302" data-name=" Group 302"><path id="_Path_299" data-name=" Path 299" class="cls-1" d="M36.69,148.56v-1.72C36.7,147.41,36.69,148,36.69,148.56Z" transform="translate(0 0)"/></g><g id="_Group_303" data-name=" Group 303"><path id="_Path_300" data-name=" Path 300" class="cls-1" d="M36.95,140.45q0.08-1.41.18-2.85Q37,139,36.95,140.45Z" transform="translate(0 0)"/></g><g id="_Group_304" data-name=" Group 304"><path id="_Path_301" data-name=" Path 301" class="cls-1" d="M36.71,151.12v-1.55C36.7,150.07,36.7,150.61,36.71,151.12Z" transform="translate(0 0)"/></g><g id="_Group_305" data-name=" Group 305"><path id="_Path_302" data-name=" Path 302" class="cls-1" d="M36.77,153.58v-1.43C36.75,152.63,36.76,153.11,36.77,153.58Z" transform="translate(0 0)"/></g><g id="_Group_306" data-name=" Group 306"><path id="_Path_303" data-name=" Path 303" class="cls-1" d="M36.72,145.93c0-.68,0-1.38.06-2C36.76,144.56,36.74,145.25,36.72,145.93Z" transform="translate(0 0)"/></g><g id="_Group_307" data-name=" Group 307"><path id="_Path_304" data-name=" Path 304" class="cls-1" d="M37.2,139.27c0-.55.07-1.09,0.11-1.64C37.27,138.19,37.24,138.73,37.2,139.27Z" transform="translate(0 0)"/></g><g id="_Group_308" data-name=" Group 308"><path id="_Path_305" data-name=" Path 305" class="cls-1" d="M36.89,151.14v-2.55Q36.87,149.88,36.89,151.14Z" transform="translate(0 0)"/></g><g id="_Group_309" data-name=" Group 309"><path id="_Path_306" data-name=" Path 306" class="cls-1" d="M36.94,145.14c0-.62,0-1.24.06-1.89C37,143.89,36.95,144.52,36.94,145.14Z" transform="translate(0 0)"/></g><g id="_Group_310" data-name=" Group 310"><path id="_Path_307" data-name=" Path 307" class="cls-1" d="M37,142.21a12.41,12.41,0,0,1,.08-1.73C37.09,141.07,37,141.6,37,142.21Z" transform="translate(0 0)"/></g><g id="_Group_311" data-name=" Group 311"><path id="_Path_308" data-name=" Path 308" class="cls-1" d="M36.87,148.31V146C36.89,146.75,36.88,147.54,36.87,148.31Z" transform="translate(0 0)"/></g><g id="_Group_312" data-name=" Group 312"><path id="_Path_309" data-name=" Path 309" class="cls-1" d="M37,153.61v-1.67A15.25,15.25,0,0,0,37,153.61Z" transform="translate(0 0)"/></g><g id="_Group_313" data-name=" Group 313"><path id="_Path_310" data-name=" Path 310" class="cls-1" d="M37.55,134.77c0,0.53-.08,1-0.12,1.58,0-.52.08-1,0.13-1.58h0Z" transform="translate(0 0)"/></g><g id="_Group_314" data-name=" Group 314"><path id="_Path_311" data-name=" Path 311" class="cls-1" d="M9.88,116.36l0.47-.14L18,114l0.62-.17,1.46-.41h0l1.09,1.39,1,1.21,1.07,1.36,1,1.29,0.93,1.15,1.21,1.51,0.33,0.41L28.51,124l0.58,0.72,2.83,3.47,1,1.18,0.83,1,1.4,1.68,1,1.27,1.17,1.41-0.15,1.85c0-.62.09-1.25,0.15-1.89v-0.07h0.12l-1.16-1.39L35.24,132l-1-1.29L33,129.26l-0.56-.67c-4.23-5.1-8.34-10.2-12.24-15.24H20.19l-0.22.06-1.95.54H17.94c-3.34.93-6.36,1.82-9,2.64l-0.19.06-0.55.17L8.21,117l0.52-.16Z" transform="translate(0 0)"/></g><g id="_Group_315" data-name=" Group 315"><path id="_Path_312" data-name=" Path 312" class="cls-1" d="M80.75,157.42l0.36-1.21,0.54-1.86v-0.06h0l-0.41-.45c-3.28-3.62-6.59-7.31-9.85-11q-3.58-4-7.14-8.16L63.67,134l-1.95-2.24-0.58-.67H61l-0.9.15-2.27.38-0.54.09-2.58.42-0.6.1-6.12,1-2.22.35-0.61-.11-2.32.35H42.62l-2.49.37-1.5.21-1.14.16H37.37v0.07c-0.06.63-.1,1.25-0.15,1.89,0,0.35-.06.7-0.08,1q-0.1,1.44-.18,2.85v0.22q-0.07,1.35-.13,2.67v0.63c0,0.69,0,1.39-.06,2v8.37L37,154.44v-9.3c0-.62,0-1.24.06-1.89v-1a12.41,12.41,0,0,1,.08-1.73c0-.4.05-0.81,0.08-1.2s0.07-1.09.11-1.64,0.07-.87.1-1.3,0.08-1,.12-1.58h0l1.74-.24,0.88-.12,1.58-.23L43,134l1.61-.24,1.21-.18,2.53-.39,0.37-.06,2.63-.41,0.51-.08,2.91-.47,0.62-.1,2.49-.41,2.48-.41,0.68-.11c3.37,3.9,6.81,7.83,10.2,11.71s6.84,7.68,10.26,11.43l-0.4,1.37-0.5,1.72-0.2.69q-1.19,4.08-2.27,8l-0.07.24-0.57,2-0.22.81-0.28,1h0.18q1.51-5.47,3.26-11.49Z" transform="translate(0 0)"/></g></g></g></svg>